<mxfile host="app.diagrams.net" modified="2022-03-05T06:43:56.143Z" agent="5.0 (X11; Linux x86_64) AppleWebKit/537.36 (KHTML, like Gecko) Chrome/99.0.4844.51 Safari/537.36" etag="y_euyNYxIYVS8Pm8MFOf" version="16.6.6" type="github" pages="2">
  <diagram id="b0Auv1Jlue2y7taAIIXk" name="Execution Context">
    <mxGraphModel dx="1529" dy="1905" grid="1" gridSize="10" guides="1" tooltips="1" connect="1" arrows="1" fold="1" page="1" pageScale="1" pageWidth="850" pageHeight="1100" math="0" shadow="0">
      <root>
        <mxCell id="0" />
        <mxCell id="1" parent="0" />
        <mxCell id="D8qQCOqbp-bCA8Lvzt1r-2" value="Global Execution Context" style="swimlane;fontFamily=Comfortaa;fontStyle=1;fontSource=https%3A%2F%2Ffonts.googleapis.com%2Fcss%3Ffamily%3DComfortaa;fillColor=#e1d5e7;strokeColor=#9673a6;" vertex="1" parent="1">
          <mxGeometry x="240" y="140" width="440" height="350" as="geometry" />
        </mxCell>
        <mxCell id="D8qQCOqbp-bCA8Lvzt1r-3" value="global object" style="whiteSpace=wrap;html=1;fontFamily=Comfortaa;" vertex="1" parent="D8qQCOqbp-bCA8Lvzt1r-2">
          <mxGeometry x="25" y="40" width="120" height="60" as="geometry" />
        </mxCell>
        <mxCell id="D8qQCOqbp-bCA8Lvzt1r-4" value="&#39;this&#39;" style="whiteSpace=wrap;html=1;fontFamily=Comfortaa;" vertex="1" parent="D8qQCOqbp-bCA8Lvzt1r-2">
          <mxGeometry x="160" y="40" width="120" height="60" as="geometry" />
        </mxCell>
        <mxCell id="D8qQCOqbp-bCA8Lvzt1r-5" value="When ever you call a function, it will create a execution context" style="rounded=0;whiteSpace=wrap;html=1;fontFamily=Comfortaa;fontSize=20;" vertex="1" parent="1">
          <mxGeometry x="620" y="-230" width="250" height="120" as="geometry" />
        </mxCell>
        <mxCell id="D8qQCOqbp-bCA8Lvzt1r-12" style="edgeStyle=orthogonalEdgeStyle;curved=1;rounded=0;orthogonalLoop=1;jettySize=auto;html=1;entryX=0;entryY=0.5;entryDx=0;entryDy=0;fontFamily=Comfortaa;fontSize=20;strokeColor=#999999;opacity=70;" edge="1" parent="1" source="D8qQCOqbp-bCA8Lvzt1r-6" target="D8qQCOqbp-bCA8Lvzt1r-8">
          <mxGeometry relative="1" as="geometry" />
        </mxCell>
        <mxCell id="D8qQCOqbp-bCA8Lvzt1r-13" style="edgeStyle=orthogonalEdgeStyle;curved=1;rounded=0;orthogonalLoop=1;jettySize=auto;html=1;entryX=0;entryY=0.5;entryDx=0;entryDy=0;fontFamily=Comfortaa;fontSize=20;strokeColor=#999999;opacity=70;" edge="1" parent="1" source="D8qQCOqbp-bCA8Lvzt1r-6" target="D8qQCOqbp-bCA8Lvzt1r-5">
          <mxGeometry relative="1" as="geometry" />
        </mxCell>
        <mxCell id="D8qQCOqbp-bCA8Lvzt1r-6" value="Execution Context" style="rounded=0;whiteSpace=wrap;html=1;fontFamily=Comfortaa;fontStyle=1;fontSize=30;" vertex="1" parent="1">
          <mxGeometry x="110" y="-100" width="190" height="80" as="geometry" />
        </mxCell>
        <mxCell id="D8qQCOqbp-bCA8Lvzt1r-15" style="edgeStyle=orthogonalEdgeStyle;curved=1;rounded=0;orthogonalLoop=1;jettySize=auto;html=1;fontFamily=Comfortaa;fontSize=20;strokeColor=#999999;opacity=70;" edge="1" parent="1" source="D8qQCOqbp-bCA8Lvzt1r-8" target="D8qQCOqbp-bCA8Lvzt1r-14">
          <mxGeometry relative="1" as="geometry" />
        </mxCell>
        <mxCell id="D8qQCOqbp-bCA8Lvzt1r-8" value="In the beginning, it will also create a context which called Global Execution Context" style="rounded=0;whiteSpace=wrap;html=1;fontFamily=Comfortaa;fontSize=20;" vertex="1" parent="1">
          <mxGeometry x="630" y="-40" width="260" height="130" as="geometry" />
        </mxCell>
        <mxCell id="D8qQCOqbp-bCA8Lvzt1r-14" value="GEC have the global object and &#39;this&#39;" style="rounded=0;whiteSpace=wrap;html=1;fontFamily=Comfortaa;fontSize=20;" vertex="1" parent="1">
          <mxGeometry x="960" y="-40" width="260" height="130" as="geometry" />
        </mxCell>
        <mxCell id="D8qQCOqbp-bCA8Lvzt1r-16" value="" style="shape=image;verticalLabelPosition=bottom;labelBackgroundColor=default;verticalAlign=top;aspect=fixed;imageAspect=0;image=data:image/png,iVBORw0KGgoAAAANSUhEUgAABLcAAAHyCAYAAAAZVSx2AAAABHNCSVQICAgIfAhkiAAAABl0RVh0U29mdHdhcmUAZ25vbWUtc2NyZWVuc2hvdO8Dvz4AAAAtdEVYdENyZWF0aW9uIFRpbWUAU2F0IDA1IE1hciAyMDIyIDAxOjQwOjU3IFBNICswN/qq1ggAACAASURBVHic7N11eJNn98Dxb5Km7q5YSwV31w0YbIyNjTGBbTAGY/bO3X6zd/pOmDMYMny4DHfXUrQtFOpC3TXJ74+0gdAUqhTK+VzXrtHnuZ/7OUkLTU7OfW5Fdm6ejluYwxdZjR2CEE1G9juOjR2CEEKIBmJva8PhYyfo3qUDOXn5jR2OEEIIIUS9UTZ2AEIIIYQQQgghhBBC1JZZRGRUY8dQJ2tGqBo7hOtSKG7p4jhxG4mITG/sEIQQQjSQ7l06GP58q7/+E0IIIYS4ktmVL3SEXkXJvhBCCCHEzSAnJ6de5wsK9K/X+WrrgUcnkpaexoJZf+Dr413p/Nbtu/j4i2/w8vJCpVKRmJiEVqvB19eXUXffxcMP3odCoTCMP3TsOKvXrOf8xYtkpGdSVFyErZ0dU5+ewKgRwwAoLilh3sKlrNuwmbT0NBQKJW1Dgnlm0uN0bN/O6P579h3k5+kzuZSSSpmmDIVCSWBrf56Z+ATdunaqFO/hI6HMmreIM+ERAHh5etC5UwfW/ruBFs2bMffPXwxjoy5GM33W34QeP0lRUSFKpQpfH2/ef/NlgoMC6+X5FUIIIW4XZo0dgBBCCCGEuDlt37YVXQ0K0Lt07YqjY/33b0y9lEqrli3o26snGVmZhEdE8uv0mWRmZvHs5AmGcTt372PX3n24urjQsUM7rK2tSLmUikt5TKWlpbz29kecOHUKb28vRt49nKSkZI6GHueVtz5k2jef065tiGE+LVrs7ewIDPDH1taW2Nh4Tpw6xRvv/x+//fANwUGtDWPXb97GF998D0BwUCCeHu4kJCSy9t8NlR5PyqVUnn/lLQoKCujTqye+Pl7k5uVx4uQZbG1s6v35E0IIIZo6SW4JIYQQQgiTCgoKOLB/f7XG+vr5cceddzZIHCOGD+WNl54zfB128hQvv/k+/yxfxbhHHsTezs5o/PNTnuLOwQMqzbNo6QpOnDpF925d+Pyjd7G0sABg6fLVTPv9T36bMYdfvv/SMH5An94M6NPbaI4ffvmD5avWsnr9JkNyKycnhx9+/h2At199ibuHDzGMP3TkGK+/+5HRHLv37KegoIAxo0fxn2cn1+YpEUIIIcQVpKG8EEIIIYQwacjQYdja2l53nFKp5MEHx9yAiPQ6tm9Hl84dKdOUceFidLWvW71uIwAvPzvFkNgCGH3fSBzsHTh5+jR5+dfeSfL+e0cAkJCQaDi2ffdeCgsL6d6ti1FiC8C/VctKc6gt1ABkZWVXO3YhhBBCVE0qt4QQQgghhEkWFhaMuu9+Fsyfd81xAwYOwtXN7QZFpefn483hI8dIT8+s1vi09AxSLl3CwtyC3QcOwQHj82q1PuGUmJRMYMDlnmQpl1LZd+AQKanp6LRaXFycAcjLyzOMiSxv0N+zW9dqxdKrezfsbG3Zsn0n2bm5jB09ih7duhj1DxNCCCFE9UlySwghhBBCVCmkTRtCQtpw9uwZk+ddXF0ZOGjQjQ0KsLCwBCC/qKha43Nz9cmo4pJifv/zryrH5RcWGv48fdY8FixeilarqTROd0Uzstw8fbWXk4N9tWLxcHfjh68/54dfpnP4yDEOHzmGt7cXk54cz1ATyymFEEIIcW2S3BJCCCGEENc06v77iYo6T0lJSaVzDz44BjOzm/8lpaWlfhminZ09s37/scpxTo4OAGzbtYd5Cxfj4e7Omy+/QMcO7VCpVFyMjuGpZ/9jdI2VtT7RlppRvSoygNYBrfjl+y+JOBfF4mUr2bp9F59+8Q3Z2TmMuX9kTR+eEEIIcVuTnltCCCGEELe41atXN+j8tra2DB12V6XjXbt2w69Zswa9d33xcHfD2tqa3NwcSoqLcXdzNflfxfLEsBOnAXj8sbF079YZc3M1KpUSV1fnSnO39tcvYzwedqLGcQW19ufDt1/j04/eBmDx0hW1fYhCCCHEbUuSW0IIIYQQt7CKxFZDJ7h69uqFt7e34WsrK2vuGjGiQe9Zn5RKJXcM6A/Aj7/NoNhEFdqVLC311VgJicnXnfvOQf2wtLDkwKEj7Nizr1bxdenQAdDvUCmEEEKImrn5a8iFEEIIIYRJVye0Vq9ezahRoxrkXgqFggfGPMQvP01Dp9Mx8t57sbKyapB7NZTJT43n0NFjHDx8hCcmPUeP7l1xd3elsKCI8HPnGHv/KHr17AboE1b/LF/FkmUryM7OpnWAPyqVktS0jErzOjk68uLzk/nmu5/46NOv6Ne7J8FBAWi1OuITEyuNX7HmX3bvPUDH9m1xcLAnP7+AneVJsW5dOzfskyCEEEI0QU02uRUeHk50dDQxMTGkpaWh0+l46623DKXmQgghhBC3sqoqtRoyweXh4UG/fv1JTEqkQ8eODXKPhuTk6Mjv077h5z/+Ytee/axa+6/hnKWlFSOHDzN8HRjgz0fvvcHvf87m342bYeNmwzmFQomzs/HyxHuHD8PF0ZHfZ8xh97797N6333BOrTanVcsWhq/zCwo4HnaSI8dCjcYMH3onL0ydVI+PWAghhLg9KHRXbvXShLz33nuUlpZiYWGBRqOhrKyMTz/9FAsLi+tee/jYCbp36XADohRCCCGEuL6cnJw6z2Fvb294jZNTvrtfbZSWlpKXl4eTk1OdY2pMhYVFxCUkUFpSirOzE26uLiYb4+t0Oi6lppGRkYlCqcTB3q7KsRWSUy6RlpYOgKOjA56eHpipVEZjioqLiY9PpKCwAHs7O9zd3LC2vrUq4YQQQoibRZOt3Bo9ejS+vr54eHjwww8/kJSU1NghCSGEEELc8tRq9S2f2AKwsrIkMMD/uuMUCgUe7m54uLtVe25PD3c8PdyvOcbSwoIA/5bVnlMIIYQQVWuyya1u3bo1dghCCCGEEEIIIYQQooHJbolCCCGEEEIIIYQQ4pYlyS0hhBBCCCGEEEIIccuS5JYQQgghhBBCCCGEuGU12Z5bQgghhBBNzfHjx2t8TadOnRogEiGEEEKIm4dUbgkhhBBCCCGEEEKIW5Ykt4QQQgghhBBCCCHELUuSW0IIIYQQQgghhBDiliXJLSGEEEIIIYQQQghxy2qyDeX37t1LamoqANnZ2QCsXbsWlUqFWq3mnnvuaczwhBBCCCGEEEIIIUQ9aLLJrdOnT3P+/HmjYwcPHgTA0tJSkltCCCGEuG1FREY1dghCCCGEEPWmySa3pkyZ0tghCCGEEELclLp36dDYIQghhBBC1BvpuSWEEEIIIYQQQgghblmS3BJCCCGEEEIIIYQQtyxJbgkhhBBCCCGEEEKIW5Ykt4QQQgghhBBCCCHELUuSW0IIIYQQQgghhBDiliXJLSGEEEIIIYQQQghxy5LklhBCCCGEEEIIIYS4ZZk1dgANraCggLKyMuzs7FAoFA16r/RdseSeSacstxgzOwtaTO3coPe70bIOJZG2MwbfsSFYNndo7HBuChu3bCc2LoGnJ4xr8J+vG2neoqXEJiQavm7dqiUPjb7X5NjomDgWLF1hdGziuIfx8vRokNjy8vJZsnw1A/v1xr9Vi0rnc3JzWbpibZXn60tBQSEHjxwlPiEJhULB+EfGNNi9hBDiZhAaV0ZeiZb+/uaNHYoQQgghbhJarRatVouZWeOml5pkcisqKor9+/cTERFBcXExAJaWlnTv3p3hw4ejVqvr/Z7HJq4lft05FEoFKis1Vh62N31yK27uSax87HC9s0W1xmcciOfMN/tx6u4lya1yazZsZs++A0x84lHMVKp6m3f33gNkZmUz6p67qhwz8qHxWFpYsnTejErnHnjsKco0GlYvnlOr+8clJBEVdREdcOx4GP369KoyuVVQWEhU1EUAEpKSSU5J4b6772qw5NYfs/5m5dr1jH1glMnz9nZ27Ny7nx179jF3+k8NEkNmZhZjn3yG1LRUHOwd8PP1luSWEOK28OGGPKaPdaC1W/39zmss8QlJZOfk0DYkqLFDEUIIIW5J23ftZff+g4y5byRtggMbNZYmmdzavn07UVFRBAUF4efnR1lZGadOnWL37t0kJiYyZcqUeq2yyQ5NIX7dOZqNCaHjtGEozG6N1Z6hr2/Bo3/zaie3bAKc8R7SCnNX64YN7BbSqV0bzFQqlPVctTV7/mJOnD57zeRWyqU0rK2sTJ67lJpGmUZT6/u/89qLAJRpNHTrP/SaY9sEBzLz1+8B+OmPv5g5Z16t73s9iUnJLPxnBZMnjsfW1qbKcc8+/SRTX3qDzdt2MvSOgfUex+btu0hNS+XZSRN4ZtIT9T6/EELcrLJKYMqS7HpPcJWUlLJq3Qbs7Wy5a8jg647fs+8gSSmXGDKoP05OjjW+X0FBIQ898TSFhYXM/PUHunbqUJuwhRBCiNtafkEBWq22scMAmmhyq1u3bjz66KPY2Fx+8ztkyBCmTZtGVFQU4eHhhISE1Nv98iMzAPAY1uqWSWzVhsfd/njc7d/YYdxUnp4wvrFDuK0s+GcFGo2G0SNHXHNcz25d8PbyYs6CJQ2S3EpMTAKgb+8e9T63EELcDJJztKw/XWx0LDFH/6FJQyS4ki9d4vNv9B+UuLo407VzxyrHxsbF8/LbH1JWVoqfrze9unet8f2USgXmanOKiooxb4CKfiGEEELcWE0yudWpU6dKx1QqFR07diQpKYnExMQ6J7dK0wtJWBYBQPqBBABSt8dQfKkAADMbNb7j2hrGp22NpiAmB78n26NQXa7yyT2dSubBJNyHtcTS185obseO7lj7OxE7O4zcyAws3W1o8VRHrFqZ/oRSV6olefU50vfHU5pTjJW3HR7DW+HUy8cwJmlVJMUpBYavC+JziJ5+3PC1fYgLzv39DF9r80uJnX/a6D6e9wRg6WNb5XNTcC6D+CVnyY/JRmWtxq1/M7xGB4LSuLopddNF8qOzaT6pI2nbokn+N4qywlLcBzTH59E2UIdiqCXLVuHu5krHDu1YvHwVMbHxeHq488Cou/Hz8TZ5zZr1m1Apldx91xCOnzjFxq07yM3LI6BVS0bfOwIHe3sAYmLj2X/oiNG1Dz94n8lqwMhzURwLO8nAfr0pKChk5boNpKWl4+/fkkfH3I+N9eUquLCTpzkbcQ7QV15ptRoWLV1pOG9na8M9w69dRXU9ZRoNW7bt5EjoCfILCmjm68N999yFt5dnneatjcNHj7N9914yMrNwcXbizoH96HKNT85LSkpZ8+8munXpiLub6zXnVigU3H3XEGbM/pvIc1EEtq7fpGxJWRkAlpYW9TqvEELcLJKytUw7UFjl+fpOcKWmphn+/P0v05k345cqx/70x1+UlZUC+mXitWFpacnKhbPILyjE18erVnMIIYQQ4ubRJJNbVdHpdABYVbGUqyaKL+UT8d1BADRF+je6CWvOkbTxgv4eHjZGya3omWEkbrmA72NtUVzRmyltZywn/28XvZuNNiS3ChNyOfH+dvweCCZ1dxzaUi1KlYKi9AKiF53mjt1PYuFlvCSr8GIWBx5eSW50JhZOVlh52XJpZyyRvx6h28/D8R6rT+bFzT9N5olLhuvy4rINjwPA78Ego+RWaW7J5cdZWEpZYSl2gU5VJreSV0Rw+LkNoNNhH+BCUVoB0QtO4Tb7BD2WjEZldflHLmb2CRK3XKA4KZfI345i7WNPQVIuccvDyY1MJ/j/+lf321HJl9//TOuAVuTm5FJYVISriwsbt2xn4ZLl/PbDV3Tu2L7SNb/+ORtzczWZWdl88+MvmJubo0DB2vWbKCws4tmnnwTgXNQFps/SL73LzcujtLSEMaPvNdlz6/Cx43zz4y/EJyaxeNkqXF2cycnJZf3mrezee4BZv/2AUqmv9jt8NJQF/+iTWTk5OWg0GsN9AHy8PeuU3EpLz+D5194hIvIcTo6OODo4sGnrdubMX8wPX39aq0++a+ur739m4T/Lsba2xs/Hm5179jF/8VImjH+Ul5+bbPKa4ydOkZ2TTc+u1etl16tbZ2bM/pvte/bVe3JLCCGEPsH1xupc/h7viF0dc/2X0tINfz515iy79x6gf99elcadi7rA5m07DF9nXCO5lZefj6WFRZUNbp2cHK+5pFGn01FSWoqFuTTQF0IIUX0ajQZVNfsxazQaNBoN5g3wu6a0tBSFQnHdRu9l5R/cV7chfFlZWaM3jzfl5ouogeh0OsLCwlAqlbRp06bO89mGuHJX+DMAxP51guNvb6XLT8PwuCegznNXiFseTofPBtNiir4SLeLj3UT8coSYWWEEvtvHME6n0XFw3GpyozPp/O0Q/B5vb6h6SlkfhVJ1ealkjyWjDX9e7f497r396LnsgSpjsPC0MTzOC9MOc+qzPVWOLUkt4OjLmzG3t6D/2rFYt3YGrY7T72wnalYYUd8dJPC9vpWuS94czbDQyVh42VAYl8OuoQs5PyOUwDd7o7Su/Y9oROQ5RgwbwqcfvIWZSkVE5HkmPPsS73/6FasXz0WlqryENDMzm1nzFvHj15/Tv09PFAoFZ8IjjT4ZHjJ4AEMGDwDghdffZc++A9eNZeWa9cz4+X90bN+W4pISXnjtHQ4fDeVo6Am6d9V/f5+eMN6wzHHSc69w4vRZtq1bes15NRoNp89GVD6urdxv6+0PPyMi8hzvvvYSYx+8D9A3033mpTd456PP+XfZAqysLK/7WOpqz/5DLPxnOZ07duCnbz/H1saGvLx8nn/tHWbPW0ifHt3o0a1yAuvo8RMAtGtbvarLNsFBKBRKjoaGwcTH6/UxFJVvVKE2k6UsQojbW0yOlueWZPPrWIc6JbjS0/UtHu6+ayj/btzM73/NNZnc+uOvv43GpWdmGp3fsXsf3077leTkS5RpylAolIQEteY/U5+mVw/jD3FeeftDEhKTmP7T/3B00Fdnb9q6g2Wr1nEhOobUNH01mZnKjDYhQUyZ+Dj9ZDm6EEKIq5wNj+RY2AmSL6WRm5cHgLlaTYtmfvTt1YPmzXwrXTN/8TLiEhIN7yusLC1p3yaYoXcMNNoA7/iJU+w/fJTe3bvSqUM7ozm2bN/FuQsXGXnXUPx89auTCgoK2bF7L6fORlBQqK/AtrezZWDf3pWW/J84dYa9Bw6TkpoKgLOTI/169TC5mqa4uJgdu/dx4vRZ8gsKsLSwwMfLk+LS0to+bfWu6TaIusqOHTtITk5mwIABODrWvPFoY3Bs42ZIbAH4v6R/QZV1PMVoXMr6KHLOp+M3Ohi/J9obLefzGOGP27CWNyTexBWRaApL8Z/cSZ/YAlAqCH6/HyorNdHzTpm8LuT9voZKNCs/e3xHB6It0ZB7Ns3k+OpSKJS89OzThoqqoMAARgy7k4TERH3Cw4Sc3ByenzKRgf16o1QqUSgUtA0Jol+fnnWKZfSou+nYXl/JZ2FuzmMP6ZOMp8MrJ6ZqIi8/j3GTnq30X2Gh8VKSsJOnORJ6nBHDhhgSWwC+Pl5MnfQEmVlZ7Nizr06xVNeKNf8C8NKzT2Nb3hfP1taGF595CoBlq9eZvO5iTCwAPt7VWz5ibW2Fk6Mj0TFxdQ25kshzUSiVKlxdnet9biGEuNWcStPw3JJscouvP7YqGVn6D5H69OjG4AH9OX02nH0HDxuNuRAdw5btOwkKbM1D94/UX5dhXLml02lxsLdn8MB+PHDfSDp1aMeZ8Aief+3tSh8GXYiOIfJ8lOETa4CDR0M5eOQoKpWKPj17MHhAf5o39+PEqdO8+Pq77N57/Q+0hBBC3F6iomM4dyEahQICWjYnKKAV9vZ2REZdYNb8RRw6GlrpmjKNBj8fbzp3aEfHdvrim0PHjrP8qvdCefn5pFxKJS8/v9IcWdnZpFxKpbjk8i/geYv+4dCx4zg6OtC7e1e6d+mInZ1dpRY6W7bvYvmaf8nOyaFT+7a0DQ4kJzeP1es3Vfr9W1payl/zFrH/8FE0Wg0hgQE08/UhPjGJ+ITEWj9v9e22qNyKiIhgw4YNtGzZkuHDhzd2ONXm2MnD6GszRwtUlmaU5hi/ekzfrX/T7zsm+IbFZkrW8WQAXAc2NzqusjPHpZMnl/bHUZyUX2lJpcNVj9PKS7/k8erHWVN+Pt54ergbHeveuSPLV63lTHiEyeoghULJyDr2tTLl6m1R3d3cAMjNzavTvFZWVrzz6n8qHf/8mx+Mvj5w5BgAbYMDiY1PMDrn5OAAQOT5C4wYeked4qmOM+GRmJubV/rkoWvnjpipzDgbHmnyuszyNz4O9nbVvpeDvR3x5c3f6+piTCxHQ8M4fCyMU2fOMvree4x6pgkhxO2sIsFV2wquzMxsABwdHXjmqfFs37WbOfOX0Kdnd8OY2fMXAzD1qcdxdnICKi9LHDygH4MH9DM69uV3P7Fo6QqWrV5H25CgasXz8nOTGX7F78S/5i5k2u9/8uuM2SYryoQQQohhdwyiXZvL78nDI86xZOUa1m/eRnM/Xzzc3QznnnxsrNG12dk5/PLnLM5Gnic3Lw8726p7XFcl5VIqiSmX8PRwZ/KT40z2hAaIi09kz4FD2NvZMenxR3Eor15OSk7hz9nz2L5rL107dcTCQr9UctfeA6RcSsXH04NxDz+Idfl7oNLSUhYtXUlUdEyNY20ITT65FRsby9y5c3F3d2fChAmG/ka3AnOHykvEFColOo3O6FhFg3grP/sbEldVSjOKALB0r/yG38JDf6wkvaBSckvtaPw4K3acvPpx1pSzs1OlYxW9NbKysk1e4+7malQGWl/s7Yz/caqoJtPUcdtUc7U5o+65q9Lxr3/4hTLN5aWJaeW9TL6d9ivfTvvV5Fx5eXVLtFVXVnY2Ls6VK54UCgVOTk5kZpv+3pS3zENRg50GFAqFoddeXR08fIyvvv8ZnU5LUGBrnn7ysXqZVwghhP53A+h/XwYHtqZXj24cOHTEsClIalo6/27cSsvmzRnUv68hqZVx1bJEU8Y+MIpFS1cQG5dw3bFVeeKxh/hzzjwizkWh1WpvqdeTQgghGkdwUGt6dOnEgSPHOHQ0lHtHDKtyrIODPYH+rTgVHkFGRlatklsV7zGLi4vRaDRV9sU6EqrfUG5Qv96GxBaAl6cHQa0DOBt5jpjYOEPf4tATJwEYMexOQ2ILQK1W699fS3Kr4aWkpDBz5kxsbW2ZPHlyvTSSr291TeAAKMz1L7DK8krqPFed4ihPSlU02L+SpkB/TGleP1uGV0dxceXKr5IS/XOkquIvelPd/a4iYffh268TVEVzdedrNNWtT2ZmZoa15VcrKi6qso+Vk6O+wiwrJwc7u+r9Y5+VnYNTPS1DfmTM/Tx43z0cORbGf958nxdee5cVC2fVy9xCCHGra+eqqlPfreycXADs7fTVuZMef4wDh44wZ+E/fP7h2yxcuoKyslImjn8EhUJheNGfY6ICOjnlErv27CfpUiparRZ3VxcAcnNzaxcc+t9dPl5enL9wgYzMLFxdZFm6EEKI62sTHMSBI8eIiYs3Oq7T6TgfdZGUS6nkFxRgY21NUbG+WKSoqKhW93JxccbH04OE5BR+/2sufXt2p12b4ErFGxUrW9LSMyotQaxob1Px4VFuXh55+QVYWJjj6+Ndq7hulCab3MrIyODPP//EzMyMKVOmYG/fuFVNFUkdTUEpSsvLCZ6ipLpXy9gF6CuUcs+m49itZttZ67T1U9UCYN1M/xwXxORgE+RidK4gLgcAS+/qLymrq+SUS+h0OqNyzORk/U6RXp7uVV12U1AolejqWNV1pRbN9DtgqpTKai/JqBivVptTWlK9RoEVDelLr9FY0NvTg8jzFygoKMTa+nLCOS8vn9zcXNqGmF5e26K5/jEkJaXgV41/WAsLi8jKzqaLiZ0xa0utVtO7Zzf69+nJtp27SU1Lx83V5foXCiFEE1bXxBZcXqZvY6P/RLh7106EBAWycfM2npk4nqUr1uLm6sqIYfqlgubmaszM1OTlGfcg+emPv5j190K0JjZWqWslb8UHYAVX9bUUQgghqlKxYcmVvzsyM7OYu+gfMqtYTaSj9r+vHnv4QTZt3cHJ02dZ9e9GNm7bQa9uXenfp6dhB8fCQn3ybN+hI1XOU1xeFFKRaLsV2rE0yZrqnJwcpk+fTllZGVOmTMHFpfHffFp6l3/CeOJyM3idRkfShqg6z+11n76f0/mfj6AtqfxirizbdEWX2t6C/Nhs6vB3x4hrf33yIX7xGaPjeWfSyDqbinNnT1S2N253ucysLA4ePmZ0bMPWHQB071K539bNxN7OljJNGckpl+plvsED+mCmMuPvRUuNlitWKCsrM1lNpVAo8PH25FzURaOGu1XxK2/2fqaKvlkA3bt2RqfT8u+mLUbH127YDEDP7l1MXte1fNeOE2fOXjcOfQwRaLWaSruC1Ad3N1eg7j3ThBDiVmdvTp0TW4Bhd6krd+198rGxlGnKeO7Vt8nJzeGxh0YbffpsZWVJXv7lf4c3b9vJzDnzcHdz5bfvv+bQjo0c3b2FJXP+rFtwQgghRC0VlieHzK/4/bVg6Qoys7Lp1a0Lrz7/DP/3zuu8+9pLtG9T+UN+dfmKI42J93Cm2FhbM/reu3nl+Wfo37snWq2WHXv2sWzV2stzlsfy5GNjefWFZ0z+17tHN33c5vq+W1d/mHQzapKVWwsXLiQjI4OWLVuyf//+SuebN29O5843NrnhPqQF52eEEvbGNtp80A+FWkn0zDA0xdX7Ib0WmyAXAp7uzPkZoewf9Q/+z3fFyseOouR8YuedwuueAHzHta10nUf/ZsSvO8fRSetw6++H0lyFbYATjj0vV8WkbYumNFefHMs5q+/blL4vgZLs8i1Lvexw7KFPaLgNa4VjGzfi1kRi9ZEdnve0pigljzOf7AEg6PUb24DVwtyCDz//mtf/8ywe7m6s27SVY8fDuHPQAJPbsVZHSUkpO6/YVbBi6/JtO3YbKsSCg1pXq7LoWnp178q2nbt57d3/Y+TwodhYW2NjY82dg/rXaj43V1eeffpJNlBs5gAAIABJREFUfvpjJuOeepYnHn0IXx9v0jMyOR0eydr1m/jui49NVnWNvvduvv/5d6a+9CZ9e3VHoVLRv1cP/Fu1qDR2YL/euDg789MfM0lJTcPJyRF7GxseuO8ew5hxYx9g+ep1fP/zdHQ6CAlqzZmzEfz425/Y2dry6JjRJh9D547tsbO15cjR4zz9xPX7XR06ql9LPqBv3Xa6NKWi14pWV3/VdUIIcauxN4cZ9ZDYAsgv3wXK0vJycmvIHQPx+GU68QmJWFpa8WD5DokVrCwtyc3NpbS0FLVazZHQEwBMmTCe3j27Gca5lX8gIYQQQtxoCeVLAD3KNxQrLCwkNS0dO1sbo41LzM3VWFlW7rldsVz/6g1UrsfOzpY7B/Wna+cO/D5zLmcizpGVlY2jowMebq5k5+SQmZlFy+bNrjmPg7091lZWFBQWkpiUjLeXZ43iuJGaZHKrojH2xYsXuXjxYqXzpaWlNzy55XpHC1qOb8/FeSc59LQ+a+p3fxD+Uzpx+vO9dZ6/zeeDsPCwIfKnwxyadDkra9fCCbsQ05Vr7b66A4VSQcquWBLW6ittmj/c1ii5deLtHeRFGzdrDf/hoOHPPsMD6Dr3XgAUKgU9Fz9A6DP/EvnbUSJ/OwroG+N3/fEu3Ia2rPPjrImOHdrS2r8Vb334GbryJES/Pr34+L03aj1nTm4ub7z/caXjb37wieHPb7/6Hx4Zc3+t7wHw4H0jSUq5xPpNW/nmx1/RajX4+njXOrkFMOnJcTg42PPbjDm898kXhuPm5ub06t4NdzfTPyfjHx5DUWERK9dt4Mff9J9+Ozs4mExuWVpa8vuPX/Pl/35i8bJVFBUV4uXpaZTc8vL04Lfvv+KDz77m82++Nxxv2bw5n334VpXL/CzMzRk5YhiLl62q1nLAfzduITgwsMpljnVRkcisr2b1Qghxs/FyUPJiT/3ScU8HJV72KiJTy/hyp34Tm4rEVmu3+umlWVBYiJmZ2tAMF/SNcR8dcz8//DqdkcOHGl7gV6io8srLy8fJydHwdexNtC25EEKI28fVPZ/z8wvYc+AQAO3a6IsIzMzMUKBfGlhUVHzdns8eHvp2OhHnosjJza30u/B6HB0ccHKwJ+lSqmGpYfu2wURGXWDHnn209m913X7Gndq3Zd+hI6zftJUnHhvbIBuw1QeFTt6dVXL42Am6d+nQIHMXxWRTmJCLVXNHLH1qvgPC9eg0OvLOplGWU4ylly1WLW9Mk/CrFSXkURiThcpajV1bNxTqG7sCtku/oXTr0pHp074lNS2NuPhEPD3cb+pM842i1WqJjokjMzsbR3t7fLw9jT4pv5EuRMeQmZWNi5OToafWtcTGJ/DAoxOZOnnCNau3jhw7ztMvvMrnH77DPcOH1mfIAPw8fRYzZv/N9Gn/o0e3m3uJqxCiacjJ0feuPH78eI2v7dSpEwD29vZ1eo0TGlfGU0tz6j2xVVRcTK/BI7CztWX3ptXVvu6RCVMJj4xk9ZK/aebrQ3jkOcY//QI6nZaRI4YREtgalUpFSmoaM2b/TWCAP0vmXl6ieN8jTxITG8eWNUsNDeI//fp7lq1cw5cfv2/0iTrA+Kef59SZs4b7CSGEEKBvr3IkNAyFQkFQgD/eXh6UlJQQduosuXl5tPDz5clxDxs+IP9nxWpOh0fi6uJMh7Yh2FhbU6bREHbqDIlJyTzy4H0EB7Y2zL9o6UrCz53H2tqKNoGtsbOzpaiomDMRkWTn5DL+4QcJaNWSS6lprFi9jgD/ltjb26PVaomNi+d0eCT2dra8/NwUwwqU+YuXcu5CNOZqNW2CA3F2dESHjtS0dFxdXBjUv4/h/iUlJfw5Zz6paek42NvRLiQYaysrioqLOR0eQUZmFmNHj6JNcOCNfeKv0iQrt25mls0dsGzu0GDzK1QK7Nq5Ndj81WXpY9sgybvacHN1xc1VliRUUCqVtGrZvLHDAKBVi5rF0czXhzGj72Xewn94bMxoo4b0V/p95lxCggK5+64h9RFmJe3Kl2/+/tdcCgoKcHZ2okO7Ng1yLyGEuNnUZ2ILoKBAXw1W0w9aKiq1KvofBge25utPP+D7n/9g1dr1rGK9YaxCocT1JujBKoQQouny9nDn/IWLhJ87D+jfd3Vu35YRw+402uTsvnuGY6Yy4+TZcLbtMl7FZW6uxqK8z1WFB0bdzZr1mzh1NoIjx08YnXNydDA0e88vKCAzO4fd+w8ZjWnZvBnDhww2JLYAHhkzmp179nHo6HGOnzxtOK5QKOjVzbgHsrm5OZMef4zN23cSdvI0e6/aYdHezg5bm8ZvOC+VWyY0ZOWWuDGurNwSTUtWdg5/L1rKXXcOIjCgVaXzObm5zFnwD0MG9SckqLWJGepOq9XyzY+/subfTeTl5+Fg78DODSsa5F5CCAE3T+VWUo6Gu9vWQ5OtBqTT6Ui5lEpaegZKpRJHB3vc3VwxM5PPdIUQQtS/isqtMfeNJCSoNRmZWZSUlODq4oyFRdW/M0tKSsnOyaa4uARzc3PsbG2NNla5WlFRMZlZWWi1WizMzXFwsK+0RFCn05GekUlhYSFqtRp7O7sqCwIqxqelZ1BUVIy1lSX29nbXXHZYVlZGWnoGJSWlmJurcbC3w8qq6vlvJPktL5okc3Nz1GY351pgUTeODva8+MxTVZ63t7O75vn6oFQqeeuVF3jrlRfIzsmhpKS0Qe8nhBA3g85+ZnS+BV46KhQKPD3c8SzvUyKEEELcKCqV6rq9gSuYm6trtMLI0tICL0+Pa45RKBSGpfbVoVAoqh0v6HuG3ay/X2/+VyhC1MKBbesaOwRxm3Cwt2/sEIQQQgghhBDitnZju3wLIYQQQgghhBBCNBG2Nja4ODthYWF+/cGiwUjllhBCCCGEEEIIIUQtDOrfx2h3QdE4pHJLCCGEEEIIIYQQQtyymnTllk6nIz8/H41Gg729vdH2m6Lpio6JY8FS453rJo57+LrN9xrCvEVLiU1INHzdulVLHhp97w2Pw5S8vHyWLF/NwH698W/VorHDMSn/3Dku/v6n0bGAV/6Dpa+vyfEXf/mN/AsXDV/btwmh2aSJDRrjzUyn1XL6jbeNjnndOxKXQQNqOJGO8998h41/K7weHF2nmHbu2U9qWhpj7r85/h4IIYQQQgghbn1NsnIrLCyMn3/+mXfffZdPPvmEzz//nA8//JAVK1ZQVFTU2OGJBlZQWEhU1EWioi6ya89+lixbSUZmVqPEEpeQRFTURc5HXWTJspXs3Lu/UeIw5Y9ZfzNr/iI83N2uOS5142Y2B3QiY/cek+djZ/zF5oBOJMxfWOlc/Nx5bA7oRNxfs2sVoyY/n9zTEeSejiB53RYufDefkkupVY4vuBhN7ukIck6Fc+G7+aRs2Fyr+9bFju792TN4+DXHJCxaon/OFi5u2GB0OsPzl77nIBe+m0/2iRM1n0aj4cxb3xG/6J8qx0R++l82B3RCV1x8zbkszM357Ovv2XfwcI3jEEIIIYQQQghTmmTlVkxMDPn5+XTp0gVHR0d0Oh3h4eHs37+fhIQEnnvuOZTKJpnXE0Cb4EBm/vo9AD/98Rcz58xrtFjeee1FAMo0Grr1H9pocVwtMSmZhf+sYPLE8dja2lxzrKawkMKoVLRFppMWpbm5FEalUpafX+lcWV4ehVGplObl1SpO+06d6L1hFQCRn3xO+Ee/XnN822+/AkBXVsYadfNa3bOuVFaWZO45jU6rRVHFvzN54REURqVi6d6w2+gqVCrD85e2fSf77niswe5VkpVFYVQqOp2Oa9XI9urRlY7t2/G/n36nd49uUlErhBBCCCGEqLMmmeG56667eOutt3jooYcYOnQow4YN48UXXyQgIIDY2FgiIiIaO0QhGtWCf1ag0WgYPXJEY4fS5Ni29kdXpqUkKanKMQVxCQBYt/a/UWHdVMbcdw9RFy5K9ZYQQgghhBCiXjTJyi0LC4tKxxQKBSEhIZw/f560tLRGiOrmczEmlk3bdhIXn4CFhQVB/q0YPuwO7O3sjMaVaTRs2rKdI6FhFBYV08zXh5EjhuLn4200LjMrm41bthMS1Jpmvj4sW7WWqOhYXF2cGfvAqErjAbRaLdt27iH0xCkyMrNwcnQguHUA/fv2wsnRodL4mNh41m7cTHxCElZWlvTo0olhdw6ql0q82Lh41m/aRkx8ApaWFvTq1oWhdwy84ZUlObm5rFq7gcjzFwAICQxg1Mjh2NpUrrDSaLSsXb+JI6FhqM3VDBs8EP9Wzdm97xDt2wbT2r9VpWtKSkpZ8+8munXpiLuba4M/nqoUREWRuGQZuRcuYmZtjevA/niNvg9u8POdf/48CYv+If9iDGa2Nrj274vnA/dXWXV1PXblCauC2DgsfHzQlpZSlpODUq3GzN4egMK4BJTWaqPeYbqyMpKWryRtzz40+QXY+rfE59GxWLdsafI+6Tt2kRcZid/4xyhOTSVu7nzyY+Ow9vHGd9wj2LRuXav4AdJ37iJp1VrK8vNx6dUD38ceqfVcptw5aACfff0DS1eupW+vHvU6txBCCCGEEOL20ySTW1VJKq+kcHVtvDf0N4s/Z83j1xmzUSgUtGzRDJ1Ox4rV//L3oqWs+edvw7jCwiKmvvwmYSdP4eLsjLOTExu3bOevvxfyzacfMGhAX8PYS5dS+fK7adwzfBiHjoRSVlaKSqUiLT2dVWs3sGz+DNyueO7LysqY/OLrhIadwM3VDU8PN46GhrFgyTIeG/sgb778vFHMm7bu4N3/+y86dLRq0YL0jEyWr1rL0pVr+fm7L7A0kdSsrsXLVvL1D78A0MzXl6zsbJavWkvfdT358ZvPMFOpaj13TVyIjmHyC6+RnpFBMz8/dFota9ZvZPaCJcz45Tua+foYxpZpNLz0xvvsPXAQa2trXJ2dWb5qLUPvGMTmbTt4+YWpJpNbx0+cIjsnm55dO9+Qx2RKzJ8zOfHc/wFg26E5JZcyuDhtEZ4PLKL74nkozG7MP01Jy1dy5JH/gE6HfZdWFCWnc3HaItyGz6Xn8oUoraxqPKdNgD65VRifgBOQtGQpR8e/jl3nFgw+theAgtgEbNs2MyTQNPn5HLhvLOlbj2PZ3BkLD2fiZ68l4rNf6fHP77jfU7nCLm7REmL/WIGFhwfHJr6MJrcElaMlZWkFZBw4YliOWFPnvvqWs29/j5mzFbaBfiQs+JeUjVtqNVdVrK2taNcmmH0HDlNaWopara7X+YUQ1xcdG9/YIQghhBBC1JsmndzKysoiLy+P/Px8zpw5w5EjRwgMDCQ4OLixQ2tUG7ds55c//6J92zZ8+/lHhobiGZmZLPhnpdHY3/+aS9jJU4x7eAyvvTgVpVLJhegYnnr2Zd7/9CvWLZuHQ3k1SoV1Gzbx9qv/4ZEx9wMw7fcZ/DV3Af+sWMtzkycYxm3buYfQsBOMf+QhXntxqqFC6mJMLMnJl4zmzMjM5KP/foOdvR2zf/uR5s180Wq1fP3DLyxauoKZcxfw/OTa7Yp35NhxvvjfNNoEB/HdFx/j6eGOTqfjj1l/8/uM2cxbtJQJ4x6u1dw19cGnX5OekcF3X3zCHQP7AbB5207eeP9jPvr8G2b99oNh7NIVa9h74CDD7hzMfz96BzMzM0LDTjL1pTeveY+jx/UNxdu1DalWTM59e9Nn2wIcOra/5rjCuHhyjoUaH4tPqDQuY/cewqZ8iFP/NnRfMEtfvaTTcf6rbznzzg9c/OU3Wr30YrViq4uS1FRCn34Nc087+m1bhU1AADqtljNvvUvUt39z/n8/EPj+OzWe93JyS//GMfNoKAqlgtzQaMpyclDZ2FAYlYr32A6Ga8599S3pW48T8PZEQj7/BIVSSV5EBHvuuJ+jE19iSEQv1E5OJu938vUPCP7oZVpMnoTS2pqi+HjStu2o+RMC5J44ydl3vsepXwi91y7DzMGB4pQU9tx5/Z0NW06djOfIe1CYm1frXu3ahnD0eBinzoTT+To/W0KI+teimeldZ4UQQgghbkVNsudWhR07djBt2jRmzpzJ/v376du3L0899dRt38B4xpwFKJUqPn3/LaOd8pydnHhhyuUEkU6nY9Xa9dja2PLiM08Zlv61atGchx+8n7z8PDZv21lp/uDAQENiC2DiOP2SpjPhxr3OklL0CaxunTsafU9aNm9G757djMZu2rqTwsJCxj00mublL8iVSiUvTp2ElZUVK1b/W6vnAvTPB8CXH7+Hp4e+wbdCoWDKhPH4+nizvA5z18T5Cxc5ffYsPbt1NSS2AIbeMZCunToSGnaC6Jg4w/Hlq9dhpjLjrVdewKy80qlzx/bcNXTwNe9zMSYWAB9vr2rFZe7mhuvggaidna85LvKzP9nRdaTRf+e++KvSuHPf6hN0XWf9fnlZnkKB/5uvYdPWh+hZC6oVV10lrVhFWWYR/i9OwiYgQB+GUknwh+9h5mRJ9F+Vd3+sDkNyq7yvVubhY/g+rq+8yjoaSnFSEroyLbYV/bZ0OqJnLkLtZkPwB+8aqrlsg4Lwf34Cpan5JK+ougrLdVBvWr30IkprawAsfX3xfWJ8rWKPnbcAdBD41quYOeiXBVt4eBD42vPXuRJsWrfGdfDAai/n9C3/+YuOjbvOSCGEEEIIIYS4tiZdudW9e3datGhBbm4u4eHh7N27l4KCAh5++OHbdrfE7JwczkVF0TYkhBbN/a45Nik5hazsbPr07IGlpaXRuV7du/DHX3M4Ex5Z6bo2IYFGX9vZ2WJpaUVunvFuekHlb+5//uMvtFot3bp0rNTvq8Lps/rEWM/uXY2O21hb075tCIeOHCM1Lc1o2WN1lGk0HD1+Am9PT1AoiL2q0sjP14f9Bw9TXFKCRTUrUmrrzFn9c9mre5dK53p178rR42GcjYikRXM/SkpKORd1kYBWLXFxNq7o6dapI6vXbajyPplZWQA42Jt+rmvL7+lRuA8aYHQsZesO4metNXytKysjdfNhrIP1z3fBhQtG421btyBl5V60RUUor/qZq2+Zx44D4HZVzCo7O5z7duTS2oMUJSVh6VW9JKDheltbLFu5UhAbh664mKyDkQS88gIZh0LJOnYMlaV++axta31CrTAujpLEHDxH9zMkqCq4Dh4ITCPz+Amq+tvabNyjNYrvWrJCTwLg3K+P0XGXq56j+lDx85eZmV3vcwshhBBCCCFuL006ueXj44OPj75HUf/+/Vm1ahV79+6lVatW9OzZs5Gjaxzp6ZkAeHt5XHdsVnYOQKXkCYCLi76KJzMrp9I5UwkqM5UKjUZjdKxX965MenI8c+Yt4tV3PgTAz8eHu4beweQJ44ySSVk514jF+XIsNU1u5eTkUFpaQmJyMqPGPl7luPz8/AZPbmVm69/ku5iokLr8fOvH5OblodNpcXZyrDTWVCP+K+l0+v8rqN8KRufuXfG5KtFSmp1tlNwqzcxEW1hGQXgyW/z7VzlXWW4u5g2c3CpNzwDAvLxa70oW7vpjpRkZNU5uAdgFtqQgNoHssBPoSjU49+yOc9/uZB06inWzZgDYlPdDK80oj+OKKkpDHOWxlaalV3kv6xbNahxfVUrSM1GoVagdjX+uLNwqx1ZXFdWaWnT1PrcQQgghhBDi9tKkk1tX69OnD3v37uXMmTO3bXLLTK3/lhcUFF5/bPlSt6Li4krnior0x9Tquv0IvfjMU0wc9zCHjoZyLOwkG7dsZ8bsv4mJjeObzz68HIuqYWJRm+kbWbcNCebd11+qcpz9VX3FGoL6ms93kX5MeeNt8/L/FxRW/j6aOnaliuRXVk4Odna2tQ+4FpTlCUKnAW3p+P1XVY6rqr9UvcZS/hxqTDxf2vJjylo2OrcN9Cdz3imyjoViHeSBhY8PLr16EP7pdzj16g6AdXnllsIQR1GleSpiU14jsVqbpvdVzqU2Q1eqQVtaavTYNUWVY6uriuS5s2PlBK0QQgghhBBC1MRtldzSlZesFF7nzX9T5uXhjoW5BReiY9BqtddcnulVXjWSmJRc6VzFMW8TVS81ZWtrwx0D+3HHwH48P3kiD094hq07dlNSUoq5uf4NdkWlWWJiMq1aNDeOJTkZhUKJh4nqEisrffVPaWmpyXvb2dni7ORMRmYWbUOC6vxYqqJSKlGrzSktMR0HgLdnxWNMqnQuofz5rvie2NnZ4uToSHxCIhqNFpXq8vcxzkQT9ytVLEdNSkrBz8e7Zg+kjswcHLBo5kRxShr2XWq2W6PK1gYAjYnk39UUKhVKK7NrjrUq791WGB2LbZDx9z4/Og4UYOldu+fHtrU/ZRmFpG7dgXNvff84p149KIrJIGPfQcw97TB3cdHHUd53rCA6ttI8heU91qz8fCqdqykza30STFtcUuUY62Y+ZB86T3FCAlYtWlwRR+XY6qriZ7p5PTw2IYQQQgghxO2tSTaeys423cPlyJEjAHjVYplRU6FWqxnQrzdJycms37S10vm8K/pi2dnZEhwYyOmz4YYm5BXWrN8EVO6BVRMlJhI9VlaWeHq4odVq0GovL2Ps0VWfCFmzYbPR+PMXLhIReY72bUOwtq5cweJX3rTaVG+wCkMG9ycpOZmNW7abPJ93Va+wClEXornvkSe575EnSUpOqXJ+0C/B8vH25FzURcrKykyO6dSxPWZmatZv2W40prS0lE1bd2Bubk6nDu0Mxwf0601mVhbbdu42HCvTaCo9R1fr2km/S9+JM2evOa6h+Dx4NwURKSQtW2HyfFlO5aWuANbN9UnN7LAT17+JQoFNsC/ZYRFoq0hsug7U95GKW/SP0fHcM2fI2h+By+COqGxrV9lmW96gPmXNHlzKK7VsQ0JQu9mQsm4vtiEtDWPNHBxw7BtM5q7T5Eca/5zGLVgMgNuggbWK40pWLVsAkB0aVuUYtzv090lcbrxrasKSpXW+/9VOnT6LWm1e7V07hRBCCCGEEKIqTbJy6+uvv8bf35+WLVvi5OREYWEhERERnDlzBktLSwYMqP/myLeSl5+bzMHDx/jky++IT0iiV4+u6HQ6jp88zeZtO5k/81fD2GeeGs8rb3/IK29/yEvPPo2zkxObt+9i645ddGjXlp4mmp9X159z5hF28jQjht5BqxbNUalUbN25h0NHjtG3V0+jJvb9evckODCQjVu24enhzp0D+5Gals6Pv/4JwJSJpvtlDezXGxdnZ376YyYpqWk4OTlib2PDA/fdYxgzddITbN+1j/c++ZIzEefo2a0zFubmxMTGs3PvfgB+/PqzSnMXFRcTU77TW2kVCasrjb73br7/+XemvvQmfXt1R6FS0b9XD/xbtQDA0cGesQ+MYsGSZbzyzkc88chD6HQ65ixYQmpaGhPGP4ptefUSwDMTH2fLtl189N9vuHAxBi9PD9Zt3FKpt9nVOndsj52tLUeOHufpJx67btz1LfCdN0havYmj414iIOwErgP6o7S0IP98FCnlSdNui+dVus5jxF1YNnfmzLtfUZSYhLmrC2p7e/wmPGHyPi0mPsbJ//yXg6Mewn3YYBQqFe5D78Q2RJ9McRs2BMe+wcTPXoe138d4jryb4uQUTr+v/14HvfVqrR+jdYC+n5a2WINTT31yS6FU4ty3Eykr92LbupXR+KC3X+PgvZM59MhE2nzyHhZuriStWkPC/E243NER58F1T25ZuLvjNWYgCQu3oLJ/Afs2wQA0m/AEZuXLbn3HPUrkVz8T/vE01Pb2OHTqSNruPUTPWFLn+1+psLCIU2fCDX/XhBBCCCGEEKIummRyKzAwkHPnzhEeHm50vEWLFtx///24lC8Hul35eHsxd/pPfP7tD/w2cza/zZwNgFptzgOj7jEaO3hAPz58+3W+/+UPXnn7cg+svr168tkHb9Vp18mWzfxYuWYDH3/xreGYUqlixNA7eevVF43GqlRKfv7ff3nv4y+YM38Rc+YvAsDB3oFPP3ibfr17mLyHpaUlv//4NV/+7ycWL1tFUVEhXp6eRsktZycn5k6fxn//N425C5YY5gZ9g/vHH32o1o/xSuMfHkNRYREr123gx9/0STlnBwdDcgvg1RenotFoWbpyNbvLE2tmKjPGP/IQLz4zyWg+by9Ppv/0Lf/99kd+mzkbpVLFnYP6M+b+kbzx/seoVSqTcViYmzNyxDAWL1tFalo6bq439u+DuZsb/Xes5eQrbxL52XQiddMN52zb+RLw8lST1ymtren972JOvfoOUdPmoMkuxjrIo+rk1nNT0eTlEz1nEadf/RqArvNcDMkthUpFz2ULCJ38HJGfTifyU30c5l52dF3wHa7DhtT6MVq3aIFCrUJpbYZdu8vVds69euiTWwH+RuM9Rt5Nl9lfcvKtzzh472TDcc8H+tPpj59R1NPurp2m/4KZ/Tskr9lK7B/6yjmv+0cZkltm9vb0Xr2Aw+Mnc3zyB/pjrtZ0mfE/Dj3wXL3EALBt526Kiot4aPSoeptTCCGEEEIIcftS6CoaUTUxGo2GzMxM8vLy0Ol0uLq6YmdiFz9TDh87QfcuHRo4wptDekYm8QmJqNVqmvn5YGtjY3JcaWkp56IuUlRUhJ+vd413JbyWpOQULqWmoVar8fPxvm6T85RLqSQkJmFlZUVr/5aGxvf1ITsnh+iYOBQKBZ4e7ri71d/jrIm8vHyiLkYD4N+qRZXflwpFxcWYmZlhplKx5t+NfPDZV3zxf+8xYtidJsfHxifwwKMTmTp5QqNUb1UozcwkP/IcKBRY+fpgUcseV3VVnJBAQUwsKmtrbNu2qXUj+brSlpSQd+YMmoJCrFq2qNVOjfVCpyPn9Gm0efnYtWtb6+WZVZn03CukpmewYsEso35xQoiq5ZQv2T5+/HiNr+3UqROg3xzldnqNI0zT6XQUFBZiY23dIPMXFhZhbm4u/74LIYS4oZpk5RaASqXC1dUV13pMwjRFLs5OuDhff2c6tVpNm+DABokvA5thAAAgAElEQVTBy9MDr/Jm6tXh4e6Gh3vl5vH1wcHeno7t2zbI3DVha2tTrTgqmslbWlgYju3Ysx+FQmnUn+tqzXx9GDP6XuYt/IfHxow22a/sRlA7OeHY03TV3Y1k4eODhU/jNzZXmptjX/4mtFEpFNi3q/rnpy6OhoZx9HgYP3z1mbzxEUKIG2zbzj28+/EXPDDqbt58+fl6n//pF17jyLFQtqxZiquLc73PL4QQQlSlySa3hLgdjH50Av379qJdm2DMVCp27T3A1h27uH/k3ddNGE6d9CQ2NjbEJyYRGNDqmmOFqC+ZWdm8/MJUBvXv09ihCCHEbScvL5+ioobbNTw1La3B5hZCCCGuRZJbQtzCQoIDWf3vRuYv1u9m5+TkxKQnx/PsJNN9qK7k6GDPi8881dAhCmFkyODbe0MPIYQQQgghRP2T5JYQt7CvPnkfgIKCQjQazXX7lQkhhBBCCCGEEE2NNDwRogmwtraSxJYQQogmI7+gAK1WW62xOp2O4pKSGs1fUFBImUZTm9CMlJWV1WiemjwugKKiIsrKymoUU02fC1Pq8/mp7uMtKiqiqLi42nOXlJTWNiwhhBBNkFRuCSGEEEKIRpeWnsGvM2azedtOcnNzMTNT07NbF56bPIG2IUFGYzdt3cGyVeu4EB1j6PNkpjKjTUgQUyY+Tr/elTcrKS4pYeacBaxYs57UtFQUCiUd2rXhpWefpkun6u8gmZGZyZ+z57Nl+25S01IBsLO1pVXLFvTp0Y1nrmoNUJPHBfodqucuWMKyVetITE4GIDgwkAnjxjJ86B0mY9q+aw9/L1rGydNnKS0tQalU4e3lQXBgayY/OY6gwIDrPq76en4Afp0xm8NHQklI0sffvm3I/7N33+FNVu0Dx79JmjZpm+7dUkYpUPbeeyMgor4ogqLi3vt1vvpTeV/FgRMXKioiIFu2QIGyyyyjUFootKV7j3Sl+f0RCMa0dKUUy/25rl4XOc95znM/T1DSO+fch0fuv4d+fXpa9EtOSeWZf79B/PkESkpNia0APz+m33k7d0251aLv3siDLFm+mpjYODIysiguKUan0/Hs4w9z68031So+IYQQTY/qrbfeequxg7jeXExOJdC/+t37flq4hOMnosnKzsHP1xs7O8kVCiGEEML2Si7NaEm5lOyoDT8/PwAcHBxq/BnnWktNS+fuB5/gwKHD+Hp7069PL7QaDQcOHWb1uk20b9eW4GZXdrVduHQFf27dhotOR+eOHWgd0gqFUsGp0zGs/3MrHdq1oXlwkLl/WVkZDz/9Ems3bMLD3Y2Rw4fg4uzMwSNHWbtxC316dsfP16faOBOTkrn7wSfYF3kQR62W3j2707JFC4xGIydPnSYlLc0iKVPb+zIYKnji+VdZvnotCoWSgf37EODnx/GTp9i0JRxDRQW9e3SziOmzr+fx3kefkZKaTsf27ejcsT3enp4kJCZxKuYM3Tp3pE3rEABOn4kjPGIXnTq0Z0DfKwlAWz2fRUtXkpubR/TpGPz9fOnWpRMaBweOnTjJ2o1/EhQQQJvQEIv7/X3FH3Tp1IHuXTrh7+fHiVOn2blnHy7OznTq2N7c98dfF7Nu4584ODjQqUMYYW3bYKdSMbBfb1oEN6s2NiGEEE3bDZGN0ev1zJ07F71ez/Dhw+nf3za7dG3cHE5C0kXy8/MJ8Pdnyc/f4uzkZJOxhRBCCCFuFLM++JTUtDQmTxzP6y89i0plqpzxx/pNvPHOe7zxznusW7YQrVZjcd4zjz1oMZvph59/47Ovv2PuvPkMGtDX3P7zwiUcPhpFvz69mPPe22gcHABYuHgZsz/9kjlffsv8rz+tNs7/zJpNWno648eO5q1XnketVgOmnWCH3TS53ve1cMky9kYeoG2bUL77/ENcdDoAYmLPcv+jz/Ddj78wZEA/OrZvB8D+A4f54eeFODo68u1nH5rbAf770WcsWbay2nuy5fO57Ks5sy1maa1as4E3/zubWR9+wuCBfc335ebqwurFP1mcu2VbBM+/+iaLlq/mrjtusxr7+ScfqXIGmxBCiBvXDVFza+3ataSlpZGXl2f+5tMWFv7wFTs2rOTuqVO4mJzMth27bTa2EEIIIcSNICU1jR27duPs5MzzTz5iTgABTBw3mp7dupKdk8Pm8O3VjnXPXf9Cq9Vy+kycRa2n31euAeDlZ580J24A7rh9Mm6urhyJOkZBYSGlpWVcSEyy+Em6mAxA3Nl4Dh05ik6n45XnnjQntmx5X4uXrwLgxaceNSeAANq0bsXdd94OwJLlq83tS1aY/jxj2h0Wia3assXz+avQ1q0sXk+aMJY+PXug1+vZHB5x1VhGDB2Eu7s7SRcvYjDUvD6ZEEKIG1uTn7l17tw5Dhw4QO/evdm3b5/Nx1coFAwd2I9ffltCUh2WCgghhBBC3MiOHjsBQJdOHXB2tp4BP3BAXw4cPsLhqONMvGnMVceys7Mj0N+f2LNnycrOwcvTg/SMTFJSU3GwdyB8p/UXkWq1PQCJSaZkyrSZj1ocd3VxZfuGFZw8HQNA184dK42zvveVmZVNYtJFNA4aenbvat2/fx+++n4+R6KOm9tOnjLFNKhfn2rjqYqtnk91+vftxb4DBzkefcqiRlZhURHbduziQuJFCgoLCQrwx16txmAwoNfra/SshRBCiCad3CovL2fp0qX06dPHXG+iIWg0pqnksmuLEEIIIUTt5OTmAuDj7VXpcb9L7dk5eTUaT6MxzTwq0usByMvLB6CktIRPvvi6yvMKi/T4enszYuhgi3YnJ0fTeEVFAHh7edYojtreV05O7lXH9/XxNvW/NG5dYqqMrZ5Pdbw83AHIzy8wt22L2M0rb81Cf+m9+juj0VijsYUQQogmndzaunUrhYWFjB07liNHjjR2OEIIIYQQ4m+cHE0zc7Jzcio9npVtandy0tZp/Mv1rFx0Lvz+y3dV9vNwd0OtVvPRf9+q9LibqysAGRlZNbpube/rcpIoOyf36v0dryST3NxcycnNJSMzq84JLls9n+qkZ5qe2+X4U9PSeeG1/0OpVPDGS88xesRQnJ2dyMnNY/oDj5N08WKdriOEEOLG1GRrbqWlpREeHs5NN92EVlu3D0M1dbnmgi3reQkhhBBC3AjC2oYCcCL6NOXl5VbHD19ahte+TWidxvfz9cHR0ZG8fFPtVV8f70p/qquh1bVzRwD27D9AQlL1iZfa3pevjzfubm4UFBYQdzbeqv/l5YiXxwXo1rkTAIuXrao2nqrY6vlU58Ah0xfN7S/Ff+xENOXlZYwYMojbbpmATueMQqHA3c0VBwf7el1LCCHEjadJJreMRiNLly4lICCAXr16Nfj1Ln9TFhMb1+DXEkIIIYRoSkJataB9u7akZ2Tw65LlFsdORJ9ic/gO7O3tGVPHHfKUSiVjRgwD4P05X1JSWlqncXx9vBk3agRlZaU8/twr7Nq7n/SMDKKOn+S7+Qus+tf2vhQKhbmm2Gdfz7MoiJ+bl8ePCxYBMGn8WHP79Dtuw85Ozco16/jki284fyGRhKSLbNqyjb37DljF5Oho+sL38iwwWz6fq9myLYKde/ah0WgZNWIocGXGWGIlBemFEEKI2mqSyxL37t3L+fPnefLJJ1EoFA1+PXc3V8aPHc3aDZt47e336N65Iz27d6V5cFCDX1sIIYQQ4p/u9Zee5f5Hn2HOF19z9NgJOncI42JqGqvXbMBorOC5Jx7B81LNprp48pH72b0vkl179zH5znsZ0K83vr4+6Iv0nDh1mulTbmNg/+qLsr/24jOkpWdw8MhRHn/uZZvf10P3TWfbjl1s37mbux98gmGD+qMvLmHNhj9JTUtjxNDBDB3U39w/pFUL3n3j3/xn1mzmL1zM/IWLrxpPm9AQFAolm8N38D8XF558+H6cnZ1s9nwu+2TutzQPCkKpVHA8+jTbIkyF6l99/inc3UzLO7t36Yy/nx/HTpzkkadfYkDfXjhqtRQUFZGdXflSTiGEEKIqTS65lZ+fz/r16+nTpw9BQdcuufTw/XdzOiaWtRs2sW7jZl594WlJbgkhhBBC1ED7dm344atPmPXBp2zdHsHW7REAeHt588a/n2X82FH1Gt/D3Z0F877gw8++Zsu2CH5fsdp8TKPRcuvEm65y9hXOzk7M+/Jjdu2N5MDhoxQWFhLo70e3Lp2Y8fCT2Kstl9PV9r6cnZyY/82n/O+jz9myLYIT0afMMd539108/uC9VjGNHTWcHt06s2nLds4nJGJvb0/3Lp3YsWsvK9esw97+SkzBQYE8+fBMvv7hJ5YsX8VzTz5s0+fTpnUIF5NTWbN+k0V7q5YteO7xhy0SZFqthi8+/C+zPvyUvZEH2BtpOdPMw90DpapJLjIRQgjRABTGJrYNSXR0ND/++CNubm4WtQH0ej0FBQU4OTnh6OjI5MmTad26daVjRB6Kolf3zjW+ptFoZOKUu8nKzuGz2e/StXNH7OyaXN5QCCGEEI0kL8+0o15dNsjp2rUrAC4uLrX+jNMYklNSSU5JxcVFR0jLFjafha/XF3M+IYHS0jK8PD3w8faq9+e2yINHePDJ5+jbuydffzK70j61va/cvDzizydgZ6eidUgrHOxrV4fq/see5dCRo/z0zed06dTB4lhxSQnJKam0bB5sdV59n095eTkXU1LNs698vL3w9/O96jnZ2TmkpKVjMBjQOTvj4+1lXrYohBBC1ESTy8DodDrat29v1Z6dnW1Obnl5eVl8i1VfF5NTSEy6yIRxo+nZvavNxhVCCCGEuNH4+/lWmwypD61WQ7s6FqdPSLqIh7ubxY6FKalpzPnyGwAG9+9b5bm1vS9XFxerpNTfVVRUEHs2njatW5nbjEYjy1at4dCRo3i4e9C+XRur8zQODpUmtqB+zwfAzs6O4KBAgoMCa3yOu7sb7u5udb6mEEII0eSSW0FBQdx7771W7Xv27GHFihX06NGDYcOG2fSaefkFgOmbKSGEEEII0TR99tU8tm6PwM/XFw93N/ILCkhMvEi5oZxuXTpz2y0Trmk88ecTmHLPA7joXPD18cbe3p6LKSlkZ2djp7LjjX8/U+9dDoUQQoh/giaX3GoMl3ezUSikLoAQQgghRFM1eEBfysvLSbqYTFp6BvZqNb17dmf4kAHcMmHcNS9LodVquGvKbZyIPk12dg55+fn4enszathg7rh1EiGtWlzTeIQQQojGIsktmzCVLbsWOzMKIYQQQojGMXHcaCaOG93YYZj5+/ny0jOPN3YYQgghRKO7YZJb/fr1o1+/fg0ydmZWNgDOTo7V9BRCCCGEEEIIIYQQtnTDJLcawtFjJ8jMyub7nxcC0L6tdcFOIYQQQgghhBBCCNFwJLlVD48/9woFhQXodDpmTLuT3j27NXZIQgghhBBCCCGEEDcUSW7Vw4rffsTeXo2ri0tjhyKEEEIIIYQQQghxQ5LkVj14e3k2dghCCCGEEEIIIYQQNzRlYwcghBBCCCGEEEIIIURdycwtIYQQQogbTPyFxMYOQQghhBDCZiS5JYQQQghxg2kRHNTYIQghhBBC2IwsSxRCCCGEEEIIIYQQ/1hNcubWqVOnWLp0aaXHQkJCmDp16jWOSAghhBBCCCGEEEI0hCaZ3CotLSUvL4+AgADc3Nwsjnl7ezdSVEIIIYQQQgghhBDC1ppkcuuy/v3707t378YOQwghhBBCCCGEEEI0EKm5JYQQQgghhBBCCCH+sZr0zC2j0UhmZiZGoxF3d3dUKlVjhySEEEIIIYQQQgghbKhJJ7dWrFhBRUUFAGq1ml69ejF+/HjUanUjRyaEEEIIIYQQQgghbKFJJrcUCgXNmzendevWODs7k5OTw6FDh9i9ezepqak89NBDKBSKxg5TCCGEEEIIIYQQQtRTk0xudezYkU6dOlm0jRgxgs8//5y4uDiOHz9udVwIIYQQQgghhBBC/PM0yYLylc3K0mg0DBs2DICYmJhrHZIQQgghhBBCCCGEaABNMrlVFS8vLwAKCgoaORIhhBBCCCGEEEIIYQs3VHIrNzcXACcnp0aORAghhBBCCCGEEELYQpNMbun1equ2iooKduzYAUBoaOi1DkkIIYQQQgghhBBCNIAmWVD+o48+omXLlgQHB6PT6cjLyyMyMpLU1FRatGghxeSFEEIIIa5TBYWFaBwcsLOr/mNqWVkZSqUKlapm39eWGwwYKypQq9X1DVMIIYQQ15Emmdzy8fEhKiqKo0ePmttUKhW9e/dm4sSJKJVNcsKaEEIIIcQ/0raI3Xz42VxSUtIoN5SjUCgJaxvKU488QN/ePcz99Ppi3p/zBSdPneZCQhLFJcUoFEqaBQYwdtRwZkybgpOjo8XY3/24gJ1793Mu/gJ5+XkAeLh7MHhAXx68dxqBAf7X9F6FEEIIYXtNMrn10EMPodfrycnJQa/Xo1ar8fX1xd7evrFDE0IIIYQQf2M0VuDq4kJY2zbodM6ci7/A4aNRPP78y/z87Rd0CGsLQGFRESvXrEOlUtG+XVvc3dzQF+s5fvIU3/74M5vDd/D93Dm4u7max16z8U/OX0ggpFVLOncMw2iE02diWblmHZvDd/Dlx/+jS6cOjXXrQgghhLCBJpncAtBqtWi12sYOQwghhBBCVGPY4IEMGzzQou29jz9n0dIVLFu91pzcuiwoMIBfvvvC/DovP5+XXn+HvZEHeHf2HD7671tW1/jm0w/w8vQATMsTv/jmB+Yv+I0XXnubNUt/wUG+BBVCCCH+sWR9nhBCCCGEuO5MufVmAC4kJFXb10Wn4+3XX0LjoGHLth2kpqVftb+dSsVTj8ykbZtQ0jPS2botwiYxCyGEEKJxNNmZW0IIIYQQ4p8jJTWNHTv3kJyWTkVFBT5engDk5+fX6Hwfby86d2rP/gOHOHrsBKNHDL1qf6VSycghgzgdc4ZDR48xbvSI+t6CEEIIIRqJJLeEEEIIIUSj+vybH/jxl9+oqDBYHTMajTUex9/PF4CcnNza9c/Nq/E1hBBCCHH9keSWEEIIIYRoNH9u3c73Py3Az9eXN19+nh7duqBSqYg7e44pMx6s1Vh5eQUAaLWamvW/NCtMq6lZfyGEEEJcnyS5JYQQQgghGs2Bw1EAPHTvdPr16Wlu9/b2qtU4BkMFJ0+dBqB1SKsanXPsRDQAoSEta3UtIYQQQlxfpKC8EEIIIYRoNJdnWV1Iuljjc0pKSikrK7NoW7B4KalpaQQHBdGuTWurcwoKCi1eRx0/yZ/hO1AqVYwcNrgOkQshhBDienFDzNzS6/WUlpbi7OyMSqVqsOtk7rhA/slMyvNLsNM50OKRbg12rcaQsz+ZjO3nCZoShqa5a2OHc8NbsGipxS8Coa1a8q/JEyvtG38+gYVLV1i03TftDnOtEVsrKChkyfLVDBnYj5BWLSrts3jZSgIDAhjYr3eDxABQVKRn34GDJCYlo1AomH7n7Q12LSGEEHUzduRQFixayi+/LSE7J4ewNqGoVCpS0zOqPCclNZWb75jB8CED8XBz5Xh0DOE7IlAqVbz8/JMoFAqrc6bNfIxRw4cQFBRASkoaf6zbSHl5GQ/ce3eD/XsohBBCiGujSSe3Dh8+zObNm0lPN20HrVQqCQ0NZebMmTa/1qH71pC49gwKpQKVVo3W1/m6T24l/HwMbaAOrxEtatQ/a28iJz/Yg3svf0lu1dCEf01H46Bh6YJ5Vsduvet+yg0GVi/+qU5jJyQlExd3DiNw6MhRBvbvW2Vyq0ivJy7uHABJySmkpKYy6aYxDfZh/psff2HlmvXmbdwrk5aeyWdffc+a33/B3d3N5jFkZ+cwZcbDpGek4+riSrOgAEluCSHEdahdm1Bmv/MGc774hlVr1rOK9eZjCoUSL09Pq3N0Oh1arYZfFy81twUGBPDKc0/Sv0+vSq8T2roVK9esM792dnLm0QdmcO/0O214N0IIIYRoDE02ubVjxw7WrFmDTqdj0KBBODk5kZWVxenTp21+rdzDqSSuPUPw7WF0+Ww0Crt/xmrPwy9sxndQ8xont5xaexAwshX2Xo4NG1gTkpqWgaNWW+mxtPQMyg3Wu0LV1CvPPwlAucFAz0Gjrtq3fbs2fD93DmDaker7nxbU+brVuZicwm+/r+DB+6bj7OxUZb8Z06aw8PflfPX9T7z6wtM2j+PP8B2kZ6Tz6Mx7eXjmPTYfXwghhO0MHzKQYYMHkJqWTkZmFkqlEjdXF3y8vbCzs/646uHuxvJffyAzK5uLySnonJ1p0bzZVa/x4aw30Wo1XEhIQqVU0rJFMGq1uqFuSQghhBDXUJNMbmVmZrJ+/Xp8fHx47LHHcHS8kowx1COZUJXCmCwAfEe3+sckturC96YQfG8KaewwxHVu4e8rMBgMTJ4w7qr9XHQ6Rg0bwqo1G3ji4ftx0elsGsfFi8kADGjAZY9CCCFsR6FQ4Ofrg5+vT43P8fRwx9PDvcb9nRwdCWsbWpfwhBBCCHEda5LJrcjISAwGAzfffLNFYguwWc2tskw9SctMs8Ay9yYBkB5+npK0IgDsnNQETetg7p+xJZ6i83k0m9EJhepKHYj8E+lk70vGZ3RLNEE6i7HduvjgGOLOhflHyY/JQuPjRIv7u6BtVfkSLmNZBSmrz5C5J5GyvBK0ATp8x7bCvW+guU/yqhhKUovMr4sS84j/9oj5tUuYJx6DrnzzWVFYxoVfT1hcx298azSBzlU+m6IzWSQuiabwfC4qRzXeg4Lxn9wGlJb1L9I3naMwPpfmM7uQsTWelHVxlOvL8BncnMCp7cG6XEatFBXp+WP9RmLPxlOkL8bL04PuXTrRt3cPHOztLfrGnY1n975ILiQmUVBQiI+PN8MG9adr544W/SJ27SUpOYVJ48dWus34yjXrUaBg0oSxdY673GBg89btHDgcRWFREcFBgUwaP4YAf786j1lXkQePEB6xi6zsHDw93BkxZCDdu3ausn9paRl/rNtEz+5d8KnBLlfjx45k9boNrFm3ibvuuM2WoVNaXg6ARuNg03GFEEIIIYQQQlxfmmRyKzY2Fo1GQ+vWramoqCArKws7Ozvc3GxX16ckrZDTH+8DwFBs+iU66Y8zJG88C4DW18kiuRX//VEubj5L0F0dUPwlwZax/QLH3tpBv+DJ5uSWPimfqNfDaXZrO9IjEqgoq0CpUlCcWUT8ohMMj5iBg7/lci/9uRz23rGS/PhsHNy1aP2dSdt+gZi5B+j5xVgCpoQBkPDrCbKj0sznFSTkmu8DoNltbS2SW2X5pVfuU19Gub4MXRv3KpNbKStOE/nYBjAacWntSXFGEfELj+M9P4reSyaj0l75K3d+fhQXN5+lJDmfmK8O4hjoQlFyPgnLT5Efk0m7twbV9O2wknQxmRkPP0VGZiYtmgfj5OjIzt37+OnXRcx5722GDR5o7nvw8FFmPv4sAN5e3ri5urB91x5++nURt99yM6+/9Iy578WUFN77+DO0Go1VAiv27Dne+u8HTBw3ps7JrYzMLB5//hVOx5zB3c0NN1dXNm0J56dfF/PJ7Hfo26tHncati/fnfMFvvy/H0dGRZoEBbN+5m18XL+Xe6VN55rEHKz3nSNRxcvNy6dOjZvXmunXuhJ2dmvCdu22e3BJCCNH0qFQqmgc3IyggoMbnXO7bkJsKCSGEEKJxNcnkVnp6Ot7e3pw6dYply5aRn58PgIeHB7fccgvt2rWr9zWcw7wYc+phAC78EMWRl7fQ/fPR+I633nq6rhKWn6Lzu8No8VBXAE7/XwSnvzzA+R+P0ubV/uZ+RoORfdNWkx+fTbcPR9Ls7k7mWU+p6+NQqq4sley9ZLL5z6t95uDTrxl9lt1aZQwOfk7m+zz7WSTH391ZZd/S9CIOPvMn9i4ODFozBcdQD6gwcuKVcOJ+PErcx/to89oAq/NS/oxn9OEHcfB3Qp+Qx45RvxE77zBtXuqH0rFuf0Xn/7qYjMxMPnn/XYYOuvKs9h84bLV8wcVFx7NPPMLkiePMS+P0+mJe/b//sXTlasaPGUG3Lp0AuGn0SD7+/BtWrt1glcBatXYjALfefJNFu8Fg4ES0da03Q4X1EtmX//Mup2PO8OrzTzPltkkAJCYl8/DTL/LKm7NYt2xhpTPGbG3nnv389vtyunXpzOcfzsLZyYmCgkIef/4V5i/4jf69e9K7p3UC6+CRKAA6dgir0XXs7dW0DW1N1LGTlJWV2bT2SXFJCQBqO6mnIoQQTYW7myurFtVuI5YvP/5fA0UjhBBCiOtFkywQVVxcTGFhIQsWLCAsLIzp06czbtw4CgsLmT9/PomJiY0dYo24tfc2J7YAQp421Q7KOZJq0S91fRx5sZk0m9yOZvd0sljO5zsuBO/RLa9JvBdXxGDQlxHyYFdTYgtAqaDd6wNRadXELzhe6Xlhrw8wz0TTNnMhaHIbKkoN5EdXvQV4dVLSTDtk9uzexaK9d89uhLRqYdEWGtKKGXdNsaj5pNVqmHnPVAB27o00t+t0zowcPoTDR6O4kJhkbjcYKli3cTPNg5uZE2GXFRQWMG3mo1Y/er3eot/RYyc4cPgI40aPNCe2AIIC/Xlk5j1k5+SwbefuOjyN2lvxh2k3qacffQBnJ9N74+zsxJMP3w/AstVrKz3v3PkLAAQG+Nf4WoEBfpSUlpjfM1uJOROHUqnCy8vDpuMKIYQQQgghhLi+NLmZW0ajEaPRSFZWFgMGDGDSpCtJAi8vL3755Re2bdvG9OnTGzHKmnHr6mvx2s7NAZXGjrK8Eov2zAhTQiHo9vrPSKuPnCMpAHgNaW7RrtLZ49nVj7Q9CZQkF1otqXT9231q/U1LHv9+n7XRpnUIEbv28MY7s5l+5210bN/Oqs7WX5WXl7N7XyTRp86Qk5eHoaICfZEp+ZSbm2fR97abb2Lthk2sWrvRnOzZvXc/mVlZ3D31X1Zja7VaXjWhAJUAACAASURBVHnuKav2WR98YvF674FDAHRo18YicQbg7uoKQEzsWcaNGl7d7dfbyVMx2NvbW9Uc69GtC3YqO6JPxVR6XnZODgCuLjUvDn+5b3Z2Ds0Ca77MpDLnzl/g4OGjRB46yvGT0UyeOB4nR9ndUwghhBBCCCGasiaX3FIoFKjVasrKyujVq5fFsY4dO6JSqYiPj2+c4GrJ3tV6+ZlCpcRoMFq0XS4Qr23mck3iqkpZVjEAGh/rZIKDr6mtNLPIKrmldrO8z8s7Tv79Pmvjvul3EHf2HOE7IgjfEYFKpaJdmzZMmTzRajlhYlIyjz33MhcSEvBw98Dfzwc7OzvKLxUk//sOm927dqZ5cDP+WLeRxx+8F6VSyap1G1GpVEwcN9oqFnu1PTePH2PVPvuTLyn/y9gZGZkAfPjZXD78bG6l91VQUFC7B1FHObm5eHpYz3hSKBS4u7uTnZtb6XnGS2+Zoha7ASgUikvn1v39vmxf5CHen/MFRmMFbduE8sCMu+o9phBCCCGEEEKI61uTS24BuLq6kpGRYVVAXqFQ4OzsTGFhYSNFZq0+CZzLFPamZFB5QWm9x6pXHJeSUpcL7P+VocjUprS/NsVcnZ2c+OT9d0hJTSPy4GH2HzzCpi3bePO/sykpKbFY9vffDz8lMeki/3vrNcaOGm5OtpyNP8+td91XadJl8s3j+eSLr9kXeYgO7duyfeceBg/oX6vtyP/ucr2p/7z8Am1DQyrt4+Fuu00RrsbOzs5cs+rvikuKq6xj5e5mmmGWk5eHTlf1jpp/lXNpZpy7De7tzttv4bZJ4zlw6ChPvfQ6Tzz/Kit++7He4wohhBBCCCGEuH41yZpb/v6mej+XC8n/VWFhIVqt9lqHZE7qGIrKLNqLk+s/E0fX2pRQyY/OrPW5xor6J9cucww2zRwrOp9ndawowdSmCaj5cjVb8PP1YeJNY3jnjX+z6KdvUCpVrN20xaJP5KEjdAhry7jRI8yJLYD48wlVjjtp3Gjs7NSsXLuBDZu2UlZWyq0Tx9Ur1hbBpl0qVUolHcLaVvrj7+drdZ5KqUSttqestMzqWGUuF6QvK6u6f4CfLzk5uRQVWdYFKygoJD8/H38/n8rvobnpHpKTUys9XpmLySmo1fb4+VQ+Zm2p1Wr69enJoP59OHf+POkZtf/vQgghhBBCCCHEP0eTTG6FhZl2ajt8+LBFe0xMDOXl5QQHB1/zmDQBplkseVFXfuk3Gowkb4ir99j+k9oAEPvFASpKrXfgK8+tfEaX2sWBwgu5YKP8ltcgU2IjcfFJi/aCkxnkRKfj0c0PlfO12bmutJJET1CAP2o7O6tlho5aLYVFRRZtRqORXxcvq3J8d3c3hg7qT/iOnSxavgpvLy/69+1dr5iHDe6PncqOXxYttViueFl5eXmls6kUCgWBAX6ciTtnXkp5Nc0uFXs/WUXdLIBePbphNFawbtNmi/Y1G/4EoE+v7pWe16NrZwCiTkZXGweYEmynz8TRuUMY9va2/bvh4+0FQH7+tVnKKYQQQgghhBCicTTJZYndunUjPDyc8PBwAEJDQ8nMzGT9+vUoFAqGDh16zWPyGdmC2HmHOfriVtq/MRCFWkn890cxlFgnMWrLqa0nrR/oRuy8w+y5+XdCHu+BNlBHcUohFxYcx398a4KmdbA6z3dQMIlrz3Bw5lq8BzVDaa/CubU7bn2uFPXO2BpPWb4pOZZ3aWZY5u4kSnNNSRatvw633qZkiffoVri19ybhjxi0b+rwGx9KcWoBJ9/eCUDbF/rW+15r6okXXsHby4shA/rSLCiQgoJCFixeSklpCSOHDrLoO2hAH9as38R7H3/OxHGjyMnN47elK0m8mHzVa9x283g2h2/n7Ll47r/nLlSq+uWKvb28ePSBGXz+zfdMu/9R7pn6L4ICA8jMyubEqRjWrN/Ex//7PzqEtbU6d/LEm5jzxdc88vRLDOjbC4VKxaC+va12hgQYMrAfnh4efP7N96SmZ+Du7oaLkxO3Thpv7jNtyq0sX72WOV98i9EIYW1DORl9mk+/+g6dszNTb59c6T1069IJnbMzBw4e4YF7qq93dfTYCcrKShk0wPZ/N5RK0/tRYayw+dhCCPFPF3koqrFDEEIIIYSwmSaZ3FKpVMycOZNFixaxdetWtm7dCoBOp2PatGk0b968mhFsz2t4C1pO78S5BcfY/8AaAJrd0paQh7pyYtaueo/fftZQHHydiPk8kv0z15jbdS3c0YV5VnpOx/eHo1AqSN1xgaQ1plk8ze/oYJHcinp5GwXx2Rbnnfpkn/nPgWNb0+PniQAoVAr6LL6Vww+vI+arg8R8dRAwFcbv8ekYvEe1rPd91lRoSCtW/rGetRs2mdscHR156L57uOeuKRZ9X3z6MbKzc1m0dAWLlq4AoFOH9rz/9uvc+4j1LoeX9e3dA18fH1LT0ph009gq+9XGzBnTcHV14at5P/Ha2/8zt9vb29O3V098vCt/L6ffcTvF+mJWrt3Ap199B4CHq2ulyS2NRsPXn87mvY8+Z/GyVRQX6/H387NIbvn7+fLVnPd5493ZzPpgjrm9ZfPmvPuff+PtVXkcDvb2TBg3msXLVpGekVllv8vWbNiMWm3PpJusC+7Xly0L1QshRFPTtk3ltR2FEEIIIf6JFMYm/ptfdnY22dnZaDQa/Pz8zLM5ribyUBS9undukHiKz+eiT8pH29wNTWDNCm7XhtFgpCA6g/K8EjT+zmhbXpsC5H9XnFSA/nwOKkc1ug7eKNTXfgVsucFAYuJFsrKzcXVxITDQH42DQ5X9U9PSuZicgqenB8FBgdWOX1BYyMiJUwhrG8qPX31iy9CpqKgg/nwC2bm5uLm4EBjgh0ZjvXvmtXA2/jzZObl4uruba2pdzYXEJG6deh+PPHjvVWdvFRQUMuaWOxk1fAhvvfqCLUMG4Itvf2Te/F/49rOP6N2zm83HF0KIaykvz1S78siRI7U+t2vXrgC4uLiYP+PkFVw/m+sIIYQQQtRXk5y59Vfu7u64u9d9Bztb0zR3RdPctcHGV6gU6Dp6N9j4NaUJdG6Q5F1t2KlUtGjerEYJGQBfH298fWr+7H5fvpriYj23/2XGk60olUpatbz2Mwwr06pF7eIIDgrk9skTWfDb79x1+2QcHSvfwOGXRUsxVFTw+EP32SJMKx0vLd/8+oefKSoqwsPDnc4d2zfItYQQQgghhBBCNJ4mn9wSwpYMhgp++nUxKenpLF+1lmaBgYweMbSxw7ruPDJzBk5OTiReTKZN61aV9tE6ann3jaqXONbX4AF9mfqvW/lj3SaeefkNXF1c2b5hRYNcSwghhBBCCCFE42nyyxLroiGXJYp/ttLSMgaMmohabUfH9u14/cVnCG4W1NhhiWrk5uVRWlrWYIk0IYRoaLIsUQghhBCiajJzS4hasLdXE7l9Q2OHIWrJ1cWlsUMQQgghhBBCCNFAJLlVhY6v5zZ2CEIIIYQQAOx+SdHYIQghhBBCXLckuVWFjc82vZkeq/YbGjuE686k3qrGDkEIIYSogfzGDkAIIYQQ4rqlbOwAhBBCCCGE+KfQ64sxGCoaOwwhhBBC/IXM3BLiOrUjIpyLF5O4Y8o0FIqmsxxlxaqlJKdcNL9uHtyS8eMmVto3MTGB1Wstdzi8ffId+Pj4Nkhs5+LPcuDAPsaPn4Sj1tHqeH5BPuvXr6FP7340b96iQWIQQghx/Xr6xdc4fDSKFYt+xtPDvbHDEUIIIcQlTTK5NXv2bEpLS6s8HhAQwP33338NI7rxOIcfp8JDR1GX5o0dyj/WlvA/ORC5j9tvn4qdynbLJ/dH7iUvN5eRI8dU2eeBh+7Gwd6BL7+YZ3Xs0cfup9xg4LtvfqrT9VNSkrlw7hxGBRw/HkXPXn2qTG7pi/VcOHfOdF5aCunpaYwcPqZBkltGo5HPPv8QjUbLv26fWmkfnbOO/ZF72Ld/Nx998LnNYxBCiKasoLCQzeE7UCgUTBo/ttbnFxXp2bR1G3Z2dkwYO6rW5xcXF6NUqrC3V9f63MsyMrPqfK4QQgghGk6TTG4FBgZSVlZm1Z6bm0tSUhKdOnVqhKhuLG7zwyntECzJrXoIa9ceO6UKpY1nbS1ftphTMaeumtzKyMhAo9FWeiwzM5PyirrXb3v04ScBKDcYmHTL6Kv2DW3dhvfemwPAT7/8wJIlv9b5utXZvmMrMTGnef/S9aoy7a4ZvP7GS0Ts3M6ggUMaLB4hhGhqHOzt+ezLbyk3lNOnZ3f8fH1qdX5MbCwffzaX0NYhtU5uvfP+x/y5JZyvPvmADu3b1epcIYQQQlz/mmRya9q0aZW2L1myhKSkJHr16nWNIxKi9u6cMr2xQ7ihrFj5OwEBQXTs0Pmq/bp26Y6vrx8rVi6R5JYQ4oZQWlqKvb19vcdRq9W0bBHMmbizxMadtUpuFRcX89Z/P0Sr1fDmKy9YnR979jwAoSGtan3tnFzZBVsIIYRoyppkcqsyJSUlHD16lICAAAICAho7nEanPZ6AOimL/KEdsMstwnn7SZQZeVR4OFMwKIyyAMs6EtroJDSHzqLMLaLCxZGi3q0paeNv0cdp3xlUOUXm18rMfFw2HjW/LgvyRN8hyPza8eh57NLzyBvWEVRXZiepL2SgjUmmqGsLyr10dYrbZetxDE4OFPYIQbfjBPZnUjDaqdD3b4s+LLBez27t2lV4enoRFtaRtetXkZSUiLe3D6NH3USAf+V/tzZv3YRKqWTY0JGcPHmciJ3bKCgqoEVwS0aNGoeLzrQ7Z1JSIocOH7A4d8L4SZXW3Dp7No4TJ4/Rp3c/9Ho9f27ZQHZWJsHNWzJxwi0WNaOio08QG3cGgMzMDCoqDPyxZqX5uJOTE8OH1X6Jx1+VGwzs2rWdY8ej0OuLCPAPZOSIMfj6+tVr3LrEERERzvHjRykuKSHAP5Bhw0ZV+d4AxJw5TWzsGaZPv7fa8RUKBUOHjmTx4gWcPRtHq1YhNoxeCCGuP0ePHCYhIYHxEybi4OBQr7Fat27FmbizxMSeY2D/vhbHdu8/wO69+wC449ZJtGsbanE8Ls60TL1NqPX/d8vKyigtK8PJ0bpeYl2UGwyUlpTi6Fj5LOa/XletrvsyRyGEEELYxg2T3Dp8+DBlZWX07NmzsUO5LjjuOoV29ykq3J1wmbcZZWk5Rgc1iuJS1GeSSXv9NlNHQwVe87ag2X0Ko70dBi9XVBlncfrzCAWT+5BzS2/zmE4R0djFp5tfq9Jycf7jSqJG36+NRXLLacsxHI6eo2Bweyr+UlNKeyIBl0U7KfO62Sq5VdO4nZfswuDrjtPW46jPpmDQOWKXmYd2xwmyn5lIUbcWdX52X3/7JS1atqQwP5/ikmI83D3ZsWMbq1ev4J3/e48OHayXvf7663zUajW5ebl8993cS9+AK9ha+ifFxcVMu2sGYCpovmjxAgAKCwspKytl3LiJldbcijp+hO++m0tKajJr167G3d2dgvwCtm3fSmTkXma/9wlKpWlD1KPHDvPHH6ZkVkF+PgaDwXwdAF9fv3olt7Kysnjz7Vc4GxeLq6srLjpXIiK2sWz5Et54/W26de1R57Fro1hfzOtvvkR09Anc3dxxc3Nnx45t/L50ES+/9Dp9+w6o9Lx9+3cD0KVTtxpdp2uXbixevIB9kburTW6t2/AHixYtwMPDg08+/qp2NySEENeJw4cOce7sWf415Q6Cm9e95ECb1q1Zv3EzMbFxVsd27Nxj/nN4xG6r5FZMbKxpjL/M3Hrxtf/jZPQp8gsKANDpXBgxdCCPPnAfWq3G6hqzPvgEjcOVWWhPPPIg3bte+Xd7+649LFy8jFOnz2A0VqBx0NC5Uwfee+cNi3+L35r1AXFnz1FQWIBWq6Vnt248NHM6zZs1q+0jEUIIIYQN3DDJrX379qFSqejevXtjh3Jdcfk1goKJvcgf3QWjgx12Gflojl8wH3dbGYlm9yn0A8LImjEUo4MdCn0Z3nM34LxiH/qOwZS0Ns3MSXvhZvN5QTM+pywsiLSXJjVK3ADq+FSKe4eSNPchUKtwPHoej49X47z2YL2SWwBn42IZOnQEzz7zb+xUKs7GxfLiy8/w8Sfv8+3XP6NSKa3Oyc3NY9nSRfznjXfp1bMPCoWCM7Ex5ObmmPsMHDCYgQMGA/Dm269yIHJftbH8uWkD/5v1IWFhHSgpLeWt/3uFqKgjHDseRZfOXQHTEsfLyxxffvlZTsWc4tdfll513AqDgZgzp63aDZXU2/rgg3c5GxfLY488xfjxpvc8OTmZ1//zIh98OIsfvluIppJfMmxt4eKfiY4+waRJt/HA/Y+gVCq5kHCef7/8LB/Pmc28eb+YZ8n91YljUahUKkJat6nRdUJD2qJQKDl27ChT77j7qn31ej2ZmRl1uh8hhLie5OTkMO+7bxkwcCAjR41GVYfNTtpfSlidjjlj0V5aWsbe/QcICgoiMzOTHTt38+gDMyyOn4u/gJ2dmtC/zNwqLy+jfVg7PDzcMBgq2LPvACv/WEdmZjaz3nq1VrH9suh3vvvhZ5RKFV07dcDD04PMjCwKCgutvmRKTEqiXbtQ1Go1sbFnidi9myPHjjP/m8/w9vKs7WMRQgghRD3dEMmtpKQkcyF5RxtNV28qStoFkjfxyqyaci8dBUM7AKAoKcdp0xHKPV3IvG8YqE0f7IxaNZkzhuL//Hyctp80J7eul7gvMyqVZN0z1Bx3UZfm6IK8UMen1fv6CoWSe+95wPxht1VIa4YOHc6GDWs5dvwoXbtYzwAqKMjjqaeep0/vfua2NqFt6x3L6DHjCAsz3buDvT03T5xMVNQRYmNPm5NbdVFYVMCzzz1W6TGHvxSbj44+QdTxowwdOsKc2ALw9/dn6tR7mDPnffZG7mbo4OF1jqUmjEYjf/65ASdHZ2ZMv988ay24WXMmjJ/Ewt9+Zueu7dw01npnxoSkBNzc3HGoYU0ZraMWV1dXEhMTqu2rsXdAp3NF56yrtq8QQlzvjEYjOyMiOBMTwx1Tp+LtXbui8KGtW2Fvb09mVhYZmZl4eZoSQZEHD1NUVMSUW28h/sIFtu3YyZnYs4S2Ns3Sijt7jnJDOWHt2lr8v3rO++9ajJ+SmsaMh54gYvcei/Eve+3FZyotKH/6TBzzflyAk6MTn3wwi7Z/SaBVVFRY9Z839xM8PUylEEpLy3jz3ffZtXcfS5av4vGHZEduIYQQ4lqznl7SBO3fvx9AliRWomhQWJXHHM6loigupayVL+qMfNTJOeYfZZkBo9YBdULjzEi5WtyXGbxdqNBZzhYyuDuhKCuHcusPqrXh7+dv9YG+U8cuAMTGWs92AlNCbPjQ+tW1qkzrv8028vT0BqDw0hKNutJotDz79EtWP/b2lvVWjkQdMseRdDHJ4sfVxRWA+Piz9YqlJtLSUsnLy6VdWBgOGsv3vWsX04zNuNgYq/OMRiP5+XmVzui6Gp2zjry8vGr7jR8/iUULl/PlF/NqNb4QQlzPUlNT+fLzz9kZEYHRaKzxeXZ2drRp3RqAE6eu/D95+07T8vAhg/oxdJBpCXl4xG7z8ct9O4Rd/UshP18f+vQyffmVcDG5xnGtXL0Oo7GCKbdPskhsAeYvS6pib69m+p23AxATE1vjawohhBDCdpr8zK2ysjIOHz6MTqejbdv6z5Jpasq9q/6F3i6nEABt5Bm0kWcq7aPQlzZIXNW5WtyXGR2ti94qLn1AVVYYqU96y83d3arN1dUNgLy8yndk8vT0bJCis85Ozhav7ZSm2WQGY/0SeGq1PSNHjrFq//a7uZT/ZWliVlYmAPPmfcW8eZXXlCosrF+irSby8k2JJjc36/fGzd0DgNwqklFGI2Bds/+qFApFrX6hE0KIpsZgMLBxw3qio09y+7+m4F7Jv42V6dQhjOMnT3Ly5CmGDOhHcUkJEbv20qJ5MCEtWxDo74dGo2XL1m08eO80FAoFJ6JPAdCxg+WXWwZDBfsjDxIbH09OTi5ubq4UFJo+vxTm1/zfnmMnowHo06Nu5SuaBZk2LcnIyq7T+UIIIYSonyaf3Dp69CjFxcX07du32m/ebkQVDlUnWyrsTEkS/dCOFAxuX2kfo0MD/BWqqD5hcLW4r4XS0hKrtrIyU6LPTlX5M6nvDlPXK7Wd6b148snnadWy8uLqbpcSfw1Jdem5l5RYvzeX2+zsrN8bhUKBzqVms7D+Ki8/D1dX1zpEKoQQTUtly/aupme3Lvz2+zKOnTAlrHbt3kdhUSF3jTBtCqPRaBjYrzebw7dzJOo43bp04uRJU98eXTqbx0m6mMxzr7xJcnLlM7QqqPkXELm5pn8DvL29anUvl12eMazXF9fpfCGEEELUT5NPbsmSxLor9zd9A6soLackxLf2A1STpDJeSp5RUgb2Vwq1qi7NGLuepaenYTQaUSiuTPdJTzPV8vLyqV39kWtNoVJirOUvIlcTGGjaGUqlUNaqhphKqUSttqe8rKxG/TWXfnGoqr/PpWWiaWkpVscut/lUURsmKLAZp09FU1JaWqO6W8X6YvLy8ujYvmONYhdCiKZIoVAweMhQho8YUasvEDt1ao9abc+pmDMUFxezces2FAolo4YNMfcZM3IYm8O3s37TFvz9fElOTSW0dQiurldmbr/yn3dJTk7m9sk3c8dtt+Dj7YVeX8wHn37JlvDtlrFWMz3XUashNy+X3Lx8KQgvhBBC/AM16alMaWlpxMfHExwcjM91nnC4HpUGelDu74HD/jOo0yqf1aIsqnxZYoWTA8qMPK72panBw7ScTvPXAu8GI9pDDV+fqb5yc3M5cuSQRduOndsA6NLJupj89cTZyZlyQznp6fUvrA/Qt29/7FR2rFy1lHKD9U6K5eXlFFcym0qhUODr60d8/DnKy8urvY6/nz8AZ+Ks62YBODs7ExISSkzMaRISLXfO3Bq+CYCuXXpUdiodOnSm3FDO2bjKl9/+3Zm401RUGOjYqUu1fQ8fOcgTTz3IE089iMFgu6SiEEI0Jp1Ox8wHH2TkqFG1nhmvcXCgY/t2lJeXsXXbTvZHHqJH9y74+V75rNarRze8vbzYFrGbXXsjAejR7cr/c3Nz84i/cAEvT0+eevRBfH28USgUODpq0emcra5pf6ksQHFJ5Z9bWrZsAcCxEydrdS9CCCGEuD406eTWvn37AOjVq1cjR/LPlTtjKFQY8f6/JbisP4I2OgntkfO4rD2E738Wo9t6rNLzSsOaYZeei+eXG3DZcgzn7SfRnLZcNlDcORgAl5+347w/FseDZ/H+aDXGMusEyfXG3t6BOZ/OJmLnNqKjTzD3m884fjyKAQMGERgYVKcxS0vLiNi53fyTk50FwJ49Eea2i8kX6x17166mBM9/33uL1X+sYPPmjezaHVHn8Tw9vLhr2j3Enz/Hs88+ytbwP4mOPsHuPTv56ZcfmPngdC5ciK/03DGjx5GTk80bb7zE70t/Y9mKJZw/X3nfPr364e7mzs8//8AP879l2YolbNi41qLP1DunA/DurDfZs3cn0dEn+O77r9i1K4J27drTtWvltVR69+oLQNTxIzW656goU79evfpU27egoIBz585y7txZjLVYIiOEENersLD2PPHU0zRv3qLOY/TrY/psNve7+VRUGJgwbrTFcaVSydjRIyku1vPDzwsB6N/nyix8Bwd7FAolefn55NegtpaPj2m54ZGo45UeHzVsMAALfvudpFoUohdCCCHE9aHJLks0GAwcPHgQOzs7unSpfnaFqJw+LJCsl27BZcEOXBZZJkDKWvpSGuJX6Xk59wzBTaHA4WSCuRi9fmB7itv6Xxm7c3P0Qzui3XYcty/XA1Dcpw1FozqjW7qnge7INsLC2tOyRSvenz0L46XC7T179eHpp16s85gFBfm89/7bVu3vvf+O+c+PPPwkARNuqfM1AMaOmUB6Rhrbtm3hu3lfUVFhwN8/gAH9B9V5zDv+NQ2dzoWFv/7ERx+/Z263t7ena9ceeHpWvsRj0s23U1xczJ+bNzD/J9Nugq4610p/YXLQaHjnndl88/XnrFm7mpJiPT4+vowdM97cp1/fgTz55PP8+OO3vDvrTXN7zx69ee6Zf1c5uyCsXXtatmzFtvAt3PGvadXe77bwzYSEhNIm1Ho7+b/LyjYV3G/VMgQ7laqa3kIIcf1Sq9WMu+kmevWuPrFfncED+jL32+/Jy8/F1cWVQf2sxxw/ZgS/LFxEfn4eri6udOrQwXxMo9EwZGB/tkXs5LFn/s3I4YNxc3OltLSMU6etZ+GOHTWC5avW8Oui38nKysLT05MLiYl06tCe2yaNZ/jQQWzcuo29+yKZ+dgzjBg2BD9fbwryCzh9JpZZb72Gk6Njve9bCCGEEA1DYZTtvqxEHooioHmnxg7D5lbtr9+MKLv0fOwy8zA62FPmpaNCp7FJXOq0PFRZ+ZR7u1Luab2UoCFN6l37ZMPESaPp1Kkz/333QzKzMkhOvoi3lw++vpUn+m4kFRUVJCYmkJufi4uzC36+fuYiu9dSWVkZ8efPUVJSjL9/AJ4e1RcI3rJlIx9/MpsPZ39GWFiHKvtFHTvCK68+z/PPvczwYaOqHfftd19n3749vPmfd+ndq1+t7kMIIS7TqfMBOHKkZjNM/6pr164AuLi4EHkoil7dO5NXUPP6lpH797F3zx6m3jUNL2/vWl+/Kvc/8hSxZ88x5bZbeOLhmZX2eeal1zh0JIpxo0fyygtPWxwrLCri48+/JnxbBOUGy+Xtjo6OvPPmq/T6y1LGX35bwvwFi80bwCgUSqZOuY1HZt4DmP7t+P7n31j5x1qKiorM52m1Wr7/cg5BQYFMu/9REhITWbHoZzw9ruwOWVJayqgJt+Hl6cXy336s34MRQgghRK1JcqsSkty6cdQ3uSWajoqKCp565mHcPTx45633q+z3yivPHUYctAAAIABJREFUUVRcxCcff2WxoUBVY069azIBgUHM+ehLW4cshLiBNGZyKzMjA0+vuu0ieC0UFelJTUunqKgIraMWLw93XFxcKu2r1xdzITEJtdoOf19ftFrrL2DKy8s5n5BIYWEhLi46ggIDZeatEEIIcZ1rsssShRCiNpRKJU89+QJ79+2mSF+Eo9Z6+Ul+QT7t2ndkQP9B1Sa2ADKzMunStRs3T7y1IUIWQohr4npObAE4Ompp2SK4Rn21Wg1tQ0Ou2sfOzo6Qli3qH5gQQgghrhlJbglRS2p7e9R26sYOQzSANqFtaRPatsrjOmcdM+6+v8bjeXt58+rLb9kgMiGEEEIIIYQQVZHklhC1tPz3NY0dghBCCCGEEEIIIS6R5NYNpC71pYQQQgghhBBCCCGuZ5LcqsKYOXmNHYIQQgghBAC7X6q+zp8QQgghxI1KkltVOP6ua2OHIIQQQggBQF6efOkmhBBCCFGVJp/cqqiooKCgAGdnZ5RKpU3H/mnhEpRKJc0CA+jbqzsajfV20kIIIYQQQgghhBCi4TTZ5FZiYiJr1qwhPj6eiooKlEolrVq1YsKECQQEBNjkGhs3h5OQdJH8/HwC/P1Z8vO3ODs52WRsIYQQQgghhBBCCFE9205luk6kpqYyd+5cEhISGD58ONOmTWPYsGHEx8fz5Zdfkp6ebpPrLPzhK3ZsWMndU6dwMTmZbTt222RcIYQQQgghhBBCCFEzTTK5tXfvXsrLyxk3bhyjR4+mS5cujBkzhrFjx1JWVsa+fftsdi2FQsHQgf0ASEpJsdm4QgghhBBCCCGEEKJ6TTK5dbnoavPmzS3ag4ODAcjNzbXp9S7X2iotLbPpuEIIIYQQQgghhBDi6ppkzS1fX1+OHTtGVlYWzZo1M7dnZ2cD4Ofn11ihCSGEEEI0utMxcY0dghBCCCGEzTTJ5NaAAQM4dOgQ69evR6vV4uPjQ2pqKhs2bMDLy4v+/fvb9HpqtRqAkpISm44rhBBCCNEQ2rYJaewQhBBCCCFspkkmt5ycnHjqqadYuHAh8+bNM7eHhYVx5513otVqbXo9by9PAGJi5VtQIYQQQgghhBBCiGupSdbcKiws5IcffiAuLo4+ffowYcIEevfuzenTp/nxxx8pKiqy6fXc3VwZP3Y0+w8c4rW332PZyjWcv5Bo02sIIYQQQgghhBBCCGtNcubWmjVruHDhAjNmzKBDhw7m9tDQUH799VfWr1/PbbfdZtNrPnz/3ZyOiWXthk2s2/gnr7zwDM2Dg2x6DSGEEEIIIYQQQghhqUkmt06e/H/27js8yipv4/h3Sia9V0IIgYRepIcuiAiiggJWVOxtrWtb17K6dn1t69oFBXsXRAGRjvQOgSQklPTQ0ntm5v0jZGCYCQSItL0/1+W1V57nPOeceXB1vHPO72zB09PTKdgC6Nq1K9988w1bt25t0vHsdjt3PfAo+wsK+fi/r9Ota2fM5rPy1YqIiIiIiIiInFbOum2JdrudiooKTCaTyz2DwYDZbKasrKxJx8zJzSMrO4fzzh1Irx7dFGyJiIiIiIiIiJwkZ124ZTAYCA0Npby8nKws57pXGRkZVFZWEh4e3qRjFpeUAhARHtak/YqIiIiIiIiIyJGddeEWwKBBgwCYMmUKK1euZMeOHaxYsYKpU6cCMGTIkCYdz2azAWAwnJWvU0RERERERETktHVW7p/r378/tbW1zJ07l++//95x3dfXl7Fjx9KjR48mHtEO1K0aExERERERERGRk+esDLcABg8ezIABA8jPz6eiogJfX18iIiIwGpt+ddW+/QUA+Pn6NHnfIiIiInLq2O12yisq8PXR9zwREZHT1Vm9j85kMhEdHU18fDxRUVFNHmxt2JTEvIVL+GDyZwB0bNe2SfsXERERkVNn+co1jLz0St796NNTPRUAsnPySE7ZdqqnISIicto5a1dunQx/+/tjlJaV4u/vz8QJV9GnV/dTPSURERGR09qKVWvIzM6luLiEisoKLBZPggP8iYqKpNs5nfHz9T3VU3QoKyujoqLiVE8DgPLyCm66814qKip467UX6d6l83H3VVlZidFowmLxaMIZioiInDoKt07AT199gsXiQWBAwKmeioiIiMgZ4Z9Pv0BNTbXbe97e3lx3zRVce+X4kzyr05/RaMDDbKHSUIWn+fhDqWdffp05c+fz3puv0qlj+yacoYiIyKmjcOsEhIeFnuopiIiIiJyRPvzvG/j7+VFTU03+7j3MX/Qnv82ew4eTphASGMSokeef6imeVry8vPh80n8pK6+keXTUcfdTWFTUhLMSERE5PSjcEhEREZGTrlVcLJ4WCwBxLWNJ7N2T5tFRfPTJZ/z2+9wGwy273U5tbS0eHu5XL9UXgPfx9j7qSdY2m83Rtqlrs1ZVVzs+X2PYbDYqKiuPWLg+KCiIoKCG+7Db7VTX1BzTuEdSXV1DbW0tPj7eTdKfiIjIX0XhloiIiIi4NX/eXOz2xrfv0bMnQUdKX46ic8cOQF2tq0P9NP1XFi5ZSmZWDgUFhdRaawkLDeOV554iIb4VALv37GXSlC9YuGQp5eXleFo86de3N3fdeiNRkRFO/U2e+hXTf51JQWERdrsNi8VCzx7duPeOW2ge3eyo85w+83d+njaDNgnxPPLAPZhMRtJ37GTKF9+Qlr6D3Lw8rFYrZpOZNm3iGTNqJBeOGOY2bEvZls6kqV+wes16amtr8Pfz49yBA7hp4jWEhYY4tX386RfIzcvjjZefIzCwrizGvIVL+OW32ezKyGTvvn0AmE1m2rVrw8RrrqRvn55uP8Pzr76Jl+fBEOzuO26lR7cuWK02vvlxGtOm/0re7j3Y7Tb8/fwYMmgADz9w91HfjYiIyKmgcEtERERE3KqoqGDZ0qWNahsX14rzhg07ofH+mLcQgA6HnUD9/c8zyMzKIi42lvZt22A0GtmVmUlEeF2JiNy8fO6872H2FxTQuWNHWrVsQdLWFBYsWsKWrSlMfv8tAvz9Hf1VVVfTMrYFPbqfg7enJ+s2bmbZ8pWkp+9g6kfvHHGl0pKly3n9rXdpFhXJ7TdPxGSqW/G1c2cGCxYtwc/Xj66dOuLt40NBYSEpqWm8lPwWK9as5el/PuwUcK1avY5//Os5amqq6dihPVGREaRuS2fGrNmsWL2Gd9542SmY25mRSWZWFrVWq+PamvUbWbNuPZEREfTp1RNPiydZOdkkbdnKo0/+m5eeeYJ+fXs3+s/g3Y8m892P04gID2fMxSMxm83syszCarM1ug8REZGT7awPt8rLy6mpqcHPzw+TyfTXD2iH1DdW4Ns6iOaXtjuuLqryy9j1xWZC+jYnrH9ME09QREREpHEuGDGS5K1bKSgoOGI7Dw8Pxl9xxTH1vWDhn5jNJmprrewrKODPZSvZlJRETPPm3DTxarfPvPHKc4SGBLtcf/XNd9hfUMD1E67ilokTALBabTzzwqssWLyEb36Yzq03THC0v/OWiU7PV1ZVce9Dj5OcksKfK1YxfOhgt+OvWreBfz3/KiHBwbz+0r8JCXZdpTZ0yCAevu8ux887d2Xw8OPPMH/hYrp27sS4MRc5xnzulTeoqanmnw/dz8gLhjnm/dpb7zJj1mxef/s9XnnuX0d6jQ533DyRYYfM+/Ovv+fDyVOY9NmXbsOtxx++321B+Vm/z8VoNPHxu28QFBjouG4/liV8IiIiJ1nTFhc4jaSkpPDaa6/x9NNP8/zzz/PUU0/x448/UlVV9ZeOa7faSH5pKZnfbj3uPipyS0l+aSl7FuxqwpmJiIiIHBuz2cylY8cdtd2Q884j8JAgpDGef/V1nnnxVZ5/9XXe//gTNiUlYTaZGTvm4mPa2pidk8fqteuICA/nhmuvclw3mYxcP+FKAFasXH3EPrw8PbnwgvMAyMrOdttmw6bNPP7Uc/j6+vDmy8/SLCqyUfOLaxnLPXfdAsAPP//iuL5o8VIKCgvo1qWLI9iqn/ddt92Iv58fy1euJjcvv1HjHO6q8Zfi7e1NWvoObMew6srDwwObzUpJcanT9aPVLxMRETmVzsqVWzt27GDy5Ml4enpywQUXEBAQwJYtW1i+fDlFRUXceOONp3qKIiIiImeE1q1b06VrVzZt3Oj2fmRkJAMHDjrmfl985knMZhN2O5SWlrIjI4vf/5jHf979gD+XreC1F59pVJH3LSmpAPj6+vDtj9Od7tXWVAOQnZPr8lxyyjbWb0pi3/79eHp6UlJSF+aUlpa5tN2Wls4f8xbgYbHwxsvPEht7bCvrB/ZNxGz2ICs7m4LCQoKDgtiYlAxAopuaWH5+vnTq1IHlK1aRtCW50UHaocxmM80iI9m+cycFhUVuV7y5c/555/LtDz9zx/2PcOW40YwaMdyl9peIiMjp5qwMt+bMmYPdbmfixInEx8cD0KdPH6ZMmUJSUhLbt2+ndevWp3iWIiIiImeGiy++hLRt26ioqHC5d9m48cd10mCvnt1cTvW7/NKLuP3eh1mzbj0LlizlvMEDj9pPSUkJADt27uL9jya7bVNWfjCwqqyq4olnXmTl6jVu27rbfpeWvoPa2hpCQ47v1ECj0Uh4eBi5ubkUFRUTHBREcXExABFhoW6fCQ8LA6CgqPi4xgTw9PIEOPDn1rhw646bJ+Ln58s33/3Mx59+zqeffc3QIYO469YbGx2QiYiInGxnXbhlt9vZuXMn/v7+jmCrXmJiIklJSWzevLnJwq29izPImZGGtayG4D7NiL2y05HbL80ib1Y6VbvL8QzzIXpMW0J6N3wqT0nKfnZ9sYnqvRX4tw8l7vqueAR5OrXZM28nZRnFtLyuCwbTwSXjxVv2sn9lDlHDW+HV3N/pmb2LM8iZvg1rRS0hidHEXt2JjK+T8GnuT/jQOKe2NUVV7Px0AyXJ+/CM8KXltV2oLa+haFM+zS5MwBLq/EWvprCKrG+3ULh5D9jsBHWNoMWEzph9XY/sri2pJvObLQR0CCWkbww501PZuzgT7HZC+jYnZmx7DB5n7e5ZERGRM4KPry/DL7iA6dOmOV3v3SeR5s2bN9k4QUFBDOyfyHc/TiMtfWejwi1vTy8A+ib25qF773Lb5tAtde9+OJmVq9fQo1tX7rnzVuJiY7FarcyY9Ttv/vd9t89fOLxu2+XnX3/LvQ8+xluvvuA4pbGxSkrrVoZ5edXNt75ofUPhVWFBEQC+3scXqDXEwJG3F5rNZm6YcBVXXDaG2X/M4+vvfmLO3PlsTtrKpPfexM/Xt0nnIyIi0hTOunCrurqa2tpa/P39Xe7V12/IyclpkrFSX1tO8svLMPt64BMXRPa0FHbP2em2rb3Wxvr755D57RZM3mZ8WgZSvquI7R+upf1j/Wn7QKLLM4Xr80l/dw2eUb4YTUayvt/Kzk83MGjGVXhF+zna7fhkI3mz04m9qhOGQ4rm712UweanFuLz1WVO4da2N1ey9YU/MZiN+MYFkvVTMnsWZZIzLYWI81s5hVtVeWUsuuhrKjKL8YzwAaOBnZ9sIGxQLPlzthPYOcIp3Nq/MocV102jpqAS7xZ1R1RnfruF9A/XMnDaFS4hW01BJZv+OZ+W13Uh/cP15M1Mw+xnwVpRw64vNuMT40/ogBZOz3z38y98OPlzwsNC+HLye0f9cxIREZET17tPIqtXrybnQE0qPz8/Rowc2eTjFBQUAuBpcf2lmDut4mIB2LFjF6EhIY7TCxuyYVMSAA/dexcxMXXBnMlkJCjoCDXDjEZuu+k6fH19+GDSpzz8+NO899arTicZHklWVjalJSX4+foREV63Iqttm3h+mz2HzUlbuWLsaKf2tbW1JKemOto1JYtH3XutrKo+YjsfH28uG30Ro0YO576HH2fL1mQWLV7GqJHnN+l8REREmsJZtyTGYrFgNBopLy93uVd64DdmRzvxpzGKNu8h+ZVlBHaNYPj6Wxky/1rOX3MLxSl73bZPfWMlmd9uocVVnRiZfCdDF13PiC13EDm8NckvLqVgbZ7LM3sW7KLjEwMZvvpmhq24ke7/GUFFVgmbnlhw3PMuTtrL1hf/xK9tCMPX38p5S29g+LpbKdrkvljpxsfmU5FZTJfnhjBi8+2M2Hgb7R/rT/6c7S5tq/dVsOK6aRiAAdMvZ/iamxm+5mb6fTuWipxS1j80t8F55f2+nYrMIobMv45R2//GRbvuofenl+AZ7vrbwbLyCvbs3cOevfuP+z2IiIjIsRs7brxjFdSoiy7G09PzKE8cmxmz5rBg0Z8AJPbq0ahn2rVNICYmhvzdu5n61TdHbV+/cio71/W719FMuHIcV46/jH379/PEv1+kurrGpU1ZmXPNrtraWt6fNBWAIYMGOLZwnjd4AJ4WTxYuWcrW5FSnZ7776Rf27N1Lm4T4Y14hdjQREXXh2vqNmxvV3tNioVOHuhPA3X2/FhEROR2cdSu3DAYDzZs3JzMzk/z8fCIjDxbg3LRpE1C3uutEZXyVBHZo9/dEPALrvth5RfiQcHcvNh4W4lgrakl/bw3esQGc83/DMFrqVleZfT3o+vJ5zJmznYwvNhPcI8rpOa/m/rS+rbvj5xZXdSTt3dXkzUyjprDKZXtiY+z6cjPYocM/+uMV4eOYd9sHEll3z2ynttX7KsidmYZ/+1BaHTKP+Dt6smPSesoznJfR7/psEzUFlZzz+vmE9j1YaDV8SEtaXN6BjK+SqMorwzPKNbCq2lPOwJ8uxzehrpaD0WKi2agEt5/Bx9OTwIBAAgNcV+eJiIjIXycyMpIBAweRl5dLl65dT6ivN95+Hx8fb6qraykuKSZpSzJ79tb9kvCaKy+nfbs2jerHYDDw8H138dA/n+aTqV+yfOUaunTqQFBgIAWFhWzYlMSbLz+Hn1/d948R5w9la3IKz770BheNHEazZlHYbTY2bN7SqPHuuPkG0tK3s2bdBt75cDIP3H270/15CxaRk5tPn17dMRmNLF2xipTUbQQFBXHTxKsd7YKCgrjr9pt44+33uO/hxxkx/DyiIiNITtnGwiV/4mnx5OH73G+zPBEjhw/jx2kz+OLr79i/fz+hoaFkZGXRpVNHxo25iJvuuJdOHTvQMrYFJqOBjKxspv86G6PRRI8e5zT5fERERJrCWRduAQwaNIgvv/ySqVOnMmrUKAICAkhKSmL16tX4+Pg0yRhFG+pWOoX2d94yFzGopUvbwg151JZWEzGsFRVZJS73PQI8Kd6yx+V6WP8YMDrXRQgb0IKS5H0UbdlTd/9Y572+bt5hA2Od++3n2lfRpt1gsxM2yLktBgjtF0N5hvOXwN2LMgDwbxtK2fZCp3te0XVBVPGWPYS7CbdCejVzBFtHc8W4MVwxbkyj2oqIiEjTOm/YMMdq+OPRPDqKjMxsfps9x+l6UFAQg/r359KLR9K7V/cGnnav+zldePv/XuC/H05mc9IWtianOO6FBAdTVFzsCLfGjr6I4pISvv1xOl9996NTP2azB4EBAUccy2Qy8thD93Pj7ffw0/QZDDl3AN27dHbcj4mJIS8/n6lffO24dk6XLjxy/98IC3UuHn/ZJaPw9/XlvY8/ZdqM3xzX27Vtw4P33EH7dm2P6T00Rvu2Cdx643V8+vk3/DKz7hebBoORqMhIiouLKSsrd5oLQGyLFtx8wwRax7l+zxURETkdnJXhVrdu3SgoKGDOnDlMmTIFqNuueOWVVzJjxgxMh9SlOl7V+yswmI0uq6csEa7hWVVe3fL0nGkp5ExLcbkPdUXbD+cZ7tpX/bWa/a6nFTVGdUED8w51LVZaXVhZN2aY6z137avy6r7oLrm44S0BNcWunxPAp+UR6lyIiIjIacPDw4Pg4OM/NW/qR+9gtdooKS2hsrIKs9mEj7ePo8C6O180osZmxw7tePeNlykoLCQvbzcGo5Gw0GBCQ0KcCsoD3DDhKiZcMY783XsoKirGYrEQHBxESHCQ08mPw4YOZtjQwS5jRYSH8euPX7mdR/dzuvDgPXeQv3sP+/cXEBERTngDJyICnH/euQwbOpiduzIpLikmIjycZlGRbtu6ew8P33dXgyu8PvjP/7m9ft3VVzD+0tFkZGXj4WGmWWQk3t512zW/+exj8vJ3s2/ffgwGA6GhIUSEh7m8QxERkdPJWRluAQwdOpR+/fqRnZ2N3W4nJiYGk8nEF198Qdu2J/5bMKOHCXutDXuNzek0P2tlrWvbA9sQ4yZ2JXZCZ5f7ACYv1z8Ka4VrX/XX6vs8ErvN9Shro6Vu3rZKK0avg31Yy11rRpgOjFFb6nrPWuZ6zWgxYTAZGPTb1TR0EI9vXJDb62bvxhWNFRERkTOfyWQkKDAQ/oLfbQUHBREc5P77xqE8PDyIaR5NTPPoJp+D0WikWVRkgyHV4QwGg6Mw/sni7e1FuwaK1UdFRjS6WL6IiMjp4KwNt6CuYGh8/MF/aW/atAm73U6rVidemNM7JoDirXupyC7BJ+7gN7OKDNfjnP0SQoC6YCqoW+O+5ACUZ7r2VZFV7Bi/Xn3QVVtRg+WQwKoi13XLgG/rYIq37KU0vYCATmGO66U7Ct22BShNcy3A7669X0IIxVv2YgnxxqflkZf0i4iIiIiIiIg0hbPutMSGVFVVMXv2bEwmE927H1sdB3fCz6377Vr2YdsMM7/f6tLWr20I/m1DyJ6W4jb8Aqgtdi1yv3dRBtX7Dm4/rC2rIW/2dizhPvi3O7i83auZHwDFGw+eeGi32smbmebSZ9TI1gDsnLrR6XrGl64n5vi3C8UnLpD8P7ZTeUhQVpFRzN4lmS7to0fXFX5N++8qt5+xxs1nPB7LV63hiutv5Yrrb8VqtTVJnyIiIiInwtfHhxYxMYSewJZNEREROT5n5cqt6upqPvzwQ7p27UpgYCDFxcUsXbqUffv2ceGFF55QnYh6sVd1IvWtlaS+tgKzvydB3SLZtySTTDchEUCXV4axbPwPLBzxJW0fSCSwSzjW8lpKUvaR/VMyzS9tR/zfejk/ZICV10+n3cN9MZqNpLy5ktrSajo/0g+D6eC+v8hhLdn+4Vo2PDKPjk8MxOBhZMenG7FWW13mETO2Pds/WMvOTzZgr7ERkhhNwepc9i7Ncp20ATo9NYhVN81gyZhvib+1O5iMpL+/Bp/YAMp3Fjk1j764DeFD49g5ZSNV+yqIGd8ezzAfyjOK2Lcsm9xZ6YxMut11nGNUUlJKalo6AHZct16KiIiInGx9E3vRN7HX0RuKiIhIkzsrwy2j0UhRUREzZsxwXPPx8WHMmDEMGDCgScYwB1jo981YVt88g03/mFd3zc9Ct7cuYPUtv7q0D+sfQ7/vx7H5n/PZ/MQCp3vBPaMI6hHl8kzcxHMoSd3HsisOnORjNBB/V09a397DqV340DjiJnZl55SNrLq57jPHjGtP/K3d2fLsEqe2BrORfl+PZcMj88j4ajO7Pt9E0DkR9J50CQuHfY7R5LyYr9nFbejxzki2PL+ETY8vwOTjQfwdPbDV2Eh7exUG8yHtjQYSp4wm6dnF7Jq6kdwZ2xy3LMFeRF/SNCf+7N67D4B2bRIwN8HhACIiIiIiIiJy5jLY7fazdunL3r17KSkpwdPTk6ioKKfTb45k1dqN9O7RtXGD2KF4y15qy6oJ6BSO2ffohdErMksozy7C7OuJd4w/lmCvI7YvSyugcl85/gkhbk8pdPSbUUx5TjG+sUF4Rfsdfeo1Nmy1NkzeZioyS5jT82NaXtuFc14/32372rIazD4eYIB19/5O5tdJjNh4G55Rvi5tbZVWilP2Ya2swSvcF5+WgU6rzU7EfY88wcIlS/nPq88zeEC/JulTRETkdFZcXFfWYP369cf8bLdu3QAICAhwfMcpLi1r0vmJiIiInEpn5cqtemFhYYSFhR294Ykw4FSYvTG8W/jj3cK/0e19E4LxTTj6Vkrv2AC8Y49eyN1utWMwGTB4GDEdOOkxb3bdNr/Qfs3dtgUcwZ2tysruBTvxiQt0G2wBGL1MBJ3T9Kfs2Gw21q7fSKcOHRRsiYiIiIiIiMjZHW6Je2vvnAlGA2GDWuAZ6k3hht2k/XcVfm1DiB7tvHWweOte1tz2KzHjO+DfPpTakmp2fbaJqrwyerwz8qTPfc/effTp1YMJV4w96WOLiIiIiIiIyOlH4db/oMCuEWyftJ7sH5MBMHmbaXZRG7o8ey5GT+caVp4h3niG+ZL6+gpsBwrU+yUE0+PdkcSM73DS5x4ZEc5rLzx90scVERERERERkdOTwq3/QQl39yLh7l7Yqq3UltXgEeDZYD0sr2g/Bky/HOxQU1yF0WzE1Ii6YiIiIiIiIiIiJ4PCrf9hRosJi6WRpw0awCPQ86+dkIiIiJwUKanpp3oKIiIiIk1G4ZaIiIjI/5hGnwotIiIicgYwnuoJiIiIiIiIiIiIHK+zfuVWbW0tZWVl+Pr6Yjaf9R+3SdlsNl56479O14adO5DEXj3ctl/05zKWLF/l+Nni4cFD9975l81vW/p2Fi9dwZXjxuDr4+NyP3VbOkuWr2zwvoiIiIiIiIic+c6YtKewsJCtW7eSkZFBRkYGVVVV9OvXj2HDhrltX1VVxfTp01m7di1WqxWz2UzPnj0ZPXo0Hh5nT0H05NRt3PPQEwwakMhTj/7d6d72Hbu4/b5H6Nu7B88++egx9223Q3r6DgCKS0rZlp5OdLOoBsOtvfsLHO2TU9Ow2mx/Wbhlt9t5+oX/w8fHm5uuu9ptm4iIcD6e8gUlpWXcd+ctf8k8REREREREROTUOmPCrQ0bNvDrr78C4OvrS1lZGRUVFQ22/+KLL0hOTqZbt260adOGlJQUVqxYQVlZGddff/3JmvZfrrq6hj1791BUVOxyr6am7l5BUdFx9W0yGZn07hsALF+1hjvue/iI7cdeMoqxl4wCYOLt95Ky7a8rVjtrzjyStiYz+d03G2wTFBjA1ZeP5bOvvuXQi2O5AAAgAElEQVTKsaOJioz4y+YjIiIiIiIiIqfGGVNzKz4+nptuuolnnnmG8ePHH7Httm3bSE5OplOnTlxzzTX07t2ba6+9lnbt2rF582Z27tx5ciYtf5mpX31HbIsW9Oh25IK440aPorq6mq9/mHaSZiYiIiIiIiIiJ9MZs3IrJiam0W03bNgAQL9+/Zyu9+vXj5SUFDZs2EBcXFyTzCsvfzfTf/udrJwcDAYDzSIj6denJ107d8RgMDja1VqtbNiUxKq168nNy8dqtRIbE8OFF5xHi+bRTn3+8PMMvLw8uWjkcJfxiktK+HX2XOJaxNAvsddxz7u4pIRfZs4hJTUNm91Gh3ZtueziC/Hx8T7uPo9HrdXK73/MZ/W6DVRUVhEb05yLLxzu8k4OlbQ1ha0pqdx5641H7T+6WRTdunZh2q+zuPu2G1V3TUREREREROQsc1b+l35GRgYAsbGxTtfrf87MzGyScRYsXspDjz8Ddjvx8a2w22zMnjOf9yd9yuLZ0/H393O0/fjTL3h/0qeYTWaaRUViMpuY9fs8Ppw8lWcef9gpyFq2ag1/zF/IOV06E9O8mdOYv86ey8uv/4d/P37sNbTqbdiUxH2PPEFhURHRUVEAzJj5O19++yOT3nn9pG3fq6io5I77H2HDps2EhoQQEhzM7D/mMfmzr3j12ScZMniA2+cWLFkKQGLP7o0aJ7FXD9Zv3MTGzVuOutLryWdfZvmqtQwbMpB//P2eY/tAIiIiIiIiInLSnZXhVkFBAV5eXnh5eWGz2cjLy6NZs2b4+flhMpkoKChoknHeevcjvL08+XbqRzSLigTq6lzN/GM+HhbnovXxrVry0jNPcP7QwY7VQ3n5u7nl7r/z4mtvM3TwQMeqqbGjR/HH/IVM+20WfztsddL0X2fh6+PLBcPOdbpeXFJC0tYUp2sZmVkucy4oLOK+R57AbofJ777pCHuWr1zD3Q8+xnOvvMF/X3vxBN5K470/eSobNm1mwpXjefCeOzAajWzfuYub7ryfJ559mV9/+JzAgACX59au24jJZKJD+7aNGqdLpw4ArF638ajhVkFRUV0Ns+KSY/9AIiIiIiIiInLSnZXhVnV1NQEHQpHp06ezdOlSBg0axCWXXILFYqGysrJJxsnbvZvYFjGOYAvAw8OD0Rde4NJ2+HnnulyLioxg3JiLeevdD9mYtIW+vXsC0Ld3T5pFRfHLb79z580TMRrrSqOlb9/J1pRUxo65GC8vL6e+Vq1Zx4Sbj34y4Q/TZlBYVMST/3jIKejp26cno0aez/RfZ7Fn717Cw8Ia9xKOk91uZ9qMmfj5+nHP7Tc5PmPruJZcOe5SPpg8hd/nLeTySy9xeXbHrkxCQ0LwtFgaNVbz6LrVaTszjr5iz9/Xl8CAQHx9fI7h04iIiIiIiIjIqXLWhVt2ux273e74uaamBgCr1QqAwWBwun8i2ibEs2HTZv7z/sdcOPw84lvFOUIad4pLSli0ZDnbd+2irKwCO3Z27aoLXA497dBoNHLpJRfy3kefsHLNOkfoNe232UBdkfTDdWzfjqvGXep0LSc/n/c//tTp2orVawFIaNWSjKxsp3tREXXbEbel7/jLw63cvHwKi4ron9jHJajr27sHH0yewtbkVJfn7HY7RcVFtD6GmmmBAf4AFBQWHrXti8883uh+RUREREREROTUO+vCLYPBgMViobq6GoDLLruMxMRER0H66upqPD09m2Sspx79O4889SyTp37J5Klf4uXlTa/uXbll4gS6de3s1HbJ0hX841/PU1pWSnSzZoSGBGM0GikoLAIOhm/1Lrv4Qj6YNIVpM2bRt3dPrFYbv83+g4TWrenUob3LXJpFRTL6ohFO11JS01zCrb179wMw8faG60mVlpY1+h0cr8IDYV5oSLDLvdDQEAAKCotd7kFdwHVIrf6jMmBwPCciIiIiIiIiZ5ezLtwCCAoKYvfu3dTU1ODh4eEoJF9RUUFtbS2RkZFH6aFx4lvH8cPnk0hJTWP1+o0sXb6KJctWsGzlar765APaJrQGoLKqiseeeQFPTwuT3vmQdm0THH188+N0Xvy/N12Cl4jwMPr37cO8hUsoLS1j3YZN7N23jxuvu/qE5uzhYcZkMjH1w7cB9wlRi5iGTypsKvV1xyqrqlzuVVbWXfPwcP3b02AwEBgY6AjHGqOwuK5tcFDQ8UxVREREROSMVF1djclkxmRqeHfJqWa12rBaa7E0suSIiIg7p+8/5U5A8+bNAcjOdt52l5WV5XS/qbRrm8CEK8byzusv8tSjD2K1Wpk9d4HjfkpqGiUlJYy+aKRTsAWwc1dGg/2OH30RVdVVzPxjHtNn/o6Hh4WLR55/QnNtGdsCq9VKUGAgnTq0c/tXgL+/y3PeB7YO1hxYEXc03t5e1NbUNLhaqtmBExlzcvNc7tVfa9bAqY1xsS3Yv7+AqkbOpb6/li1iGtVeRERERORMZrPZePTxf/G3+x/Cbred6uk0aPKUz7n1rnvZvmPnKZtDdXUNW7YmU1Nbe8rmICIn7qwMtzp3rtsSuHr1aqfr9T/X3z9R9fW8DtUqrm6V2KHbDH1964qTl5U5b/crKi5mxszfG+x/4IC+hIWG8vX3P7Ng8VKGDh7g9vTAY3HBgcL2n3z+jdv7DW1JjGlet5prS/K2Ro0TEx1NrbWWbek73N739/ejfdu2JG1NZsdhAd8vB95Jfa2xw/Xo1pVaay3JKY2by6akZAB6dT/ySYkAk6Z+xRXX38pTz73SqL5FRERERNwpLy9n3oJFbNi4qcE21dU1zFuwiKXLVjTp2LsyMsnP3018q1aOHROnG7vdzuq16wGIb93qlM3jg48n88prb/HjT9NPqJ+ysnKVQRE5hU7Pf9K5sW/fPhYvXgzA/v11daPS0tL4+eefAejSpQvx8fFAXXgVExPDypUr8fPzo02bNqSkpLBu3Tri4uJo167dCc+n1mrlgjFXMvqikfQ4pwtREeHk5OXx9vuTARh27kBH27iWscQ0j+bnGTNJaBVHl84dyczK5r8ffoKPjw8lpaVuxzCbTIy+aASTp34J1NXhOlHDhgyiX2Jvvv95OoVFRYy6YBihIcFk5+Syev1GFi5eytwZ37s8FxoSzKAB/Zi/aDFPPvsy8fF1/wIaP+Yi/Hx9XdqPHT2K73+ezt8fe4pLRo3A09OTNq3jGNC3j6PN7TddywP/eIoH/vEU9915CyHBwcyZv4i5CxbRtXMnEnv3cPsZzh3Ql0lTPmfV2vWc06XTUT/zqjXrCPAPoGvno7fN37OH1LR0vL29j9pWRERERKQhSVuSmfr5VxhNRl589mkiI8Jd2qSlpzP186/o3Kkj/fslNtnYqdvSAGjbJuEoLU+dnNxcysvKaJMQj4eHxymbR/0v94/3QK2Kikr+8cS/MBqNvPHqi005NRE5BmdMuFVcXMzSpUudruXk5JCTkwNAaGioI9wyGAzccMMNfPnll8ybN4958+YBkJCQwDXXXIPhWKqRN8BoMNAytgVffP09U7742nE9OiqKV559ii6dOjiumU0mXn3uXzz29PO88NpbjjmOGjGcnt278u8X/6/BcS69+EImT/2SyIiIBsOeY5q30cibLz/LW+9+xA8/z+CP+Qsd9wIDAjn/vMENPvvck4/y0uv/ZfHS5fwys+7kxguGDnYbbnVs35bXXniGdz/+lA8nT8VqtXLJhSOcwq2hgwfy5D8e4s13PuCBfzzluD6gbyLPPflogydPdu3ckbYJ8fw2ey63TJxwxM+bm5fPmvUbuPaqy7FYjv4vzT179gHQuaNr0X4RERERkcaqD5hsVhs/T5vB7bfe6KZNOgDtmjiESkk9EG61PX3DrZSUujkeXrblZLv/nrsoKCwkulnUcT2fmpZGUVEx/RL7HL2xiPxlzphwq1WrVrzySuO3igUEBHDHHXewb98+iouLCQoKIjjY9WS+42U0Gvn0/beoqKgkKyeHkpJSwsPDiI6KcluwsUO7Nvzw+WQys7IpLCqiRUxzx0mBYy8Z1eA4eXm7ARh90Qi3YU/Xzh1Zv3Se22fbtU1we8/TYuGR+//GfXfdSvr2nVRVVREaGkLzZs2OWGwyMCCAF5/+Z4P3DzdsyCCGDRl0xDbjRo9i9IXD2Za+g8rKSlrERDfqtybXXTWeJ597mQ2bko64euvnGbMwm8xcNe7So/Zps9lYvW49Xp5e3HSChftFRERE5H9bSmpdCY2gwECWr1zFZWMuJuKw1VuOFVZHCHgqq6rwtFiO6Rf027alYTAYSIhvjd1ub/SJ8Xa7HZvNhslkOq777trb7Xa3/x1T/37atW3TqL7qVVZWYrFYGvxF+OHjV1VV4XWgfrA73t5eeHs3HGzV1tZiMpkafP+pqY0L6Ww2G1VV1Xh7NzwXETl+Z0y4dbxCQ0MJDQ39y/r39vaiTXzrRrU1mYzEtWwBtGh0/59+8Q0Gg+GIAdjx8rRY6Ni+bZP3e6w8PDyOeR4XjRzOZ19/z/uTp/LeGy+7bVNSUsqX3/7AleMvJaZ5s6P2mXyg8P/ECVc5gkcRERERkWNVUVFJZlY2Pr6+TLz+Gt56+z1mzfmD6ycc/AWqzWYjbfsOTGYzrVvFOT2/c1cGv/w6k01JW6muqsLDYmFAv0SuufLouxFycvMoKS3F39+f997/mKTkFGpraoiMjGDitdfQsYNziZYVq1azbPlKdu7MoKi4GLvdTkR4GC88+y/MZjM2m415CxaxcNESsnJyAWge3YyrLh9L504dXcZPTU1j4eIlJG1NoaioCICw0FBGXzKKQQP6OdqlHAjg2iTEO66tXLWGX36dSXh4GHfcejMWiwclpaX8OnM2m5O2kpe/m9qaGowmI106dmTC1Ve4BIYAq9esY+bsOezYlYHNaiUwIICLRo3ggvPPc2q3cvUafpkxkyHnDmLY0LraxMXFJcycPYdtaelk5+RQUVGJwWikXZsErr36CmJinA8nqw/pfpv1O3MP7IqJjIzg7jtvc7yPH6f9QmpaOjarFQ+zmcjICG6/9SZaxDTtQWci/8vO+nDrTJSdk8vMP+aTtCWZpStWcvGFF9AsKvJUT+u0YjQa+ddjDzF/8VLKysvx9fFxaZOVk8uV4y/j+qvHN6rPwqIizh96Ljdee1VTT1dERERE/odsS0vHbrfTvm0C3c/pSvPoaBYtWcZlYy7B388PqCv6Xl1V5VJz6s9lK5j06WfYbTa6dulMQIA/mzZvYcHCxZhMJq675sojjp16IGwpKSlhf0EB/RJ7s2/fPrZsTeHVN/7Di88+RVTkwf+2+PrbHygsLKJD+7a0b9+W8vJyfHx8MJvNVFVV8cZ/3iU5JZWgwED69+1DaUkpGzZt5q133ufVF/5NUFAQADW1tXwy5XOWLluBwWAgvnUr2rVNIG37Dvbs3UtVVZVjzN179lJYWEhcy1jHqqply1fy4eQpBAcGcvdd4xwh3vr1G5k1+w/CQkNJ7NUDi8XClq3JbNi0mbz8fJ7/91NORfOnfv4V8xYswtvbi8TePR2F67/8+jtCgoPp1bO7o+2GDZvIzMomLDTEcW39ho3MnD2H4OAgOrRvj9lsYufOXSSnpPLWf9/nhef+hceB8Wpqati+cxceZrPTyrjoZs0cfx+89NobmEwm+vTqQWBAAHv27iM3N5co/fedSJNSuHUayszK4YNJU/H18WbMxRfy6P13n+opnZY6dWhHpw4NHw7QoV0bOrRr/DLn/om96Z/YuymmJiIiIiL/w+pX89QXdB8x/DwmT/mchYv+5OJRI4CDWxIP3c6Wvn0Hkz6diqenFw/df7fjFMGiomIeeuwJ5s1fyFVXjHOEK27HPtDvhKuvYPiwoY7rX33zPbPnzGX+gsVcfWXdL3/37N1LQUEhsS1ieOTB+136+mjyFJJTUunTqyc33XgdXgcCnI8mT+HPpcvZvmMnPbp3w26389bb77E5aQudO3bghonXOgKjZ194hX1799H+kO2Hh29JnDX7D77+7gciI8J5+MH7ncKm1EM+T/dudaef19TW8tIrr5O+fQdr1q4nsU8vRz/zFiwiNrYFD91/DwEB/gCs27CRt95+j9lz5jqFWymprqvH6ud23TVX0aP7OQBYrVb+/fzL7MrIZNu2dMfqt/TtO7FZrXTv0Y177rrd5f3NnjMXm9XGPXfdTvdzDp7cbrfbm6QOtIgcdPSNynLS9e3Tk1ULZ7Fg5k8888+H8fHRyX0iIiIiImeKg8FVXXjTN7E3Pt7eLFq8BLvdDsC2A8Xk27Y5GPp8+fV32Kw2brjuakewBRAYGEBcbCx2u509e/Yecez6cKt/X+fTF3v26AZAXl7+wXmmOs/zUFu2JrN6zTpaxrbgtltucARbAGVldScM+vnWrUL7/Y95jmDrgfvudoRT1dU17NiVga+vD82bR7u8n9at4pj06Wd8/d0PtEmI58l/PuoUbMHBsOnQAMrDbKZvn7pfSmcdOGCspLSUH6fPwGQ2c+/f7nAEWwBdDmyfzMvf7bi2v6CAvfv2EdM8Gp9DdoEkuzlp0mQy0b5dXRmVgsJCl7k1dCplcXEJULct81AKtkSansItERERERGRJlK/Vc3i6Ulsi7pauxaLhQED+rJ7z162bE0B6rasGQwGEhLq6vdm5+SQvn0HYaGh9OnVs8H+TUcopL5/fwH79+0npnk0vr6uZTsATOaDxeCPFM7U148ac8lFjm1/+wsK+Oqb71m/YROtW8WRkNAaq9XGb7N+x2gycuPEa50OqEpL347NaqVd2zZOgU79uN/88BOLlyxlyLmDePSh+/Hzcz6FvbCoiN179tI8upnLPYOxrj+joW68FStXU11VRWLvni4BWf3Yh767lBTXgvYFBYXs27vP7XjFJXVBVYC/n+Na6rYjF8WvDyjffud91m3Y6LaNiDQNbUsUERERERFpIunbd2KtraVD2zZOQc+QwQOZ88d8Fi35k7CwUIqKi4ltEYOPd90ujc1JWwHo16+Py8oeu91OTm4uRpOR0MOCm0OlHAhb3J2+mHOgGPyh9bYc4dZh7e12O1u2JgMwd/4Cfp05m4KCQvYXFABwTtcu3DTxWoxGI2np2ykqKqZL504uc3N3ImJhURG7d+/Bx9eXkqJiDEYjib17OtXNcpmfm/Ct/vPUF5RP2lL3/gb27+vaNjcPqCv0fqTPnpya6jLfejt27AJwBJZWq41t6TsOhJgxLu0BLhtzMUXFxSxdtoK33n6PNgnx3H7rTS7hm4icOK3cEhERERERaSKpDQRMzaOjiW0Rw5p1G9i4aXNdm0NCm9wDAUzLFq4nq29O2kpZWTkJrVu7DYEcYx9hm+GyFasAHCccFhUXk797D1GRkQQGBDi1LSwsoqKiEi9PT2pqawkMDKBbty5cP+FqXnr+aR649y4CA+ueycqu2xbYMtY14Knffli/pQ8Ohkq9enTj7/ffjdlo5K233yMvP9/1+QY+T21tLWvWrsdgMNDhQN/1AVasm/e3/MBnP7Sf+u2b7Q7ZFtrQeCUlJeTl5xMRHub43JlZWVRXVZHQuhXGBlbTWSwWbrv5Bp5+8jES4luzLS2dN99+121bETkxCrdERERERESayJECpv59E6mtqeGXX2cCzgFYVVU1AB4eruHVnLnzABjgZlWS09iOwMY5WFu5ag0pqdtoHh1Nh/Z1YVBDq7agbmslQMuWsfzzkQe59293cP2Eqzlv6GCnlV918647BdFs9nDpZ+euXXhYLE4rmw59Px3at2Pi9ROorKri3Q8mUVtb6/R8fQB1+Bx/+XUWRcXFdO/WlZCQ4APzcP/+qqurWbT4TwwGA/369gHq6nPl5uYRGRHuCKuc3slh7y9lm+ufaWZmFgDNo5u5fO7DxbWM5R8PP0BwcBBZWdmUlpYd9RkROTYKt0RERERERJqAzWYjLX07JrOZ1q3iXO73TeyFwWBwFBo/dNVQWFhd0fEdOzOcnpk7fyEbNyXRrFkUA/v3a3DssrIysnNyCQ8LIygoyHF92fKVfDDpU4wmI7fceJ1jy+ORQrjQ0FBMZjO7dmVQWFTk9nMebFu3xW5bWppTm81btlJRUUlYaIjbelv14w7s35dePbuTkZHJrN//cLQrLy8nOzuHsNBQQoLrAiy73c5vs35n2i+/4u3txTVXXeFoH+7m/dlsNiZ9+hklpaUMHtifZlGRTnNoe8hnLy0tIyc3j/CwMIKDD76/Q9/VoaFXSWkpgFMx+kPVHxxQz2AwYLPaMBiNbgNMETkx+n+ViIiIiIhIE9iVkUllVRVtEuLx8HBdyRQUFESbNvGkpqYRcdiqoT69ezLjt1n88tssqqurCQ0NYevWFFavXYefny/3/u0Opxpeh0s9cPqi0Whg5uw5lJaWsSlpCxkZmXh5evK3O++kVas4R3tHyOSmnpXJZGRA3z4sWrKUp555nsED+xMQEEBxcQkpqds4d/BAR22rTh064O3jQ9KWZN77cBLt2rRhV0YGi5YsBaC25uBqrLKycrKycwgOCXaqO3XtNVeyfuNmps2YycAB/QgKDCR1Wzp2ux2z2cyvM2dTVFTMho2byN+9h4AAfx645y6nPvom9mZbWjrvfzSZ4cOGYDabWbZ8JTt3ZRDXKo4JVx8MwtzVAmtoO2ndPdcgsD6MnDd/IQaDAYPBQPr27Ywfeynl5RVM/nQqvXr2ICoygsqqKpavWEVRcTF9E3vjecjJkyLSNBRuiYiIiIiINIGDIYhrQFKvd88epKamuYRKLWKac8uN1zP1y2/4bdbvQN1qnx7dz2HCVVccsZA8QEVFBWYPD/J37+Gb734EwN/Pj/OGDGb0JaMICgx0tC2vqCArO4eQ4GBHSHO4a6+5Ck8vT/6Yu4AZv812XA8KCiLA39/xs7e3F3fddhPvfzSZFStXs2LlaiyenowfO4YNmzazfccuysvL8fHxIfXA6q72h60WCwoM5LxzB/H7H/OYOWsOV1853hFA5eXn890PPwMQGhbKxaNGMGrkBS4rps4bMpj8/N3MmTvf0d7L05MRw4cxfuwYp7DR3UqslAZWslVWVrIrI5PAwABH8XqAnt2706lje5K2JPPz9BkAWDw9sdls5OTmUlRS6vhzBPCwWBh+/lAuH3up2/ctIifGYD98vaSwau1GevfoeqqnISIiIgJAcXExAOvXrz/mZ7t16wZAQECAvuOInAFqamrIzc3DarUSERGOr69vo5+trq4hf/duamtq8A8IIDQk2OXkxWNVVla3Xc9usxMUHER4WKjbPqurq8nIzMJgMNAipjkWi4XKqio8LZbjmsOzL7xC+vYdPPz3+wgOrgvU/PyO/i7Ky8vJzcvH02IhIiICi8V1BV1TysnNo7CwkICAACIjI/A4UPDfZrORm5dPaWkpfn6+hIeF/+VzEflfppVbIiIiIiIipwkPDw9iY11P/GsMi8WDFjHNm3Q+vr6+tEmIb8TYFhLiWztd8zrO7XfV1TXs2LWLgAB/OnVsf0zP+vj4EN+61XGNezyim0UR3SzK5brRaGxUsXkRaRoqKC8iIiIiIiKnjbT07disNpdTC0VEGqJwS0RERERERE4b+bt3ExUZyTldu5zqqYjIGULbEkVEREREROS0MfTcQQw9d9CpnoaInEG0cktERERERERERM5YCrdEREREREREROSMpXBLRERERERERETOWAq3RERERERERETkjKVwS0REREREREREzlgKt0RERERERERE5IylcEtERERERERERM5YCrdEREREREREROSMpXBLRERERERERETOWAq3RERERERERETkjGU+1RMQERERkZNr1dqNp3oKIiIiIk1G4ZaIiIjI/5h2beNP9RREREREmoy2JYqIiIiIiIiIyBlL4ZaIiIiIiIiIiJyxFG6JiIiIiIiIiMgZS+GWiIiIiIiIiIicsRRuiYiIiIiIiIjIGUvhloiIiIiIiIiInLEUbomIiIiIiIiIyBlL4ZaIiIiIiIiIiJyxFG6JiIiIiIiIiMgZy3yqJyAiIiIi/1vWbdrMwkV/kp2Th9VqJSgokLYJ8Zw7sB/NoiJP9fRERETkDKNwS0REREROCrvdzqtvvcuM32a53Ptj3gK+/WEaP3w5GYPBcApmJyIiImcqhVsiIiIiclLMX7iEGb/NwtvbmwfvuZO+fXri7e3N7j37WLN+A9baWgVbIiIicswUbomIiIjISbFo6XIAJlw5jgvOH+q43jw6iubRUUd81m63U1Zejq+PzxEDsMrKSsxmM2Zz477mVlVX42mxNKotQK3VSnVVNT4+3o1+RkRERP5aCrdERERE5KQoLy8HwOzR+DApbftOJn36OavWrqO6uhqTyURCfGsef/h+4lrGAlBTU8PX3//EjN9+Jzc/H4C2CQlcffllDBs62Km/9B07mfLFN6Sl7yA3r67ml9lkpk2beMaMGsmFI4a5Dc+StiQzaeqXrNuwsa5OWGAgI4afxy03XHtM4ZiIiIg0PYVbIiIiIuLW/Hlzsdsb375Hz54EBQU1eL9VXBzLV67m+x+nMaBvL1q2aHHE/tas28g/nvw3VdVVJLRuRcuWsZSWlpGcso2QkGAArFYbjz75LKvXrsPfP4BzBw6gsqqKtes38syLr7IjI5NbJk5w9LlzZwYLFi3Bz9ePrp064u3jQ0FhISmpabyU/BYr1qzl6X8+7BRwLVm6gqeefQmb3c6Avon4+nqzeu16vvn+J3ZlZvHKs081/iWJiIhIk1O4JSIiIiJulZeXs3zZska1jWnRgvOGDTtim2uvHMeChYvJzc/nxtvuZeTwYVw2ehRtElq7tK2squLZl/6PquoqHv77PVwy8gLHPZvNhtFoBOC7n6azeu062iTE88bLzxLg7w/Urfi698HHmPrF1wxI7E2H9m2d+h86ZBAP33eX4+eduzJ4+PFnmL9wMV07d2LcmIsAKCsv5wMRcCIAACAASURBVKXX3sZqs/HaC8/Qq2c3AIqKirn9vodYvmIVq9ZtoHf3cxr1nkRERKTpGU/1BERERETk9HT+8Avw8/M7ajuj0ci4ceOP2s7f34/3/vN/DD13EFabjRmzZnPzXfdxz4P/ZMOmzU5tFy1eyv6CArp37eIUbNWPV+/nGb8BcPftNzuCLYCE1nFcPnb0gTYzjzq3uJax3HPXLQD88PMvjuvzF/1JcUkRw4YMcgRbAIGBAYwbcwkAK1auPmr/IiIi8tdRuCUiIiIibnl6ejJ6zKVHbTf43CGEhYc3qs+Q4CCeefwRvpn6EddPuIqw0DA2bNrEPQ8+xsdTvnC025iUDEDv3j0a7Gt/QSE5Obl4eXrR/ZwuLvf79ekFwKakrY2a28C+iZjNHmRlZ1NQWAjAluRUACorq/jyu5+c/krbvh2A7OzcRvUvIiIifw1tSxQRERGRBnXo2JEOHTqydesWt/dDw8I4d8iQY+43KjKCWyZO4Pqrr+DTL77h86++YeoXX3NO18707n4OxcXFAESGhTXYR1FRXZvQ0BC398PD654tPNDX0RiNRsLDw8jNzaWoqJjgoCBKS0oBWLJsOUuWLXf7XHlFRaP6FxERkb+Gwi0REREROaLRl15Kenoa1dXVLvfGjRuP2Xz8XyktFg9uu/FasrKzWbBoCYv/XEbv7ufg7e0FQGFxSYPP+vh4AwdDrsMVFBYB4Ovt3ej5lJTWhVleXl4H/tcTgFtuuJaRw93XFLNYPBrdv4iIiDQ9bUsUERERkSPy8/Nj+AUjXK737NmLFrGxTTJG3IF+6ldKtYprCcCmJPcrxgAiwsMICgyktKyUHTszXO7XP9s2Ib5Rc8jKyqa0pAQ/Xz8iDqz6ijswj527MokID3P7V1BgYCM/pYiIiPwVFG6JiIiIyFEl9u1LdHS042dvbx9GXHjhMfWRlZ1DTU2Ny/Xq6hqWrVwFQIuY5gAMHTwAk8nEwsVLWb5yjdv+DAYDIy+oW0314eSp2Gw2x73i4mK++vZHAC68wHXFVVlZmdPPtbW1vD9pKgBDBg1wFK0/78A85i5YzJp1G4/p84qIiMjJoW2JIiIiInJUBoOBseMv5523/4PdbufiSy7B+xi2+wE8/+qbZGbm0LtXN2JbNMfT4sn+ggIWL11Bbm4ugQGBXDKqboVYZEQ4t954Pe9//AmPPPE0QwYNJCE+jsqqGrKysrn4ohH06dGN66+5giVLV/Dn8hXccd/DDOzXh8rKan6fO5/de/Zw7sABDOyf6DKXeQsWkZObT59e3TEZjSxdsYqU1G0EBQVx08T/Z+++o6Oq9jaOf9N7IwklgZDQe0sCCCgdBLGgKIrYEVDEawUVC3LtFVGv7VURQRCQGhClQyCBAKl0Qk2HEJKQXub9IzAyppCQQIg+n7Vcy9lnn31+Z2Q5wzN773OfsV/DBvV59KH7+e6HOTw7dRq9e/bAz88XO1trkpJSSDuXzjtvTqvOWysiIiLVpHBLRERERCqlQYMG9OlzIwmJCXTq3LlK5xoMBjq0a0NycgrrN242OWZmZk6Af1eeeWI8HpdsDj/mnjtxc3Plh5/msWlrMJu2BgNgbm5B757dAXB0cODLT9/j0y++YUtwCAcOljzd0NbWjjGj72bcQ2PKrKdx48YkJSczZ94CY1vnjh2Z8swkPNzdTfo+cO/d1Hf34Ieff2FbaEmQdlHrVi2r9D6IiIhIzTMzGAyG2i7iehO2J4rAbp1quwwRERERAOOTAyMiIqp8bpcuXQBwdnY2fsfJOJ91mbPKV1BQwPnz53Fzc7viMeITkkhOOU1ubg52DvY08/HBxcW5wnPi4uJJO5eOra0tjb29jBvOXyojI4OTp+KxtLTAz88XG2vrUn3Wb9zCm+9+yK23DOP5yRNJTjnN2bNp1K/viaeHe6n+f5eQmMTZs2nY2dvh6eGOs5NTZW9bRERErhLN3BIRERGRSrOysqpWsAXg7dUQb6+GVTqncWNvGl/Yj6s8zs7OdGhfcUh2KXNzcxo1bECjhg0qfY5Xo4Z4Napa7SIiInJ1aUN5ERERERERERGpsxRuiYiIiMi/hoO9PU0aN8a9mrPPRERE5PqhZYkiIiIi8q/Rs0cAPXsE1HYZIiIiUoM0c0tEREREREREROoshVsiIiIiIiIiIlJnKdwSEREREREREZE6S+GWiIiIiIiIiIjUWQq3RERERERERESkzlK4JSIiIiIiIiIidZbCLRERERERERERqbMsa7sAEREREbm2Dh6Kre0SRERERGqMwi0RERGRf5nAbp1quwQRERGRGqNliSIiIiIiIiIiUmcp3BIRERERERERkTpL4ZaIiIiIiIiIiNRZCrdERERERERERKTOUrglIiIiIiIiIiJ1lsItERERERERERGpsxRuiYiIiIiIiIhInWVZ2wWIiIiIiFxvvv/+R06cPGF83bpVK+6/f0wtViQiIiLl0cwtEREREblq9uwJp+cNfZg+fUZtl1IlJ0+d5NDBwxw8eIiff57H+g0ba7skERERKYdmbomIiIjIVZOfn09ycjLn0tNru5QqeXP6GwAUFhbSslXbWq5GREREKqKZWyIiIiIiIiIiUmdp5paIiIiIXFfS09NZtOg3Dhw4AED79u0YNWoUTk6O5Z4TGrqDjRs3kZySQj03N/wD/BkyeBBWVlbGPufPn2fbtu1ERESSnJKMlZU1Hdq35447bsPJyemq35eIiIhcHQq3REREROS6ceTIEcaMeYDTZ87g5+dLcXExvy1Zyrfffc/8X+bi69vUpH9ubi5PP/0Ma9etx87ODj8/PzIzM/lx9k+MHn037737jrHv449PJHTHDuzs7GjSpDHZWdksXLiIz2bNYu7Pc2jTpvW1vVkRERGpEQq3RERERMTEhk1bmDN3fqX797qhB+Mfe7hGrv3Ci1M5feYMX3/1JUOHDgFg1erfeeqpp5ky9SUW/mpa11tvvcPadeu5797RvPbaNOzs7AA4cOAgoTt2mPTtP6Afzz33DIGBAca2HTt2MvaBh/jvW28zb+6cGrkHERERuba055aIiIiImBjQ7yZatWpRqb72Dg6MHTO6Rq578OAhIiOj6N27lzHYArhl+DB6dO9OWNgujh49amw/cyaVXxcuonHjxrz55hvGYAugTZvWPPzQgybjj398nEmwBdCjR3d69+5FSEgo+fn5NXIfIiIicm1p5paIiIiIlDL+0YeZMu0NiouKKuz3yANjsL8kVKqO6OhoAPr07lXqWO8+vdixcyfR0TE0a9YMgF27dlFYWMgtw4eZ7K1VkZMnT7Jp0xbi4uPIy8vDYDAQFxePwWAgIyMDDw+PGrkXERERuXYUbomIiIhIKR4e7owaeRsLFy8tt0/nTh0JDOhWY9dMSzt34dqlAyZPT08AzqalGdtOnz4DgLe3d6XG/2zW58ya9QXm5uY09fHB1c0VgPT0kusWFhZeefEiIiJSa7QsUURERETKdPOQQfj4NCnzmJ2dLY8+PLZGr2dpVfK7a25ubqljOTk5AFhfMkPLyrrk37Oysy47dkREBDNnziIwIICQ7VtZt+4PFi/6lcWLfqVH9+4AGAzVvgURERGpBQq3RERERKRM5ubmTBj3MGbmpb8y3n/faFycnWv0eo0vzMA6dSqu1LG4uHgAvLy8jG3N/PyAkr26Lmf79lAAnnxyYqmZYbGX7OP1dxYWFlhbW2s/LhERkeuYwi0RERERKZe3lxe33XKzSVv7dm3o06tnjV8rIMAfKysrVgYFUVBQYGzPz88nKGgVNtbWBAT4G9u7du1CgwYNWLVqNSdOnCw1XmZmpvHfHRwdStrOnzfpExISyoEDB8utyczMjCaNG3Pw4EGTmkREROT6oT23RERERKRCt424hV27w4lPSMTaxoZxjzxU5TGioqJ4/Y3pZR6768476dy5E25uboy9fww/zv6JiU9MYtxjj2IwGPj2u/8jJSWFiRPG4+TkZDzPysqKGW++wcQnJnHfmPt56qlJtGvXlqzzWaxfv4GcnBzeffdtAG7s0xsrKyvee+8DLC0saNSoEXvCw/n4409p1KghiYlJ5dY+evQ9vPPuezz44CP07Xsj5hYW9Ovbl1atWlb5fRAREZGap3BLRERERCpkYWHO+HGP8MaMdxg9aiRuFzZir4pjx45z7NjxMo917dKVzp07AfDKKy9RVFzEvHnz2bBhIwCWlpY89tgjvPDCc6XOHTJkMP/33Te89fY7TJv2mrHdzc2NV16eanzdrFkzPvzgPV5/400mPjEJAFtbW154/jkOHT7MwoWLyq390UcfJjs7m0WLF/P+Bx8BUM/NTeGWiIjIdcLMYNDWmX8XtieKwG6darsMEREREQAyMjKAkk3Rq6pLly4AODs7V/s7zvaQHfS6occVn18VmZmZHD58BICWLVvi5OR42XNOnDhJcnIyrq6u+Po2xdraulSf3Nxcjh49Sn5+Pi1btsTBwaHGaxcREZFrSzO3RERERKRSrlWwBeDk5ES3bl2rdE7Tpj40bepTYR9bW1vatWtXndJERETkOqMN5UVEREREREREpM5SuCUiIiIiIiIiInWWwi0REREREREREamzFG6JiIiIiIiIiEidpXBLRERERERERETqLIVbIiIiIiIiIiJSZyncEhERERERERGROkvhloiIiIiIiIiI1FkKt0REREREREREpM5SuCUiIiIiIiIiInWWwi0REREREREREamzFG6JiIiISJ2WnpHBiqDV7D9wsMrnxh49xoqg1Zw5k3oVKrt+fP3Nt/y2ZOlVvYbBYODzL74kKGjVVb2OiIjI3yncEhEREZHr1rn0dDZv3capuPhy+6SfS2fJspVEx+yr8viHDh9hybKVJKecrk6ZV9XChYvoeUMfglatrrDfLbfcxvDht5Z5bNasL5g/f8HVKM+oqKiITz6ZyZKly67qdURERP5O4ZaIiIiIXLeSkpL58ae5REbFXJXxG9SvT9cunXB2droq49cEDw8PkpOTiY2NLbdPfn4++/bvx9bOtszjgwYOoHv3wKtVooiISK2yrO0CREREROSfZdmKVbRv14aWLZrXdimX1a1rZ7p17VzbZVTIz88PgISExHL7XDzW7ELfv5s1a2bNFyYiInKdULglIiIiIjUqNTWVd97/mFuGDWXk7bdiYVG1xQLFxcVs2LQFgOTkFABiY4+ybsMmY58O7dvSsEGDUudmZmayaXMwCYlJuLg4M6DfTdSv72nSJy8vj63bQkzaunXtTD03t3JrOns2jeDtIZw+fQbMzHCvV4/27drQonkzzMzMqnR/VdWkSWMsLS2Jj/9raWZmZiYFBQU4OztjaWlJQkICAM2aNTP2CQkJ5dDhw8bXDerX5+abh5Z5jY0bN3Hy1CnG3j+GrVuDWbt2HTm5OfTu1Ys77xxZ5j1u3x7C72v+IDsrC/8Af0bddWe591BYWEhQ0Cp27NhJTm4uvk2bMnLkHTRt6mPs88v8BXh6eDB48KByx0lMTOLPtWt56MEHyu0jIiL/Pgq3RERERKTGGQwGglavISpmL5MmjKNBg/qVPreouJgVQSX7SxUUFgGw98BBYo8dM/ZxdXEpFW6dS0/ntTffoaiwEHMLc9LTM9i6bTtvv/karq6uxn45ubnG8fPz8snNy6NRw4blhlvhEVF8/tW3gIHG3t4YiosJ3RnGshVB/G/Wx9jb25d53oCBg8nOzuGVl6dy221l74VVGZaWlvg0aWIMsACGDR9BfHwCn8+ayYgRtxiDLz8/X2Of9Rs2sHz5CgDOnEnF379bueHW/PkLWLtuPcnJyXz77f/h7e1NYmIiS5cuJzb2KFOmvGDSf9bnX/Dpp5/h4OBAUx8fVq3+nU0bN5U5dnZ2Ng88+DB79oTj6eGBu4c7K1cG8dXX3/DF558Zw6yFCxeRnJxSYbi1du06pk+foXBLRERMKNwSERERkavm5MlTTJv+FvfefSeDBvSr1DlWlpbM+uQDAA4cPMR7H37KbbcMY8TwsoOZi7aH7GDsmNHG6yxesoyg1X+wcfNWRt7+V7jk6uJiHP/3P9by66IlFY678Lel2FpbM2P6q3i41wNKZiLt2LkLS0urcs9LSkomJyeH7Jycy93yZfk18yN4azAAqalniY9PwNzcnIjISEaMuMW4LNHvkmWJr057hVenvQJAu/adKnWdjRs3sS14Mw0aNCA+PoE7Rt7JDz/OZvLkSdjZ2QGwb98+Zs6cRYcO7Zk3dw7Ozs6cPn2aUXffW+aYs2Z9wZ494Tz66CNMe+UlzM3NOXLkCPeMHsPzL7zIls0bcXV1JSDAn++//5Hk5GQalDErDyAiMgJzc20bLCIipvTJICIiIiJXVWFBAXN/+ZUPPp5JenrGVbtOU58mJgHa8JuHAHDs+IlqjZt6Ng0PTw9jsAUls6l69+qJtXX54Va9em64urpiY21TretDyYysvPx8zpxJJSIiAoCbbx5KREQkAPEXZnX5+flW6zovPP+cMVjy9vbi1hEjyMvL49Chv5Y3Llr0GwaDgclPTcLZ2RkAT09PJkx4vNR4BoOBhYsW4+TkyAvPP2sMplq0aMGDD4wlM/M8q1f/DkBgQAAA4eEl91dQUMDixb+xb99fT8GMiIikfft21bpHERH551G4JSIiIiLXxL79B3n51emER0ZdlfH9fJuavLa3t8fK2prs7OrNnGrapDEnT55i8ZJlxMXFYzAYKnVe8NbNhO8JY+TI26t1ffhrL634+HgiI6No3rw5Awb0JyZmL4WFhSQkJODt7YWNTfWCtI4dO5i8btioIQAZmX+FktExJU+u7NGju0nf3r16lRovPj6etLQ0unXtapz5Zezfu6R/dHTJeP7+/gDGwG5PeDgvTnmJjz8p2Qw/PT2dY8eOG0MwERGRixRuiYiIiMg1k52Tw2eff0V4RM0HXGXtfWVpYU5xcXG1xn34wTF4e3kRtPoPXp3+FuMnPcMnn33B4SOx1Rq3KpoZn5iYQGRkFAEB3Qjw9ycvL4+DBw+RkJBgsiTxSrm4uJi8trSwAKC46K/38FzaOSwtLUv19fBwLzVeWtq5C8c8Sh3z9CzZ6P9sWprxfF/fpoRfmJm2ZctW/Px8CQkJJT8/n8gLoWhAgP8V3JmIiPyTKdwSERERkWvG3s6Op54cT9culdsD6nrg7eXF2zNeY8brr3D/vffQplVLoqL38s4Hn3AqLv7yA9QAPz9fAOLjE4iMisK/WzeaNvXB08ODiIgIEhISq70ksbKsrK0oLCykoKDApD03N69UX0srywvHcksdy8ktmVFnbfXX0s6AgACioqIpKipi69ZgJk4Yj6ODA2Fhu4yhV2CgZm6JiIgphVsiIiIick20a9uad9+aTkC3rpU+x8zMDACDoXqzr2qCj08TBg/qz/PPPMXDD96PobiYnWG7r8m169evj6OjI9tDQkhPT8ffvxsAXbt1ZcPGTeTl5RmXLl5tXl5eACQmJpq0x8XFlerrfaHvqTKOxV0IBi+OBxAY4E9ubi4hIaHs3buP/v370bdfXzZv2UJERCS+vk3LnAUmIiL/bgq3REREROSqsrSyYuyY0Ux5/hlcXJyrdK7DhaWGKafPXI3SKqWwsLBUm9eFvaiKiorKPW/ErbczcOAQ44bp1eXr25Tg4G24uroag6wAf3+Cg7cBfy1dvNr6XNgrKyhotUn78uUrSvV1dnamfft2REVFExtruoxzyZKlAPTu89deXQEXZmV9/sWXtG3bBk9PTwb078emTZsvLMfUrC0RESnNsrYLEBEREZF/Lh+fJkyaMI4GDepf0fmNGjXC1cWFbSE7cHCwx6tRI8zMzGjdqiX1Pa9sBk/M3n3k5JQsk7s4e+jQ4cNkZ2cDJU85bN6sJCgqKirm2Rde5sY+vWjZsjnubm6cSU1l8ZLlAPh361LudY4ePUZOTg4ZmZlXVOff+fn5EROzl26XzHwLCPAnPz//wnFfY3tiYhLh4eHG18VFRZxLO2cStN144404OTlWuY5Ro0bx1Vff8PkXX+Lk5ETHTh0IDQll4aLFZfZ/evJTTJj4JBMmPMmUKS/g4eHB6t9/Z82aP+jatQt9evc29m3m54e7ez127gzjqaeeBKBPnz48/Z9nKSwsJFD7bYmISBkUbomIiIhIjTMzM+OWYUMZefutWFhc+WIBCwtz/vPURH5dvJQNm7aSn1eyr9P4xx6+4nBr7i8LSUpONmlbvvKvWUgB3bry1JPjATA3N6NhwwasWbuO1Wv+NPbxcHfnyQnjjCHYtdD8wmwt/27djG3t27fDxtoaA+Dt7W1s37VrF0//51mT82OPHmXSU08bX6/5fRWtW7eqch1OTo7Mnv09k556mtffmA6Ao6Mj77//Lk9dMv5FQ4YM5t133+bdd99nwsQnje19+97Exx99iLm56Z8Pf39//vxzLf379TNeLzAwgJCQUOPMLhERkUuZGSr7LON/kbA9UQR2qzubnIqIiMg/W0ZGBgARFzbUroouXUpmFjk7O1+z7zgrglbTrm0bWjS/NntAXQt5eXmcPn2G7OwcXF1d8PBwLxXK/NsYDAYOHDhAdnYObdq0xsHBocL++fn5HDx4iJycHJo29aFBgwbXqFIREfmn08wtEREREalRt40YXtsl1DgbGxsaN/a+fMd/ETMzM9q2bVvp/tbW1nTs2OEqViQiIv9W/+6fm0REREREREREpE5TuCUiIiIiIiIiInWWwi0REREREREREamzFG6JiIiIiIiIiEidpXBLRERERERERETqLIVbIiIiIiIiIiJSZyncEhERERERERGROkvhloiIiIiIiIiI1FkKt0REREREREREpM5SuCUiIiIiIiIiInWWwi0REREREREREamzLGu7ABERERGpnC5dutR2CSIiIiLXHYVbIiIiInLNZGZmkpOTg6enJ2ZmZibHjh49yuyf5pi0TRg/Hm9vrxq59tfffIunpyd33TmyRsa76GrXLSIiciWu1ufepeLi4li6bDl9evema9fa+xFOyxJFRERE5KpbvPg3Bg8ZRqfO3ejRszft2ndi3OMTOHTosLFPVlY2hw4e5tDBw6xfv4Gff55HampqjdUwa9YXzJ+/oMbGu+hq1y0iIv8+CxcuoucNfQhatbrCfrfcchvDh99a5rGr9bl3qePHT/DJJzMJ27Xrql7nchRuiYiIiMhV9c677/HilJfIz8/n2Wf/w9tvzeC+e0eza9duFi1ebOzXsWMHFiyYx4IF8xg58o5arLhq6mrdIiJy/fLw8CA5OZnY2Nhy++Tn57Nv/35s7WzLPD5o4AC6dw+8WiVeV7QsUURERETKtGzFKtq3a0PLFs2veIzg4G189933JQHQ/HnY29sbj02ePIldu/fURKkiIiL/KH5+fgAkJCSW2+fisWYX+v7drFkza76w65TCLREREREpU2pqKu+8/zG3DBvKyNtvxcKi6pP+v/n2OwBee3WaSbAF4ObmxuBBA6tdZ0hIKGvXruNMaiqenp4MHTK4wl+q09LSmDvvF2Jjj9KwQQPuuWcUzZo1K9Xv0KHDbNmyleMnTpCZmUmjhg0ZNGggAQH+1a5ZRESkIk2aNMbS0pL4+HhjW2ZmJgUFBTg7O2NpaUlCQgKAyWdYSEgohw7/teS/Qf363Hzz0DKvMX/Br7g4OzN48CAWLf6NPbv3YG1tze2330aPHt1L9S8qKmLZsuWEhu7A0tKSYcNuxty8/O8G6enpLFr0GwcOHACgfft2jBo1CicnRwBSU88StGoVXbt0oVOnjuWOExERQWRUNA89+EC5fRRuiYiIiEi5DAYDQavXEBWzl0kTxtGgQf1Kn5uXl0dISCj16tW7aoHQm2/+l9k/zcHBwYGmPj6sX7+BH374kYkTxjN16oul+mdmZnL7HXdx/vx5GjSoz8qVQfw4+ye+/79v6dOnt7Hfjh07ufe++wFo0KABbm6urF+/gW++/Y77x9zHW2/NuCr3IyIiAmBpaYlPkybGAAtg2PARxMcn8PmsmYwYcYsx+PLz8zX2Wb9hA8uXrwDgzJlU/P27lRtuvfvue/j5+fHL/AXs2ROOu7s7cXFxLPh1Id//37f079/P2LewsJDHHhvPlq1b8fTwwK2eGwt+XVjuj1RHjhxhzJgHOH3mDH5+vhQXF/PbkqV8+933zP9lLr6+TbG1tWHGjLe47bZb+fSTj8p9L7797nvWrl1XYbilPbdERERE5LJOnjzFtOlvsW7Dpkqfc+RILEVFRbRq2bLUkxFrwqZNm5n90xwCAwMI2R7MqlUrCA0Jplu3rnz9zbds3x5S6pxDhw7TsWMHQkOC+X11EKuCVmBlZcULL04lPz/f2M/FxYVXXn6JiPBdxr47d2xnyJDBzPtlPmFhtbtxroiI/PP5NfMjIb4k3EpNPUt8fALm5uZEREYCfy1L9LtkWeKr014hbGcoYTtDsbOzu+w1oqKiqVevHhHhu9i6ZSM/zf4Bg8HA1998a9Lv57nz2LJ1K/fdO5rQ0G38sWY1C3+dz+YtW8sc94UXp3L6zBm+/upLNqxfy6aN6/nii1kkJSUxZepLADg4ONC2bRsiIiIqrDEiIoIO7dtX2EfhloiIiIhUSmFBAXN/+ZUPPp5JenrGZfunpaUB4OLqYtKekpJCXFyc8R+DwXBF9fy6cBEAU158wbjEwcnJiRdfeB6ABQt+LfO8F194HmtrawDatGnNnXfeQXJyMlu2/vUFvU2b1jz++GO4uPxVu729PU88MQGAzVu2XFHNIiIileXn50tefj5nzqQaA6Cbbx5KRERJuBV/YVaXn5/vFV/DysqKN6e/bvxcvOmmG2nbpg1RUdEm/RYuXISFhQXPP/+ccSliYGAAQ4cOKTXmwYOHiIyMonfvXibHbxk+jB7duxMWtoujR4+WjBEQwPHjJ4zfGRISElm8+DdOnz4NlHxnSExM00NuagAAIABJREFUIrB7QIX3oXBLRERERKpk3/6DvPzqdMIjoyrsZ6AktPr7rK3Hxo3nxpv6G/+5dMZUVURHR2NjbV1qyWOPHt2xtLQkOiam1DmNGjXE17epSVuvG24AYG/MPpP2goIC1q/fwGeffc6bb/6X19+Yztyf5wFwLu3cFdUsIiJSWRf30oqPjycyMormzZszYEB/YmL2UlhYSEJCAt7eXtjY2FzxNRo39sbNzc2krWGjhuTm5lJQUACUPJXx4MFDtGzZAnf3eiZ9e/fqVWrM6OiSYKxP79LHevfpdaFPyWe0/4XP8MgL3ykWLV7Mi1NeYtmykqWVF4O8wACFWyIiIiJSw7Jzcvjs868Ijyg/4HJ2cgZK9rm61IQJ45k+/XWaNGlSrRrS0s7h4elRqt3MzAx3d3fOnk0rdczDo3R/d3f3C+P91f/kyZMMvXk44x6fwNx589gTHs6+ffs5fOQIAIVFhdWqXURE5HKaGZ+YmEBkZBQBAd0I8PcnLy+PgwcPkZCQYLIk8Uq4OLuUarO0sACguLgYgIyMDAwGg/Hz8lIeHqXb0i78AFTWZ66npycAZy985nYPLAmtwsNLZqZt2bIVPz9f4wzpi+GWv3+3Cu9DG8qLiIiISJXZ29nx6CMP0LVLp3L7XPzF+fjx4ybtI24ZDsDKlUGcOnXqimuwtLQkNze3zGM5OTlYW1uVai+rf25eSZvVJf1ff306J06cZOanH3PbbbcaZ58dOXKEwUOGcYUrKUVERCrNz88XgPj4BCKjohgxYjhNm/rg6eFBREQECQmJJg9DuVqsrEo+H/Py8kodyy2jzdKqJGoq6zM3JycHAOsLY9avX5/GjRsTERFJZmYmkZFRfPft10x8YhI5OTmER0TQvFkz6tWrV2qsS2nmloiIiIhUSbu2rXn3rekEdOtaYT8nJ0e6dO5MfHwCsbGxVbqGvZ09QIVLFht7e3P2bBpZWVkm7ZmZmWRkZODl5VXqnKSkJIqKikza4i9s1uvt7W1sCwndQedOnbj99ttMllXGxh6tdt0iIiKVUb9+fRwdHdkeEkJ6erpx9lLXbl3ZsHETeXl5xh+SriZnZ2ccHR2NT2e8VFxcXKm2xhc+T0+dKn0sLq5kjEs/owMD/YmIjCQ4eBu+TZvSv38/6tevz7bt24mOjiEwsOIliaBwS0REREQqydLKirFjRjPl+WdwcXGu1DkPPVTy2O4PPvy4Stfy8SlZsljWvlkX3dCrJwaDwfjI84uWLF0GQO8y9vrIzDzPxk2bTNpWrFgJ/LX3FpRsHn8+67xJP4PBwI8//lTtukVERCrL17cpwcHbcHV1NQZZAf7+BAdvA/5aung1mZmZ0euGniQmJrFnT7ix3WAwsGL5ylL9AwL8sbKyYmVQkHHfLij54ScoaFWp/TIDAgLIyMhg9k9z6Ne/LwADBvTj/777gaysLAIqEW5pWaKIiIiIXJaPTxMmTRhHgwb1q3TeHXfczu9r/uDPP9cy9oGHuOfuUTg7OxMdE8P+/QcwMzMrteE8wMCBA/D08OCjjz4hOSmZeu71cHJy4r57Rxv7PPLwwyxYsJB33/sAg8FA+w7tiY6K4YMPPsLZyYmHH3qw1Lg2NjZMm/Y6Odk5NG7cmBUrVhISEsqggQNp1aqlsd+A/v1YsnQZ06fPYOTIOzh37hw/zfmZk6dOVni/lalbRESksvz8/IiJ2Uu3S2ZLBwT4G2cI+/n5GtsTE5MID/8rfCouKuJc2jlWr/7d2HbjjTcanzBcFRMnTmDtuvU8+9wLvPLyVDw8PJg/fwGxR0vPaHZzc2Ps/WP4cfZPTHxiEuMeexSDwcC33/0fKSkpTJwwHicnJ2P/i5vF79wZxtOTnwJgQP/+zJkz98Jx/1LX+DuFWyIiIiJSLjMzM24ZNpSRt9+KhcWVTfr/fNZMZn42izlz5rJt23Zje7t27Zj2ykvGx49fys7OjjlzZjN9+gzm/DyXnJwcvL29TEIib28vfpr9Ay9Omcqrr71hbG/evDkff/QB9euXDuI6dGhPYEAA/3nmOQwXNs666cYb+fjjD0z6vfbaNFLPnuWnOT/z05yfAejapQuzPpvJ3ffcW+69VqZuERGRymp+YbaWf7e/NlRv374dNtbWGDBdUr9r1y6e/s+zJufHHj3KpKeeNr5e8/sqWrduVeU6unbtwqeffMRrr7/BxCcmASWzyl5+eSrTp88o1f+VV16iqLiIefPms2HDRqBkr8zHHnuEF154zqRvixbNcXV1JT8/37gEsWfPHtja2uLk5ISPj89l6zMzGLQd5t+F7YkisFv5m6OKiIiIXEsZGRnVHsPZ2bnK33FWBK2mXds2tGheM/t55Ofnc/jwEbKysvD29sbbu/SeWFfqyJEjpJ49i6eHR6X2Hzl9+jTHjh2nUaOGFT61MTExibi4ODw9PfH1bVpj9YqIiNRFubm57N9/ACsrK9q1a4u5ecU/fGVmZnL4cMmThlu2bHlFs8YqQ+FWGRRuiYiIyPWktsItERERkbpAG8qLiIiIiIiIiEidpXBLRERERERERETqLIVbIiIiIiIiIiJSZyncEhERERERERGROkvhloiIiIiIiIiI1FkKt0REREREREREpM5SuCUiIiIiIiIiInWWZW0XICIiIiLXVtieqNouQURERKTGKNwSERER+Zdp3ap5bZcgIiIiUmO0LFFEREREREREROoshVsiIiIiIiIiIlJnKdwSEREREREREZE6S+GWiIiIiIiIiIjUWQq3RERERERERESkzlK4JSIiIiIiIiIidZbCLRERERERERERqbMUbomIiIjIP4bBYCArO7tUe2FhIbl5ebVQUc0q7/5ERET+zRRuiYiIiMg/wuZtIQy9fTTf/zTPpP2r735kyK13s3P3nlqqrGaE7tzNzXeM5n/fza7tUkRERK4rlrVdgIiIiIj8O504dYqNW7YRG3ucrOxsnJwc8W3ahBsCA2jTumWVx8s+n01ubk6p9rRz6RQWFVZ6nPDoGDZv2UZ8QhJFRUW4urrQqkVz+va5gUYNG5j0zcjMxNnJqcq1XomsrCxyckrfn4iIyL+dwi0RERERuaYKCgr4/Ov/Y3nQGgyG4lLHf5zzC69NfZ7BA/td07oMBgMffvY/glavKXVs3YZNLPxtOb/98gNmZmYciT3GU8+/RPt2bfj4nTevaZ0iIiJiSuGWiIiIiFwzxcXFTJvxLqE7wnB2cmHsfaO4sVcP3Ou5kZF5nuiYfaxZt5FuXTtf89o2bg4maPUa7OzseH7yE/Ts7o+dnR0pp1PZHRFJUWEhZmZmAOTl5ZGtva9ERESuCwq3REREROSaWbR0JaE7wvBwd+eLT97Dq1FD4zFbW1sG9r+Jgf1vKvPcgoIC8gsKcLC3vyq1bdkeCsD9o+9iyKD+xnZvr4Z4ezUs77RKOZ+Vha2NDZaWlfv6nZ2dg7WNNZYWFtW6roiIyL+Bwi0RERERKdPGDesxGCrfv5u/P66uruUeLygoYN6CRQA89cQ4k2CrIi9Oe5N9+w+Qef48AE5Ozgzs14cnxj2CnZ1t5Qu8jIszsSytrCt9zt59B3h04tPG140bezPj1akABG/fwRfffk9K8mkKiwoxMzOnVcvmTHjkQQL8u5Qa69y5c3w/Zz4bN28jIzMdAC+vRox/+AEG9Lux3BpW/P4ny5YH0bJFc6Y8OxkLCz0zSkRE/l0UbomIiIhImbKzswkNCalU38ZNmjBg4MAK+0TvPcC59HRcXVzo27tXpesoLCygXds21KvnSlFRMSE7drFs5WpSU9N4e/orlR7ncvx8fQnduYvFS5bTu2cATZs0qdZ4xRTj7OREqxbNcXR05OTJOKJiYnjx1el8NfNDk03zz6SmMunZl0hMSsLTw4N+XftQWFBI7LHjWFtblXuN4O2hfPLZ/2jUsAETHntIwZaIiPwrKdwSERERkTINGjyEmOhozl+YMVUec3Nz7rpr1GXHOxx7FIC2bVtXKYT59P23TF4nJafw0Pin2Lo9hDOpqXi4u1d6rIqMHX0XmzZvJTE5mUfGP83Ngwcy8rbhtGzRrNxzKtpQ/qZeN3BTrxtM2mZ++Q1Llgex4vc/TcKtT2Z9TWJSEsOGDuLF/0wyWb5YXFx6032AsPBI3nj7Q+q5ufHJezOo51b+rDkREZF/Mv20IyIiIiJlsrGx4bbb77hsv5v69sPD0/Oy/dLTMwBwc3GpVl0NG9SnR6A/AKcSEqs11qWcnBz5atZH9O97I0XFxQSt+YPHnvwPk59/hcjomBq5xh23DgMgPj7B2JaccprgkFCcHB2ZPGFcqX25zM1Lf2WPjI5h2utv4eBgz8z3/0ujhg1qpD4REZG6SDO3RERERKRcbdu1o23bduzfv6/M4+4eHvTt169SY1lZlXz1LCwqqlINRUXF7AzbzZHjxzl3Lh1XVxfOZ2UBkJVZ8ayyqqrn5sqb06aQNC6FoDVrWb1mHZHR0Ux+/mUevP9exj10f5XGS045zfbQnSSfTsVQXIy7ez0Ak9lwe/cdAKBtm9Y4OjpcdszDR2JZt2ETVtbWfPr+f/HxaVylmkRERP5pFG6JiIiISIVuu+MOYmOPkJ+fX+rYXXeNqvQTAOvVK1k2l5iYXOlrxyck8tzLb5CYWPYMrWKqsON9FTRsUJ9xD93Pg/fdw+x5vzJ3/q/MmbeAzp06ENi1c6XG+PbHufzy62KKi0uHeYZLduo/l1Eyo62+h0elxj0Se4zCwgLc69lVqr+IiMg/nZYlioiIiEiFHB0dGTxkaKl2f/8Amvj4VHqc9m3aAHDw8GEyKznj6uXX3yIxMZFRI29j0dwf2PzHCtYsW8jA/n0rfd3qsLa2YvwjY+l3Ux8Atm4r2WDfzMyswvM2bAlm7vxf8fRw5+N3ZrAuaAkbf1/OD1/NKtXX3rbkiY/pGZmVqmnY4AGMvfceUs+e5ennX+ZI7LGq3JKIiMg/jsItEREREbmsHj174uXlZXxtZ2fP0GHDqjRG82a++Pk2JT8/nwW/Lb9s//T0DI6fPImHuztPP/E4Dep7YmZmhr29HU5OjlW+h+rwvRDinb8QyllZlTzBMC+39Gw2gMiovQA8MOYeAgO6Ym1thYWFOR4e9Ur19fPzBeDAoUMUFBRcvhhzc8Y/+gATHnuYzPPneXHadJKSU6p0PyIiIv8kCrdERERE5LLMzMy4c9TdxhlLI269FTu7qi2LMzMzY/wjDwIwb8Eilq9aU2a/81lZ5OblYWNjjZmZORmZmZWa6WVrXzIDKu1cukn7xTrT0tJLnXOpuPiEMsOl/PwCQnaGAdCksTcA9T1LlhAeOXrUuP+XSS0XZmPFJyRdtu5WLZrRtIkPp8+c4cefF5gsWazI/aPvYvSokaSePcurM94lP78SwZiIiMg/kMX06dOn13YR15uExGS8G+mJMyIiInJ9yMvLq/YYNjY2xu84eVcYgjg6OlKQX4CVtRVDb67arK2LfJp4Y2Fhwe7wSEJ2hLF1WyjxiUkcPBxL6M7dLF66kplffINPY29atWzOseMniT12jG0hYWSeP8+JU3FE793Pzl17OJOayoB+N9K0SRMArCwtWbJiNSdPxXM27Rwd27XF2tqatLPnCA7ZwcFDRygGOrZvW2ZtU1//L9/+MJfDR49y7MQJ9h84zObg7cz837ccP3ECF2cXpjw3GXt7O2xtbThwOJZjx46zc9cekk+nEhq2i9lzF3Dz4IG4ujqz+o/17N23n6TkFJJPn+HQkVjC9kQSFR1DPTc3bh9R8h6amZnRvFlT1m3cSkRUFGF7IkhOPk1kTAx/rN3IiVNxdOrQjmPHT7A5eDutW7Wkd89AAPy7dCZm335i9u4n83wWN3QPuKL/LiIiInWZNpQXERERkUrrP3CgyZP+rsSDY0bTqkULvp8zj4OHDnPkqOmeUd5eXlhalyz7m/r8ZKysrdi4aSvf/zTXpJ+9vT12dvbG1429vXj8kQeYPXc+y1au5snxjwAwZHB/tu8IY8u27QRvD2XM3SNL1WQwGOjQrg3JySms37jZ5JiZmTkB/l155onxeLj/tazw6YmPczrlNIdjj3I49igAbq5upJ49S6sWzXlj2ot8/d1sVv+xFv5YazJevXqmyxM7d+zA5x+9w8z/fcfeffvZu2+/8diI4TeX+15aWJjz8gvP8MiEySxdEUS/vr3p2rFDuf1FRET+icwMlZ33/C8StieKwG6darsMEREREQAyLjxNrzqcnZ2N33EyzpdeRldbzqSmciougdycXOwd7PD28jIJkC7Kzs4hOeU02dnZ2Nnb4VHPDWdn5zLHzM3LIzklxTij66L09AxycnNp2KB+hTXFJySRnHKa3Nwc7Bzsaebjg4tL2de62D8jIwN393p4eribbDZvMBhIOX2Gs2fTMDM3x8XZCU8P9wqfMHkm9SzJySmYm5vTqFEDXF1cKqxXRETk307hVhkUbomIiMj15J8cbomIiIhUlzaUFxERERERERGROkvhloiIiIiIiIiI1FkKt0REREREREREpM5SuCUiIiIiIiIiInWWwi0REREREREREamzFG6JiIiIiIiIiEidpXBLRERERERERETqLIVbIiIiIiIiIiJSZyncEhERERERERGROsuytgsQERERkWvr4KHY2i5BREREpMZo5paIiIiIiIiIiNRZmrklIiIi8i8T2K1TbZcgIiIiUmM0c0tEREREREREROoshVsiIiIiIiIiIlJnKdwSEREREREREZE6S+GWiIiIiIiIiIjUWQq3RERERERERESkzlK4JSIiIiIiIiIidZbCLRERERERERERqbMUbomIiIiIiIiISJ2lcEtERERELiv8VCFbY/Nru4w6q7CwkNy8vFLt2dk5FBcX10JFIiIi/xwKt0RERESkUl5fc57Dp4tqu4w6Z+YX39Cz/3BCdoSZtD84fjK9Bt1CVlZ2LVUmItejrKxs9u0/+I8JvlNOn+HY8RO1XYb8w1nWdgEiIiIiUjecy4fxC9P59h4XWnpa1HY51Ra8fQeJySn07hmIV6OGZfbZuSucE6fiCOzWBd+mTa7oOqlp5ygsKizVfvpM6hWNJyLXVlFRMbt27yFm7z7S0s5hZm5OPTdXWjRvhr9/V+zt7Gr0ep//7xsOHDzEyNtHcPutt1RrrKysbBwc7GuosqrLzcvj1elvkZ+Xx8tTnqN1q5a1VsvlFBUVU1CQj62tbaXPSU45zYaNmzmbloZvUx8GDxyAtbWVSZ+CwkKCt4Xg4GBP9wD/MsfJysoieHsosUePkZ2VjZubKx07tifQvxtmZmYmfQ0GA/v2HyQiKork5BTMMMPb24sbe99Ao3I+yy4Vn5DIwUOH6REYUKk/G8eOn7hsOFm/vicd2rW97FhXk8ItERERETGRlFHM73tNl9AlZJTM2PonBVzzFi0hZEcYn743o9xwa2nQ7/z+5zpmTJt6xeGWiNRdWVnZfDjzc44fO17q2Oat29i7/wATH3+0Rq9pZVUSjlhbW1/xGCdPxfHOex/RokVzXnh2ck2VVmXmZmZYWlpSkJ+PpeX1Gz9s2LSFufMXcufttzJi+NBKnROfkMD0t97HysoK70YNWbxnBWG79vD6tKmYm/+1SO7PtetZ9Nsyxo4ZXeY4u/aE8/3sueRkm87i3bothC6dO/L0pIkm4/04Zx5btm4DwNzCnOKiYiKjY1izdj1PPP4ogQHdyq356LHjfDTzC7KzsmjVskWlwq2IyGiWr1xVYZ+Abl0VbomIiIjI9SUxvZhZoTnlHv8nBVwiIhVZvGQZx48dx6tRQx4cex9+vk0xMzMjKSmZ8MhoWrdqUePXnPzkBJJTUmjS2PuKxygoKChzn79rzdramvffeoOc3Dzqe3rUdjnlys7Oobioasvuly4LAgy8Pf1V3Nxc2Rq8ne9n/0zojjB63dADgIyMTFasWkOjhg3o3/emMsdJSkrGzMyMB++/D/9uXbCzsyMqOoZvvp9NRGQ0IaE76d2rp7F/z+6B2NnaMmhgPzw9PMjOzmZF0O+s+XMds3+eR5cunbD6W5BYUFjImj/WsnTFqirfZ+9ePWnVsuw/578sWEh8QiJt27Sq0phXg8ItEREREamyc/nw4opMfh7ripNNzY17PisLW1tbLC3KD81yc3PBzAxbmxq8cDUUFhWRn5ePvX3NLk0CKC4uJic3Fwf72ltWJPJvtic8EoBHHhpLyxbNje0+Pk3w8al4NmdRUTEFhQWX/X9VQWGhSRhhbW112WCroKDAOMPrajAYDOTm5mFra1NqWdzf+xUWFlZYi5OTE05OThWPUVRUKpCpSFXvv7L/Lari2MmTtG7RAjc3VwB6dA/k+9k/c/zESWO4tWTZCvJyc7n3nkexsCh7y/Nbhg2l9w09jeMABPh35fiJkwStXkPM3v0m4Va7tq1p17a18bW9vT333nMXYXvCST2TyokTJ2nRvJnxeHTMPr6f/TPnzp3Dt6kPObm5JCenVPo+63t6lBlMbg3eTnxCIp07dmDggH6VHu9qUbglIiIiIlfkREYxTy5M53/3uFQr4Doce5RZX39P2O4IcnNzMDe3wKeJN2+//hLt27YBIDEpmWemvsbxE6fIyy+ZjeDVsCFj7x3FmHvuBGB3RBTvf/I5bVq1ZMarU0pd54lnp3L2bBpfz/zA5C8RVyoqZh//+242YXvCKSoqws3VlRHDhvDUhEexqcZyIoD9Bw/z5Xc/ErpzN4WFBTg5OjKof1+efPxhPD3cq127iFROdm7JLNaqLKnbvSeCVb//wbHjJzAYDFhZW9GmVUuemTwJCwtz9u47wIZNmzl1Ko609HQK8guws7fn3rvvpO+NvVkZ9Ds7d+3mnlF30rFDOwDi4uJZHrSakydPkXImFUNxMeYW5vj6+NC/74306X1DmSHUkSOxvDb9LePrRg0b8uTEceXWHh4RxfKVqzgZF0dxUTFWlpb4+DRh6gvPGJdJ7gzbzaYtwSQkJHIuPR0oWR7n17Qpt996C506tjcZc9aXX3P69BmmvvAsjo4OAOzaHc7mrcGcikvg3LlzAFjb2NC2VUuGDxtSam+uK73/2KPHWLJsBfsOHMJQXIyToyO9e/XkrpG3lRmOrV2/gR07/3r4xw09uzP85iFlvldFBYVYXPLn4mJ4lV9QUFJzfAKbt26jfbs2dO7Usdz33MzMrMzPJA/3egDGz7zLcXNxIfVMKhbmpiGaq6sL9na23HHb/dzUpxfvfvBJueFWUnIyc+bOx6tRI+6/755yg83s7Gx+XbwESysrHnpgTKXqu9oUbomIiIjIFYs5U1StgCspOYWHJjxNdnY2N/XuhU8TbzIyMwmPiMbJ0dHYz87OjpzcPHr17I6bqzPn0jPYHLydD2Z+AQYDY0bfReuWzTl67ATHTpzilReeNtkUODnlNCE7wvBt6lMjwdamrdt54ZXpFBsM9O3TC0cHe0LDdvPz/IUcO3GSLz5654rHDtmxi6envEpBQT4d27fDq1FD9h84xNKVq9gWupOfvplFo4YNqn0PInJ5Tby9OXrsOAsXL2XypAmX3Tw+aPUaFi9ZjpmZGa1btcTFxZlz59LJzs4xhh9hu/ewe08Eri4utGnVCjs7W1JTz+LsXDK7KTUtjVNx8WRfsgdTfEIiYbv2YGdnS+uWLbC1tSEjI5Njx09w9Nhxovfu44nxj1U4y+py9oRHMOvLb7C2saFn90CcHB05m5ZGYlKyyf5f+w4cZN/+A7jVc6Njh3ZYWVmTnJxC7NFjfDrrS56Z/IRJmJOQkERScjJFlyyHi9m3n+iYfbi5udKhXVssLC1JOX2ayOgYIqNjGDtmNIMG9KvW/YdHRPH5V99gKDbQtUtn7Oxs2bt3P2v+XEdiYhLP/mfSFb9XAI0aNeTosePGWWQHDx0BwLtRIwAW/LoYgPvuGXVF4x88XDJe82Z+l+174OBhYo8dp76nR6kZhU0ae/POf9+o1DW3bN3Ovv0H2bf/IAMH9Cv3s2b9hs2cP5/FiOE3U6+eW6XGvtoUbomIiIhItVQn4NqwaSvZ2dmMuecupjxT/l80XF2cWfHrTyZt6zdt5flX3mDBkhWMGX0Xjg4OdO3SkbDd4ezcHc5NvW8w9g3bHQFA757dS429LXQXZ1LTyrzuyVPxpdqysrN54+0PKSou5qtP36dn95KnX51Lz2DsuCcJ3h7Kjl176FHBpr7lyc3LY9qM9ygoyOe/r07l1gsbGxcVFfPWB5+ydOUq3v5wJl98/G6VxxaRqhs7ZjRvvfcR+w8cZMrLrzGwfz/69+2Dq2vpkPz4iZP8tnQFNra2vPzis/g29TEeMxgMpfrfN3oUPboHVKmeHt0DefiSmTLxCYl8NPNzdobtplXLFiaBEFClDeWDt4cCMHHcw3Tr2qXC2gHuHXWnSf1Bq/9g8ZJlLF0eVOFMJZMx7r7LZIzdeyL48pvvmDd/Ia1atsCnSWOT/pW9/9zcXL77cQ6GYgPPPzvZuNn5+fNZzHj7PSKjY9i3/wDtLswOvmjwwAGV3lB++M1D+Hjm57zz/se0bNGckNCdODs70af3DURGRROzbz/9bupD4yvYO+3Q4SOE7gjDxcWZgf37ltnnwMHD7D9wkPiEBPZEROHq6sLTTz2BRQXL+i+na5dObA/ZgZdXw3L3SCsoKODP9RuxsrZm2NBBV3ytmlb2ok8RERERkWvA2qZkNkBa2rkqnzuw3424ubkRn5BAUVExAIMv/CVg3aatJn137gkHoE8Z4dbiZSt4+8NPy/xn7/79pfqv3bCZ9Ix0bh7U3xhsQUkAN+bukiWSW7fvqPL9AKzfuIWzaWfx79LZGGxByXKX5ydPxMnRkeCQHSQkJl3R+CJSNc38fHn9lSn4+Tbl/Pkslq9cxXNTp/H1dz+QmnrWpO+GjZsxGAwMHzrIJNgCqjWjqiLeXo144L57AFi7bkO1xrLFztC9AAAgAElEQVSyLFmml5F53qS9srUPGzoIaxsbTpw8VW4gdjn+3bowsH9fDAYD6zdsumz/8u5/5649ZGdl0aN7gMlT/BwdHRg8cAAAkVExV1TjRR07tGPykxOwsLBgT3gkLVs2Z9pLL2Jtbc2CRUuwtbHhzjtuA0pmD0dGRZOccvqy4yYmJvH5l98AMO6Rh0xmIV8qKjqG5StXsWt3OMVFRbRo5oddOX0rq2WL5sz8+D2mPP9MuSHZluDtZGZmclPvG3BwcKjW9WqSZm6JiIiISLV08LC44mWJfW7ogZOjI7+vXc+5jAzGjr6LXj0Cy/zLVFZ2Npu2bONkXALns7Jo7NUIaysrioqKyMnJwdHRgaGD+vHBzC/ZtGU7hVMLjfvk7Nodga2NLd26dio17gP33UP7cp70tOC35URERZu0Re0tCbxycnOZ/ctCk2NHjx0H4FRc6RlflREetReAG3v1KHXM0dGBzp06ELw9lMjovXg1anhF1xCRqvFt6sMbr77E0WPH2bQlmJAdYYTuCCMiIooJjz9K1y4l/185fCQWgA7t213T+rp26Yy5hQXJKafJyMg0Lm+sqp49A9kRtouf5s7n+ImTDOh3U6mZUxWxsLCgvoc7cfEJZGRk4uLifEV1BPp3Y+26jRy68H5eTln3f/ToMQDy8vL4/Y+1Jv0TEhIBSKlE0HQ5/t264P//7d13eFRV+sDx70zqpPcOoSShE3pHOggCIlWKAiIqllXXurqWXVf82bGLoiI2OgKKCEgLPSEhlDQSEkJJb5OemWR+f0wyMGRCkkkgsPt+noeHh3vPPfe8kzDJfeec9/TqYXRs1+69pKWlM2PaFBwdHVi56if27j9gOD9q5HDumzPLZH9p6Rn837sfUlhUxIL75hhqrpky6a7xDBk8kIzMTA4cPEx4RCQJCYm89sqLuLneuKWCYQcOARiK5t8qJLklhBBCCCHM1pTEFoCPtxcrPv2Atz74hMNHwzl8NJwAfz8ee+gBxo8ZaWi3N+wQ/3j9TUpLS032UzNLwNnJiTsGD2D3vjD2HTjMqOFDSUg8x+X0dIYMGmCy0Huv0K6MuGOIyX73HTxSK7mlVhdWj+kge8MOmryuuMT0OOtTU5y5ruUg3l6eAOTlF5jVvxDCfO3atqFd2zZMmzKZb1f+QPSp03y54js+ePtN7O3tKCzSz3i6kYkFUxQKBe6urmRlZ1NYVGR2cqtnaHcefeRB1q7bxN59YezdF0ZIcBCzZ02nbZvABvVRU5urrLwcZ7NGAR7u+k0ziq6ZQVYXU/EXFRcD+rpbUSdOmryutKzMzBHWraSkhI2bf8PD3Z2xY0Zx5Gg4e/cf4M6xoxk+bAh79x1g+45ddAgOol/f3kbXZmZl8/a7H1KgVjP33pkMHzb0uvdSqWxRqXzw8/WhZ2h3fvplLTv/2sPmLb+zcP68Zo8NIDsnl5Tzqbh7uDeoFtjNJMktIYQQQghhFidrmrxTIkCHkCBWfvkRsfFnWfXLOrbv3M0/XvsP+fkFzJ5xDxmZWTz78r9QKhW88vzfGTtqOA4O9tU1rh7j0uXLRv3NvGcyu/eF8evv2xk1fCh79uk/MR9ZRwKrsWqWfTz+0ANGSwevZm3mbon29nZA3cmr3Fz98k17Ozuz+hdCNJ2zsxOPP/YwL/zjVXLz8oiJjaNvn17Y2thSVFRMUXFxs2xc0RhF1cXnbWya9obcr09v+vbuxYnoU2zbvoOEs4m88dY7vPrSC7WWWt4oxWbEcm38NX9PmzKZwYMHmLzm6t0Sm2vV6Oat2ygpLmbBvNlYWVoSeSIalcqWGdOmYGFhwYxpU9gXdoDIE9FGya2S0lI+/Pgz8gsKmDn9HsaMHtHoe48eOZydf+0hoboQ/Y1wvHqJ/4C+jasVdzNIzS0hhBBCCNFoTtawohkSW1fr1CGYt15/iQ/eeh2A76uX/J06E4tWq2HUsKFMmzIRR0cH/dbpLs7Y2NROIg3o15t2bdtw4JC+NtWuvWFYWlgyesT1PwVvqPbt9Z9WJyWfx9vL0+QfVxfz5ix07hAMQJSJWjBarZYzsXGA/rUSQrQcK0tLPKtnWNYkYwIC/AA4e7Zhy+maS0ZGJqUlJahUtrhX71xnVb0ku6KiotH9KRQKevbozssvPsvY0SOpqqxqcj2vxkiqXlJY83rWx1T8Af76ay+lpeHm6mryz9U78lo24fUyjCMzi5279xLUvp0hcZWbm4eLi4uhfpWFhQUuzs7k5hlvYrJ6zXrS0tIZNWIYE+4ca9b9S6pnNldotWbHUJ/IqGgAeoQ2bMOAm0mSW0IIIYQQwoivs5In+qt4or+KN8fa8+10J14cdmWmUE1iK9jT/B2Zrqdvr54AFFcvK1Gp9DOlLlbXSWmIebOmo9NV8e5HX3A2KYlBA/rh5GjeUp1rjRs5DAsLC7bv2sOxiKh629tVz7KqmXV15bhKf/yqYvpjRw7HxtqGv/aGcTomzqj9T2s3kpmVRYeQYEKC2zcxCiFEQ1yq430nOzuH8+dTAfDx9gZgYH/9hhVbt/3RLPWcTCm9ZslzZWUlazdsAqBvn96GeoVubm4ApKZeoLTU/OV3HTvo6xHeiCV8cCUhU6NAreaP7TsA6G9idlBD4+/bpzcKpZKjxyKIiY2vdxzu7vrXKy4hofFBVFuzbgNVlZXMuXeGUb/5+flUVlYC+g8pcvMLcK/++oA+ORd28DBeXp7cO3Navfep6etqOp2O7X/uAqBDcJDZMVRUVPDnzr84eeqMiftWkZScgtLC4qbN4msMWZYohBBCCCGM+DgpeWCQyuS55k5srd24hd37DtC7R3dcXJwpLi5m5579AAzs3xeAXqHd8fXx4dSZGB558nkGD+iLnUpFUUlJnbssTho/huXfrmLPfv2uiVMnjW+W8QL4+nizZPFCPv1yBQ/97RmGDRlEUPt22NnacCktndy8fJa9/Yahfc1srM9XrKSwpIQFc/Q7e3XqEEzSuWReePU/PPLAfQy/YzCuri4887clLH1vGQ8+9ncmTRiLv68Pp2Li+GvvfmysbXj1haebLRYhRN1KS8t47Y23cHN1oXOnjri7uaJQKMjKyiY8IpKy8nKCg9rTIUSfTOjXtzeHDh8l+tRpXv3XmwwY0A8PdzeKi0tIOZ/Kk48/UufOdw11NDyCjOxsunfpjFKp5ET0SVLOp+Lo6MjUuyca2uk3oOhG9MlTvPXO+4R274ZGoyEx6RwvvfAMSmXteS5ff/s9Wq2WtoGBWNtYU1BQwL4wffHwG1Ukf9WPv3Dy1GnatgmkrKycQ0eOkZ+fT0hIEAOqfwaYE7+HuxvTpkxi/cbNvPP+MnqGdicgwB9rayuys3NQFxby5ONLDO1Du3XF0cGBhIREPvz4c9oEtkKtLkRbWcmiBffVG0dc/Fkio6IZ2L8f7dq2MRzv3bMHx8KPs3rdBoYNGcy+sIOUl5UZFaGPij6JTqdDAXy78keT/U+ferchAffP197A19eHwNatUalsKS4u5uSpMySnnMdOpWLyRPN/3m3fsYuNv25FoVDw/ttv4uZ2pX5cekY6Wo0Gfz9foyWdtwpJbgkhhBBCiAZbNtmpWWdsFRcXExF5giPhEYZjVlbWTBo/jueeehTQz9z69L2lvPneRxwJjzBqC+Dm6obSwvhBzcrKikX3z2Hpe8vw9PBg6OCBzTZmgAfvn4OPpyefr1jJvgOH2Fe9exRA544djNreNX4M+w4eZve+MPbsO2BIbj22eCFx8YnEJSRwKiaO4XcMBmDm1Mk4Otjz4WdfsW7TFqN+X37uSbp06tissQghTCuvKKd3z1Ciok+xd1+Y0TlLKyuG3zGEWTOmGWYLKRQKnnjsYTZt/o2/du81usbaxoaCAnWTk1ve3l7kZOew5bdthmMhIUE8MH8eLi7Gdb7mzp5Jbm4uqRcuknrhIgBOTo7kFxSYLHpfXFzMiehTHD125T3WwcGeqVMmMaKe4ubmCmzditOnYwxF35UWSoYMGsi8OTNN7prbmPgnTrgTV1dXNm7eSlT0SaKirxSWv3bmkZWVFQ8ums83360i+uQpoqs3Eglq367eGHQ6Hb+sWYellRUzpk0xOte/Xx8Sziayc9cedu7aA8C4MaPoUz1DGSC/usZiRmYWGXXM+Bs/bjTu7m5otFrs7OyIOnHSsESwRtfOnZgze6ZhJqE5XJz1S+pVtra1ap5lZeUAV2YF3moUupqtZYRBeORJ+vaqvU20EEIIIURLUKvVTe7DycmpSb/jRF3QkqauZEKXZiyyVa2svJzU1IsUl5Tg7OSEj7eXYcnetfLy8knPzKKyshJHBwe8PD0Myxavte/AYZ58/mWeeHgRi+bPbfZx17h0OY3snFzs7FR4e3nWufwxv0BNaWkpvj7GDx7pGZnY2NjUqtOl0+k4l3yeArUaH28v/Hx9blgMQoi6VVVVcflyGvlqNZVaLY6OjgT4+11344jKykrS0tIpKS3FwcEBby8vLCzMrwp09FgEX3z1DcOHDWX+vNnk5ORSoFbj5upab/H6zKxsioqKcHFxxtXFxWTSqEZxcTGZWdlotVqcnZxwd3cz1ItqTit/+Jm9+8JY8tAievfqQUZmFuXl5fj4eGOnqv3+35T4AbKys/XJRRsbXF1dDZt3XKuqqoq09HQ0Gi0e7u44ONg3OVaAnJxc0jMy8fXxNpoNZa6S0lIuXrxESUkptra2BPj7NdtYz6dewMXZGWdnp2bp72aRmVtCCCGEEKJePVtZ0vMG/epoa2PT4BpSrq4uDXqQSUvP4P8++AR3NzfmNKCGSVP4+/ni7+dbbzsXZydcTDws+Hh7mWyvUCho365NU4cnhGgipVJJQIA/Afg3+BoLCwsCAhrevjEUCgUeHu54eLg3qL2Xpwde1cXv62Nvb09b++ZJkjSUpaVlg95DazQ2fgBPDw88Pep/DZRKJf5+DStk3xju7m6GZYXNwU6lIqQJtbWuJ7B1qxvS740myS0hhBBCCPFf4ac1G9i97wA69DssAny57O06Z3YJIYQQ4r+DJLeEEEIIIcR/BY1WS3pmFtZWVowcNoRF988hJKj+eilCCHGrs1XZ4uPtjbPT7bVUrC76Jeje2Dbww4f/tvhF85OaWyZIzS0hhBBC3EpuhZpbQgghhBC3KvMr2gkhhBBCCCGEEEII0cIkuSWEEEIIIYQQQgghbluS3BJCCCGEEEIIIYQQty1JbgkhhBBCCCGEEEKI25Ykt4QQQgghhBBCCCHEbUuSW0IIIYQQQgghhBDitmXZ0gMQQgghhBA3V3jkyZYeghBCCCFEs5HklhBCCCHE/5i+vbq39BCEEEIIIZqNLEsUQgghhBBCCCGEELctSW4JIYQQQgghhBBCiNuWJLeEEEIIIYQQQgghxG1LkltCCCGEEEIIIYQQ4rYlyS0hhBBCCCGEEEIIcduS5JYQQgghhBBCCCGEuG1JcksIIYQQQgghhBBC3LYkuSWEEEIIIYQQQgghbluS3BJCCCGEELeMvPwCdDpdSw9DmKG4pISKCk1LD0MIIcT/IEluCSGEEEKIW4JWq+XRp19gyVMvUFVV1dLDEY1wOS2d6fMe5OMvV7T0UIS45VRVVRETG09JSUlLD6VZFBeXEBMbL+/T4pZi2dIDEEIIIYQQAmD5dz8QG5/AgjmzUCrlM9jbibeXF64uzvy4eh0jhg6id8/Qlh6SENcVn3CW8IhIMjKzqKqqxMnRicDAVvTp1RMPD/dmvdeW3/7g1y2/0bFDCC8+93ST+iouLsbe3r6ZRmaeTz5fTlx8AvfcPZG7J93VomOpT3FxCfb2dg1ur9PpCDtwiJi4eFS2tgwa2J/goPa12p1NTOLCxUt069oZTw+PWue1Wi0Rx6M4fSaW/Px87OzsCA5uz9DBA7G1ta3V/uKly4RHHOfCxUtUVGjw8HCnT++edO3cqd4xl5SUcDT8OCHB7fH382twrFe7dDmN+ISz9O/bp87XS6vVsi/sIDGxcWi1lbRrG8jIEcNwdHAw657NTZJbQgghhBCixeXk5vH9T2vw9/PjkcULWno4opEsLJS8/tJzzJr/EB98upyfvvm8pYckhEk6nY7vf/iZvfsP1Dp3+Ogxtu/4iw/fXYpCoWi2e1pbWwFgY23dpH6efv4litSFfP3lJ80xLLNZWenjsW5iPDdS6oWLLP2/9wgKas+zTz/R4Ou++e4HDhw6TNs2gRQUFrJ3/wEeX/IQvXv1MLQpLS3j48+WY2lpwZBBA2v1celyGp9+vpy09Ayj48cijrNz125eevFZXJydDccPHT7KV9+sBDB83+l0OvbuC2PcmFHMnjW9zvEWqNV8+NFnpJxPZd6cWWYlt84lp/Desk8pKS4mJDjIZHKroqKCt99bRtK5ZMM4o0+eYs/eMF564Rm8vDwbfd/mJsktIYQQQgjR4n5YvZ6Kigrmz56BrY1NSw9HmCEkqB3Dhw5iz/4DHI2IpH+fXi09JCFqORZxnL37D2BtY8OCebMJ7d4VGxsbcvPyiYmNo7KyslkTWwAT7hxLt65d8PH2alI/anVhM42oaZ549GEyMjNpFeDf0kOpk0ajoay8vFHXXLx4iQOHDjNm9Ajm3juTigoNr/37Tdas22CU3Nr6+x8UFhby8IMLDYnLq5WUlJCZncP4cWMYdsdgPNzdOZ96gRXfrSItLZ0NGzezaOH9hvah3bvSv18fxo0ZRds2gVRWVnIs/DgrVq7iz51/MaBfH9q2bVPrPuERkfz48xoK1OpGxVlDo9Wy/c+dbNryO1WVlddtu2b9JpLOJdOtaxcWPzAflcqWDb9uYfufu/jiq2947Z8vmjWG5iTzvYUQQgghRIvSVlayYfNvONg7MGnCOJNtqqqqKCoubnCNl4oKDZWVDa8Ho9VqKSsra1R7rVbb4PYNdb1xN+Z+jY2nMWq+FqYK/8+dORWA1es335B7C9FUkZHRAEwaP45BA/tjb2+PpaUlXp4eDL9jCKNGDKvzWp1OR2lpWb2bXmi12lptWgX4G2Y81XXNja5hVVpa1qD3RU09Y7G2tqo3saXRNG5zicbGr9PpKCur/2vRGOdTLwDQv28fQB9nzx6hZGZlU1JaCkB2dg5/7tpN2zaBDOjf12Q/wUHteefNfzFrxlR8vL2xtLSkfbu2zJ09E4BTZ2KN2tvb27PkoUW0a9sGhUKBpaUlgwb2Z/CA/gCciY0zap+Tk8vrb7zFZ19+TZVOR+dOHRod66nTMTz34its2LSF1gH+eF8n8VpcXMKefWFYWVvz8IMLcXJyxMrKintnTKN161Ykp5znTExcndffLDJzSwghhBBCtKhTp2MoLCxk1PA7UKmMa5F8seJ71v+6ldy8fHS6KqytrenftzfPP/UYrfyvLL9IOJvEF9+s4mxSEunpmWgr9Ymg1q1aMWPKRObdO93kbIydu/fx3Y+riYmLB8DXx4epkyYwf+4so0/kS0pKWfr+R8TFJ3LxchplZfoHHTdXN8aMHMbjDy3E0VFfd+TF197kXHIKr7zwd7p1Ma6Xsmf/Ab5Y8T2jRtzBwwvvq3PcHUNCeOrRxWg0GlZv2EzUyVOUlJTg6uLC+LGj+Nsji0zWbWloPGeTzvHyv96iR/euvPTsk7X6+Hrlj0yZOJ451ckqgL1hh1j+7SrOJp5DW6nF2tqaDsFBfP3Je4ax9O4ZipOjE0cjjqPVarG0lMcNcWsprf6/a2nV8O/NCxcvsXHTFk6fiUGj1aJQKglsFcDiRQvw9/MlIzOL37dtJ+lcMnl5+ZSUlmJlacnAgf15YP48Tp2OYe36jfTr05tJE8cDUF5ezk+/rCU55TzpmZloKjQoFAq8PD0Y0L8v48eNMfl/vFKr5ZXX/2N07OUXnzXZFvSzkdZt3ExMXDyaigoUCgU+3l48tGiBYTZQ6oWL/Lrldy5evEh2bi5V1Qkwb28vRgwbyrgxo4zeP7f+9gfHIo4zc/pUunXtbLjP5t+2kZp6gczsHHRVVSgtlLRp3ZoRw4YyZPBAoz7MjT83L4+Nm7YScTySsvJyLK2s6BnajXtnTMPd3a1W+8TEJKPXy9fHh0cfedDka6Wp/gDh6vctC0sL/bkKDahUrF2/iUqtljn3zrjuDD9TY/GoPlbRwBllztVLF6+tQeni4oxWq2XSXeMZP240f/y5i5jYeNMxaTSs+G4V5eXlLFp4v6E+louLM3YqW6ZMnssdQwbx1jsfkJGRabKPU6fPUFVZSa8e3XFwMK73Nqh/P1JTLxB5IpounTs2KK4bRX7aCCGEEEKIFnXoWAQAfUwUIS+vqKBtm0D69emFytaGiMhowg4eJuFsEpt+/g47OxUA51LOs2d/GI4ODvQI7YazkyNZ2TmciY3j/U++IDs3j6cfe8io7y+/XcWXK1ZiaWnFoP79sLNTEX78BJ99/S3HIqP4Ytk7WFroH2xKSkv57Y8dWFpY0qVzR9xcXSgpKeVMbDxrNmwiJi6e75d/jFKpxNvLk+07/2L/oSO1klt7DxwmITGJRffPMTluJ0cHLl1OIy4hgUeeeg4AF2dneoV2Q6m0ICLqBD+v3UB2Ti7vvPGK2fGUlpaRkJhk8gEsv0BNQmISmdk5hmN79h/g6RdfRaVSMW7MSFxdnMnIzCLl/AWjB1CFQkGvHt3YG3aQ6NMx9O7RvQHfAULcPAH+/pw8dYY/d/xFj+7d8PX1uW77mNh4Pvj4M7QaDa0C/PHz86WkpJTklBRD3aSUlPPsP3AIWxsb2rQJxMnJkaKiYpydnAD9MrULFy/Rvn07Q79lZeXsP3AIhVJJuzaBODo6UF5eQVJyCpu3biM8IpJ/vPBMk4p15+bm8Z+33qWsvJweod3w9vKipKSE+LOJ2NldqauUlpZOZNQJ7FQqQoKCcLC3Jy8/n3Mp51m9dgNqdSEzp99jaJ+Tl8eFi5eMdn+8dDmN8IhIVCpbOgQHYWtrg1pdSHLKec4lp3DqTAxLHlpkSAiZE392dg5vLH2HArWa4KD2+Pn6kHQumfCISJKSknnj9X82qnj8tfx89N8LcfEJtAlsDeg3HrC3t8PZ2YmziUkcizhOvz69TRaZr09CQiIA7du3rbdtfn4+h44eQ6FU0rOH8c9GCwsL/vOvV+q40lhcfAJHq3/GRhyPYsSwoYB+JuHSN15rUB+pFy4CGF6TqwUGtgLgQnWbliTJLSGEEEII0aISk1IA6BgSVOvcU48uNvp3WXk5ix79O2diY9l38DDjx4w0Oj929Aheef7KbmSRJ06y+Iln+Gn1ehbdPxsnR0cAYuIS+HLFShzsHfj2i2WEBOkfOgsLi1j8xLOEH4/ix9XrWTB3llH//v6+fL/8Y8O/M7OyWbjkKU6dieHA4aPcMXggwwYP4PufVnPg0FEeW7zQ6PqIyGgUCiUD+vW+7rjf+/gLfly9ji6dOvHdF8sMs64SzyVz7/yH2fHXHl54+nHc3VybFE9Dbdm2A4Clr/2DEXcMMRw3tSSoU8cQ9oYdJOlciiS3xC1n4oRxHAs/TnZODi+//gZDBg1k9IhhtG7dqlbbigoNy7/+Fq1GwwPz53HH0MGGczqdrtbMnQED+rHgvjmNGo+3pyevvPS84d/FxSV8vvxrzsTE8f2qn3n8UeOkvIWlJW+8/s8G9R0RGUVZebmhhlR9+vXrYzT+hIRE3nrvQ7bv3MVd48c1KHHUv19foz4uXU7jvWWfcCz8OCHBQYweOdyofWPi/27VjxSo1UyeOIGpUyYB+mXSny9fQcTxKLbv3MW0KZON+m9MQfng4Pa0b9eWdRs3k5mZRXZODgkJicyYNgWdTsdPa9ZjYWlplOhrqMKiIjZu/g2AqXdPMtkmKzubI0fCyc7JITzyBBpNBY88uBBfH+9G369G2zZtaBXgT3lFBZ07mTezKi8vHwAHE7t01iQfc3PzzB5jc5GaW0IIIYQQokXl5ul/KXZxca6nJdja2HD3Xfq6XOcb8Elxrx7d6denF9pKLWcTzxmOr924BYC5s6YZEkEAjo4OPPfkEgDWbKi/bpSXpwfTJt8FQGzcWQBCu3XFw92d2PgEo92y0jMyuXT5Mt26dDLM6KjLvdOmAFCgLjBaThjUri29q2e4pZxPbfZ46lKzK1peXoHRcVPLclyrZ7PUPBAJcSuxs7PjlZefp1/f3uiqdOwPO8ir/17K0nfeN8ysqRFxPJICtZqOHUKMEltg+nu/Odjb2/HgwvlYWVsRERlleH80R02Nr8LCIrOuDwkJokunjlRVVnHh4iWz+vD38+W+6lpTO3ftrrd9XfFnZmVzJiYON1dX7p50l6G9Uqk0/PvkydNmjbGGQqHg708+xuCB/TkdE0t+gZrZs6Yz4c6xHDkaTkpyCuNGj8TDw53y8nLi4s8SF3+WioqK6/ZbVl7Oso8/Jz8/n0kTx5ssDg+Qnp7Bhl+3sC/sICXFxfj5+ODq6tKkmBwc7Hnj9X/yztJ/423mjoZl5fr6jSqVqta5mhmANW1akszcEkIIIYQQLSq/QJ8wcakj4XMmNp7IEyfJzM6pXuqif1Br6ANbYKsADh8NJ+uqZXYnTukfgoYO6l+rfe+eoahUKtLS08nKzsbTw+P6/bcOACAzR9+/hYWS8WNH8cMva9mxex/z5+gf7MKPRwEweGC/esfs7+eDhYUF2Tm1H2xbBfhzNOI4eflXEk3NGY8pE8aO4s9du3nzvWWciU9g1j2TCQk2vSzHxVn/dczJl+SWuDU5Oznx6MMPkj09l/1hB9l/4BAJCYksfed9o1lBZxOTAAx1pW4WV1cXgtu3IyY2nsTEc/Tr27v+i0wI7dYVO5WKI0fDKSoqZtyYkXTt0rlRiTkfby9On4mhoKCg/sZ16NkjFKWFBRmZWajVhTg5OV63van4z51LBvQJlh27/jJqr9Xoa2WlZ2aZPcYa9vb2PDB/ntGxigoN6zb8iqOjI5PuGs+55BQ+/mw5+dXvcTJMTH8AAA1mSURBVK5urjz52CMml+2Vl5fz/oefkHQumYH9+9U5awugY8cOvLP03+Tm5RN1Ipqdu/fyf+99yNNPPEq3rl2aHJu5LJT65eymNjWpqVNW06YlSXJLCCGEEEK0KGsr/ayg8ms+/S4rL+fvL77GoaPHTF7X0F2yampClZRe+WQ5vzox5OVpOtHj5enB+dQL5OWr600G2dra6PsvKTUcmzxhLD/8spat23YYklu79x8CYMiA+pNbCoUCKytrkzMCamZylV9VlLg54zFl2JCBvPuf1/jw0+Vs+HUrG37dSs/Q7jz7tyV0uWanrpqvo031bC8hblUe7m5MnTKJSRPHs2XrNrb+/gdbfttGxw7BdO7UkcIifQLdzdX1po/N3d0dwDAGc7i5ufLic0/zw89rOH0mhtNnYvDy9GDqlMl17vR3rZpZm2UNLIJuikKhwN3VlazsbAqLiupNbkHt+IuLiwG4dPkya9ZtNHlN+Q3aIfaPP3eSm5fH/PvmYGNjzdffrESh0BfyB/jsyxV8/c33/Odf/zRKHGo0Gj78+HPOJibRt08vFi+af93EopWlJV5ennh5edKxQzAhwUF88vlyfvx5DW8v/fcNia0hampblpp4fWvqrtW0aUmS3BJCCCGEEC3KrXrZRUGBGp+rtiP/4JMvOXT0GH179+T5px6jXZs2VFZWsmnr77z1/sd1ddcg9vb25BcUkJeXbzIhlFu9pM7ezF/Yg9u3I7RbV6JPnSYmLoF2bQM5fDQcL09POncMadLYTWlsPLY2+oScpkLT4HuMGTmMUcOHsv/gEb77cTVR0SeZ/9ATrPr6U6OYahJt7k1cTiPEzWJlacm0eyaTnpFBeEQkxyNP0LlTR2xt9InxoqLimz6m4mJ90sCm+v8q6GsKVTWyn9atW/Hyi8+Scj6VP3f8xZFj4Xz59bcUFhUxZtSI5htwPYpKasdzPdfGb139d2i3rsy/33RdMwXNv1Q0v6CA37fvwN/Pj2FDB5OWnkFaegYzp99jKCo/dvQI1q7fRGZmFt5X/Qz7ZuUPxMUn0DO0O48sXlRr18P69O7VAxdn/eYdBWp1vcvZb5SamHJycmudy8nVH/PxNr8uWHORmltCCCGEEKJFeXrqP6HPyDJeUnL8xEkAXnn+aYLbt8PCQom1tVWzzKLo1CEYuLKc72rnUs5TWFiIk6NTkwr5zps1DYDVG37l0JFwysrLuHPMyBtSq6ex8XhV1165cOlyo+6jVCoZPnQQ3y//mLmzpqOt1PLzNbMoapYGeXq4NzoOIVqSn68vAMXViZiAAD/gyvLEm6WqqoqUlPP6Mfj7GY5bWllSqdVSWdnYFJd+p7uHFy/kieoC7dv+3Nk8g22AjIxMSktKUKlsDZtgXI+p+Gv+Tr10CRdnZ9xcXWv9ubo+lZWlfh5PffWw6rNh42YqysuZPWsaSqWSvOoaYB7uV97fanadvbo+2qHDRzlyNJw2ga1Z8vCDWFg0PvWi0+koq54tVbP0siWEBOs3e4mNi691LjYuAdAX429pktwSQgghhBAtqleofke9yGjjxIyqejlhYxMwDXH3BH1R+pU/raVArTYc1+l0fPT51wBMmjC20Z+0X23ksKH4+viwfeduNmz+HaDW7o7NpbHxuDg74enhSUZmJmEHj5h1z77Vhe1rZljUiIo+BUDP0G5m9SvEjZSRmVVn7aDok/rv3ZpZKP369EahVBJ+PJKTp87ckPGUaypqjWfHzt3k5uXh7eVJ4FW7OLq76ZMoCWfPmn2/jh31y4jLS2/MEr7Sq5ZnA1RWVrJ2wyYA+vbpXSu539D42wS2xtvbi7zcPLb+/ke943Crfq1SUy9QamasqakXOHDoCN27daFrF33dtZqvQXbOlRqO2dX1HGvOVVVVsWHzVhRKJQ8vfsBoUxBTKisrTR7fsy+MsvJyXN1cDQk0cxw+eoy9+8Koqmp8UhQgqH07vDw9SDmfyqnTMYbjeXn5HDx4GKWFBf379jF7fM1FliUKIYQQQogWNai//pfiiMgTRscnjR/D6ZhYXnr9Le6ZeCf+/n7oqqo4Xp08aYqhgwcwdtQIdvy1hxn3LWbi+DHYq1Ts3n+IM7GxBPj78cgD9zfpHhYWSh64bzZvvvshB48cpUNwkGGGVXMzJ54Fc2fy7kef8dSLrzBm5HBaB/hTodFwPCq6Vv+vvPE2Gq2WTh2CsVOpyMrOYdNW/QPmoKtq9xQVFROXkEjrVq3w8/W5IbEK0RRfrfiOtIxMunXphJ+vD1ZWVhQUqImMiiYrOxsHB3uGDxsC6GtWzZh6N2vXb+KDjz6lT++eBLZqRYVGQ1p6OiOG3UGXzh2bNJ683Dyef/k1+vbqiYODPckpqURGnUChUDBvzr1GyaAhgwayet0GPl/+DYMH9cfSwpLklBSm33O3yR34du/Zz/GoKDqEBOPg4EBZWRnhEZEAdL1BRfKPhkeQkZ1N9y6dUSqVnIg+Scr5VBwdHZl690Sz41coFCy8fy7vfvgJmzb/RvTJ0wQHtcfR0ZHCwkLiE87y/LNPYVe9o5+Dgz2h3bsRffIUb73zPqHdu6HRaEhMOsdLLzzToA8ufl6zHhQK7p053XDM29sLP18fduzcTZvAQAB27tpDqwB/PKuXhKdeuEhOdg42trZs2brNZN+DBvY3bFSwctVPZGRlERIUhJOTIxUVFSQlJRMVrZ+9fO+MqQ19+WtJOJvI8q+/A8DG1oaB/euv+XgtRfVr8PFnX/LZF18xetQI7OxU7N6zn7LyciZOuLNJybfmIsktIYQQQgjRony8vejcsQOnY2JJOpdC+3ZtAJg1bQr56kJ+XL2elT+vMbrG0tIKV2fnJt136esv0SrAn5/XbuDbVT8DoFRaMGr4Hfzjmb/h6OjQpP4Bpky8kxXf/0RGZibTp9S9S1ZzaGw8c2dNo6SklG9//IXtO413H3NzdaP1VcuhCtSF7D94yKidi7Mzjy1+gGl332U4tuX37VRVVTJ6xNAbEaIQTaLT6QgOak9OTi5Hj0UYnVMoFHTt3Im5c2bhctV7y4Q7x+Ls5MT6X7cQcTyKiOpdTxUKBT17hDZ5TCo7O1Q2Nvx51f8tTw8P5s2dVWuXxpEjhpGUnEx4RCTb/9wFgJW1FXn5BbQ10XdpWSmx8QmciYkzHLOwtGTwoAHMmTWjyWM3xdvbi5zsHLb8diWpExISxAPz5+HiUrsOX2Pi79ghhJee/zu/rFlPYtI5ziWnGM45OzlRVFhkSG4BzJ09k9zcXFIvXCT1wkUAnJwcyS8oqHd5e2TUCeLiExg1YphRol6pVLJ40QI++eIr3nl/GQDuHu4sXrTAkIirqTtYXlbG4To2RGnTprUhPitrK84lnychIdGojZ+vDzOnT6VHE2bBOjo4oFAq0VVV4exk/s/MXj1DWbTgPn5cvY7ftm0HQGmh5M5xo5l2z2Sz+21OCl1Dt5n5HxIeeZK+vbq39DCEEEIIIQBQX7XMzFxOTk639O84O3fv47l//oupk+/i1RefMTqn0WhIy8gkP78AG2tr3NxccXdzbdKSwauVV1SQmJSMVqslsHUrXJybr2ivTqdjzgNLuJyWwbaNP2FvZ9dsfdelsfFoNBpSUi9QUlKKytYWLy9Pk9cUqNVcvJSGVqvFzc0VX28vLC2vfFZeVVXF5Fn3k5mVzbYNP+NxC3ySL0RdMrOyycnJoby8ApXKFn8/Pxwc7K97TUZGJurCQmysrfH29mpwcXRTCgrUPPnMC/h4e/N/b75OgVpNdnYOdnZ29db6U6sLycnRt/XwcMfCwqLOthUVGtIzMigrK8Pe3h53dzfDhhLN6eixCL746huGDxvK/HmzycnJpUCtrlULq0ZT4gf9a5Cdk4NSqcTF2QlnZ+c66xlmZmVTVFSEi4szri4uzVL3UKPRGBJmrVu3MtT4Mrs/rZZLly5ToFZjaWGJl5eHWTvbmpKVnY1Wo8W3GWbTVlRUkJxyHq22ktat/HF0rH/ny5tFZm4JIYQQQogWN2r4UNoGBrL59+3Mmno3HUKCDOesrKxoHeBP6wD/G3JvG2trunTq0Oz96nQ6ln/3A7HxCTzzxJKbktiCxsdjZWVFcPt29bZzdnK67m5dv6zbxMVLl5k5bYoktsQtz8vTw+TOotfj7e1ltBtec6rv/9fVnJwccXJqWFLB2tqK1q0CmjK0RlMoFHh4uOPRiE0lGhM/NO41MOdrXR8rKyvatzM1X87M/iwtaRPYutn6u1pzJckArK2t6RByY5bXN5Ukt4QQQgghRItTKpW8/tKzLFzyFK8ufZdfvv2i2WZm3UyVlVXMmv8Qnp7uXLh4iYuXLjNk0ADmzJzW0kO7oS6npfPJl9/g7eXF3x5e1NLDEUII8T9GkltCCCGEEOKWENqtC39b8iBtWgXcloktgPyCAmxsbEhOScXby5N7p01h5tS7zdoG/nbi5eXJgvvupVf3bvUu7RJC6OsV+Xh7G4qQ3+5sVbb4eHs3ePbVf1v8ouVJzS0TbuV6FEIIIYT43/O/UHNLCCGEEMJc/90fIQkhhBBCCCGEEEKI/2qS3BJCCCGEEEIIIYQQt63/ByLnUvW3VcN+AAAAAElFTkSuQmCC;" vertex="1" parent="1">
          <mxGeometry x="720" y="170" width="1207" height="498" as="geometry" />
        </mxCell>
        <mxCell id="D8qQCOqbp-bCA8Lvzt1r-17" value="" style="rounded=0;whiteSpace=wrap;html=1;fontFamily=Comfortaa;fontSize=20;fillColor=#d5e8d4;strokeColor=#82b366;gradientColor=none;opacity=30;" vertex="1" parent="1">
          <mxGeometry x="1360" y="590" width="560" height="90" as="geometry" />
        </mxCell>
        <mxCell id="D8qQCOqbp-bCA8Lvzt1r-20" value="anonymous is Global Execution Context because it first run the file then call sayHello" style="text;html=1;strokeColor=none;fillColor=none;align=center;verticalAlign=middle;whiteSpace=wrap;rounded=0;fontFamily=Comfortaa;fontSize=20;opacity=30;" vertex="1" parent="1">
          <mxGeometry x="1522.5" y="720" width="235" height="70" as="geometry" />
        </mxCell>
      </root>
    </mxGraphModel>
  </diagram>
  <diagram id="lAfjjO9KMvnH7m7qASbD" name="Lexical Enviroment">
    <mxGraphModel dx="1420" dy="747" grid="1" gridSize="10" guides="1" tooltips="1" connect="1" arrows="1" fold="1" page="1" pageScale="1" pageWidth="850" pageHeight="1100" math="0" shadow="0">
      <root>
        <mxCell id="MRwqNVUu9ifoQk5q83aU-0" />
        <mxCell id="MRwqNVUu9ifoQk5q83aU-1" parent="MRwqNVUu9ifoQk5q83aU-0" />
      </root>
    </mxGraphModel>
  </diagram>
</mxfile>
